<?xml version="1.0" standalone="no"?><!DOCTYPE svg PUBLIC "-//W3C//DTD SVG 1.1//EN" "http://www.w3.org/Graphics/SVG/1.1/DTD/svg11.dtd" ><svg xmlns="http://www.w3.org/2000/svg"><metadata></metadata><defs><font id="1.001;UKWN;JulesColossal-Book" horiz-adv-x="1235"><font-face font-family="DSTypeJulesColossalBook" font-weight="400" font-stretch="normal" units-per-em="1000" panose-1="0 0 5 0 0 0 0 0 0 0" ascent="950" descent="-250" x-height="0" bbox="-68 -250 1168 980" underline-thickness="50" underline-position="-75" unicode-range="U+0020-fb02" /><missing-glyph horiz-adv-x="500"  /><glyph glyph-name="space" unicode=" " d="" /><glyph glyph-name="exclam" unicode="!" d="M121.5 737.5 q12.5 12.5 31.5 12.5 q19 0 31 -12.5 q12 -12.5 12 -30.5 q0 -20 -19.5 -223 q-19.5 -203 -19.5 -309 l-8 0 q0 106 -20 309 q-20 203 -20 223 q0 18 12.5 30.5 ZM124 58.5 q11 11.5 29 11.5 q18 0 29 -11.5 q11 -11.5 11 -28.5 q0 -17 -11 -28.5 q-11 -11.5 -29 -11.5 q-18 0 -29 11.5 q-11 11.5 -11 28.5 q0 17 11 28.5 Z" /><glyph glyph-name="quotedbl" unicode="&quot;" d="M65 698 q12 12 29 12 q17 0 29 -12 q12 -12 12 -29 q0 -10 -9 -49 l-28 -100 l-8 0 l-28 100 q-9 39 -9 49 q0 17 12 29 ZM195 698 q12 12 29 12 q17 0 29 -12 q12 -12 12 -29 q0 -10 -9 -49 l-28 -100 l-8 0 l-28 100 q-9 39 -9 49 q0 17 12 29 Z" /><glyph glyph-name="numbersign" unicode="#" d="M342 323 l-32 -148 l150 0 l0 -12 l-152 0 l-35 -163 l-13 0 l35 163 l-117 0 l-35 -163 l-13 0 l35 163 l-115 0 l0 12 l117 0 l32 148 l-149 0 l0 12 l152 0 l35 165 l13 0 l-35 -165 l117 0 l35 165 l13 0 l-35 -165 l115 0 l0 -12 l-118 0 ZM329 323 l-117 0 l-32 -148 l117 0 l32 148 Z" /><glyph glyph-name="dollar" unicode="$" d="M510 188 q0 -87 -63 -142 q-63 -55 -172 -56 l-3 -80 l-12 0 l3 80 q-49 1 -90.5 16 q-41.5 15 -65.5 29.5 q-24 14.5 -30 14.5 q-11 0 -11 -15 l0 -35 l-8 0 l0 183 l8 0 l2 -10 q20 -89 67.5 -131 q47.5 -42 127.5 -44 l12 329 q-99 51 -132 78 q-68 56 -68 137 q0 74 59 121 q59 47 155 47 l3 80 l12 0 l-3 -80 q37 -2 71 -17 q34 -15 56 -29 q22 -14 29 -14 q11 0 11 15 l0 35 l8 0 l0 -182 l-8 0 l-2 10 q-39 166 -165 174 l-11 -289 q10 -5 38 -19 q28 -14 40 -20.5 q12 -6.5 36 -21 q24 -14.5 35 -24.5 q11 -10 27.5 -26.5 q16.5 -16.5 24 -32 q7.5 -15.5 13.5 -37 q6 -21.5 6 -44.5 ZM148 583 q0 -56 34 -93 q34 -37 97 -71 l10 283 q-68 0 -104.5 -32.5 q-36.5 -32.5 -36.5 -86.5 ZM287 321 l-12 -323 q77 1 120 38 q43 37 43 110 q0 61 -38.5 99 q-38.5 38 -112.5 76 Z" /><glyph glyph-name="percent" unicode="%" d="M211 700 q74 0 117 -50 q43 -50 43 -130 q0 -80 -43 -130 q-43 -50 -117 -50 q-75 0 -118 50 q-43 50 -43 130 q0 80 43 130 q43 50 118 50 ZM219 0 l-13 0 l307 700 l13 0 l-307 -700 ZM210 696 q-88 0 -88 -176 q0 -176 88 -176 q89 0 89 176 q0 176 -89 176 ZM522 360 q74 0 117 -50 q43 -50 43 -130 q0 -80 -43 -130 q-43 -50 -117 -50 q-75 0 -118 50 q-43 50 -43 130 q0 80 43 130 q43 50 118 50 ZM521 356 q-88 0 -88 -176 q0 -176 88 -176 q89 0 89 176 q0 176 -89 176 Z" /><glyph glyph-name="ampersand" unicode="&amp;" d="M658 352 l-58 0 q-19 0 -24.5 -5.5 q-5.5 -5.5 -5.5 -24.5 q0 -131 -56 -217 l45 -67 q20 -30 61 -30 l22 0 l0 -8 l-157 0 l-29 43 q-73 -53 -184 -53 q-69 0 -117 29 q-48 29 -67.5 68.5 q-19.5 39.5 -19.5 82.5 q0 75 41.5 123.5 q41.5 48.5 117.5 91.5 q-58 89 -58 166 q0 71 47 115 q47 44 128 44 q51 0 80.5 -30 q29.5 -30 29.5 -76 q0 -63 -39.5 -104.5 q-39.5 -41.5 -113.5 -82.5 l208 -305 q53 82 53 210 q0 20 -5 25 q-5 5 -25 5 l-68 0 l0 8 l194 0 l0 -8 ZM236 598 q0 -82 61 -174 q73 40 111 80 q38 40 38 100 q0 44 -28 71 q-28 27 -74 27 q-55 0 -81.5 -28.5 q-26.5 -28.5 -26.5 -75.5 ZM272 -2 q109 0 179 52 l-220 328 q-74 -42 -114.5 -89 q-40.5 -47 -40.5 -119 q0 -68 51 -120 q51 -52 145 -52 Z" /><glyph glyph-name="quotesingle" unicode="&#39;" d="M65 698 q12 12 29 12 q17 0 29 -12 q12 -12 12 -29 q0 -10 -9 -49 l-28 -100 l-8 0 l-28 100 q-9 39 -9 49 q0 17 12 29 Z" /><glyph glyph-name="parenleft" unicode="(" d="M267 790 l8 0 q-127 -125 -127 -440 q0 -315 127 -440 l-8 0 q-199 185 -199 440 q0 255 199 440 Z" /><glyph glyph-name="parenright" unicode=")" d="M48 790 l8 0 q199 -185 199 -440 q0 -255 -199 -440 l-8 0 q127 125 127 440 q0 315 -127 440 Z" /><glyph glyph-name="asterisk" unicode="*" d="M200 710 q15 0 24.5 -9 q9.5 -9 9.5 -23 q0 -17 -14.5 -55 q-14.5 -38 -15.5 -65 q23 14 43 37.5 q20 23.5 34.5 38 q14.5 14.5 30.5 14.5 q14 0 23 -10.5 q9 -10.5 9 -24.5 q0 -19 -16 -28 q-16 -9 -46 -14 q-47 -8 -73 -21 q26 -13 73 -21 q62 -9 62 -42 q0 -13 -9 -23.5 q-9 -10.5 -23 -10.5 q-16 0 -30.5 14 q-14.5 14 -35 37.5 q-20.5 23.5 -42.5 37.5 q1 -27 15.5 -64.5 q14.5 -37.5 14.5 -54.5 q0 -15 -9.5 -24 q-9.5 -9 -24.5 -9 q-15 0 -24.5 9 q-9.5 9 -9.5 24 q0 17 14.5 54.5 q14.5 37.5 15.5 64.5 q-22 -14 -42.5 -37.5 q-20.5 -23.5 -35 -37.5 q-14.5 -14 -30.5 -14 q-14 0 -23 10.5 q-9 10.5 -9 23.5 q0 19 15 28 q15 9 45 14 q47 6 76 21 q-29 15 -76 21 q-60 11 -60 42 q0 14 9 24.5 q9 10.5 23 10.5 q16 0 30.5 -14.5 q14.5 -14.5 34.5 -38 q20 -23.5 43 -37.5 q-1 27 -15.5 65 q-14.5 38 -14.5 55 q0 14 10 23 q10 9 24 9 Z" /><glyph glyph-name="plus" unicode="+" d="M420 293 l-179 0 l0 -179 l-12 0 l0 179 l-179 0 l0 12 l179 0 l0 179 l12 0 l0 -179 l179 0 l0 -12 Z" /><glyph glyph-name="comma" unicode="," d="M95 70 q40 0 40 -53 q0 -93 -72 -137 l-5 6 q24 16 40.5 40 q16.5 24 16.5 44 q0 20 -21 20 q-18 0 -28.5 11.5 q-10.5 11.5 -10.5 28.5 q0 17 11 28.5 q11 11.5 29 11.5 Z" /><glyph glyph-name="hyphen" unicode="-" d="M340 243 l-290 0 l0 12 l290 0 l0 -12 Z" /><glyph glyph-name="period" unicode="." d="M66 58.5 q11 11.5 29 11.5 q18 0 29 -11.5 q11 -11.5 11 -28.5 q0 -17 -11 -28.5 q-11 -11.5 -29 -11.5 q-18 0 -29 11.5 q-11 11.5 -11 28.5 q0 17 11 28.5 Z" /><glyph glyph-name="slash" unicode="/" d="M93 0 l-13 0 l307 700 l13 0 l-307 -700 Z" /><glyph glyph-name="zero" unicode="0" d="M332 710 q129 0 196 -100.5 q67 -100.5 67 -259.5 q0 -160 -67 -260 q-67 -100 -196 -100 q-130 0 -197 99.5 q-67 99.5 -67 260.5 q0 159 67 259.5 q67 100.5 197 100.5 ZM331 702 q-182 0 -182 -352 q0 -352 182 -352 q183 0 183 352 q0 352 -183 352 Z" /><glyph glyph-name="one" unicode="1" d="M233 710 l0 -672 q0 -20 5.5 -25 q5.5 -5 24.5 -5 l75 0 l0 -8 l-290 0 l0 8 l75 0 q19 0 24.5 5 q5.5 5 5.5 25 l0 595 q0 15 -5.5 21 q-5.5 6 -23.5 3 q-38 -5 -76 -5 l0 8 q145 0 177 50 l8 0 Z" /><glyph glyph-name="two" unicode="2" d="M263 710 q104 0 165.5 -50 q61.5 -50 61.5 -147 q0 -33 -8.5 -63 q-8.5 -30 -31 -64 q-22.5 -34 -43 -59.5 q-20.5 -25.5 -65 -67.5 q-44.5 -42 -74.5 -68 q-30 -26 -93 -80 l-44 -38 l234 0 q72 0 98.5 14 q26.5 14 26.5 65 l0 25 l8 0 l0 -177 l-450 0 l0 8 l122 110 q138 117 188.5 206.5 q50.5 89.5 50.5 190.5 q0 88 -37 137.5 q-37 49.5 -109 49.5 q-67 0 -91 -28 q-24 -28 -24 -64 l0 -17 q0 -16 -10.5 -26 q-10.5 -10 -27.5 -10 q-16 0 -26 9.5 q-10 9.5 -10 26.5 q0 42 57.5 79.5 q57.5 37.5 131.5 37.5 Z" /><glyph glyph-name="three" unicode="3" d="M258 710 q104 0 166.5 -41.5 q62.5 -41.5 62.5 -120.5 q0 -78 -68.5 -125 q-68.5 -47 -159.5 -59 q44 -3 85.5 -14.5 q41.5 -11.5 80 -32.5 q38.5 -21 62 -57 q23.5 -36 23.5 -82 q0 -95 -71 -141.5 q-71 -46.5 -181 -46.5 q-81 0 -140.5 37.5 q-59.5 37.5 -59.5 80.5 q0 36 36 36 q17 0 27.5 -10 q10.5 -10 10.5 -26 q0 -3 -0.5 -8.5 q-0.5 -5.5 -0.5 -7.5 q0 -36 27.5 -65 q27.5 -29 99.5 -29 q171 0 171 177 q0 44 -13.5 77.5 q-13.5 33.5 -34.5 53 q-21 19.5 -50.5 32.5 q-29.5 13 -57.5 17.5 q-28 4.5 -60 4.5 q-14 -1 -28 -4 q-14 -3 -20 -3 q-14 0 -14 11 q0 11 14 11 q6 0 20 -3 q14 -3 28 -4 q91 1 145 45 q54 44 54 134 q0 69 -40.5 112 q-40.5 43 -113.5 43 q-65 0 -88.5 -27 q-23.5 -27 -23.5 -60 q0 -3 1 -10 q1 -7 1 -12 q0 -16 -10.5 -26 q-10.5 -10 -27.5 -10 q-16 0 -26 9.5 q-10 9.5 -10 26.5 q0 42 55.5 79.5 q55.5 37.5 128.5 37.5 Z" /><glyph glyph-name="four" unicode="4" d="M423 188 l0 -150 q0 -20 5.5 -25 q5.5 -5 24.5 -5 l75 0 l0 -8 l-290 0 l0 8 l75 0 q19 0 24.5 5 q5.5 5 5.5 25 l0 150 l-315 0 l0 8 l315 419 l72 95 l8 0 l0 -514 l105 0 l0 -8 l-105 0 ZM343 196 l0 408 l-305 -408 l305 0 Z" /><glyph glyph-name="five" unicode="5" d="M270 410 q106 0 172 -53 q66 -53 66 -154 q0 -107 -72 -160 q-72 -53 -178 -53 q-81 0 -140.5 37.5 q-59.5 37.5 -59.5 80.5 q0 36 36 36 q17 0 27.5 -10 q10.5 -10 10.5 -26 q0 -3 -0.5 -9 q-0.5 -6 -0.5 -8 q0 -36 27.5 -64.5 q27.5 -28.5 99.5 -28.5 q169 0 169 202 q0 102 -43 152 q-43 50 -118 50 q-86 0 -155 -61 l-8 0 l27 359 q50 0 156 -16.5 q106 -16.5 140 -16.5 q23 0 38.5 12.5 q15.5 12.5 15.5 38.5 l8 0 q0 -113 -126 -113 q-38 0 -116 10 q-78 10 -113 10 l-21 -272 q69 57 158 57 Z" /><glyph glyph-name="six" unicode="6" d="M311 428 q105 0 168.5 -54 q63.5 -54 63.5 -159 q0 -101 -66 -163 q-66 -62 -168 -62 q-120 0 -180.5 91.5 q-60.5 91.5 -60.5 226.5 q0 63 9.5 120 q9.5 57 30.5 109 q21 52 52 90 q31 38 77.5 60.5 q46.5 22.5 103.5 22.5 q73 0 128.5 -37.5 q55.5 -37.5 55.5 -79.5 q0 -17 -9.5 -26.5 q-9.5 -9.5 -26.5 -9.5 q-17 0 -27.5 10 q-10.5 10 -10.5 26 q0 5 1 12 q1 7 1 10 q1 33 -23 60 q-24 27 -89 27 q-184 0 -192 -336 q76 62 162 62 ZM309 -2 q66 0 109.5 58 q43.5 58 43.5 155 q0 209 -151 209 q-88 0 -162 -65 l0 -12 q0 -170 38 -257.5 q38 -87.5 122 -87.5 Z" /><glyph glyph-name="seven" unicode="7" d="M519 710 l9 0 q-23 -53 -61 -116 q-38 -63 -69 -113.5 q-31 -50.5 -61 -113.5 q-30 -63 -47 -144 q-17 -81 -17 -176 q0 -57 -41 -57 q-17 0 -28.5 13 q-11.5 13 -11.5 39 q0 73 38 166.5 q38 93.5 83.5 165.5 q45.5 72 101.5 156.5 q56 84.5 75 121.5 q-49 -59 -127 -59 q-49 0 -129 21 q-80 21 -109 21 q-39 0 -58 -19.5 q-19 -19.5 -19 -46.5 l0 -33 l-8 0 l0 164 l8 0 l0 -103 q11 113 140 113 q50 0 140.5 -31.5 q90.5 -31.5 124.5 -31.5 q21 0 36 13.5 q15 13.5 30 49.5 Z" /><glyph glyph-name="eight" unicode="8" d="M345 382 q39 -20 58 -30.5 q19 -10.5 50 -32 q31 -21.5 46 -40 q15 -18.5 27 -46 q12 -27.5 12 -58.5 q0 -85 -62.5 -135 q-62.5 -50 -173.5 -50 q-118 0 -176 45.5 q-58 45.5 -58 119.5 q0 64 53 113.5 q53 49.5 127 81.5 q-74 40 -115 83.5 q-41 43.5 -41 108.5 q0 69 55 118.5 q55 49.5 158 49.5 q97 0 150.5 -44.5 q53.5 -44.5 53.5 -112.5 q0 -106 -164 -171 ZM168 571 q0 -33 13 -60.5 q13 -27.5 40 -50 q27 -22.5 51 -37.5 q24 -15 64 -36 q111 48 111 168 q0 73 -43 110 q-43 37 -99 37 q-50 0 -93.5 -33 q-43.5 -33 -43.5 -98 ZM302 -2 q84 0 122 43 q38 43 38 103 q0 19 -5.5 36.5 q-5.5 17.5 -12 30.5 q-6.5 13 -22.5 28.5 q-16 15.5 -25 23.5 q-9 8 -33 22.5 q-24 14.5 -33 19.5 q-9 5 -38.5 20.5 q-29.5 15.5 -36.5 19.5 q-60 -32 -93 -73.5 q-33 -41.5 -33 -113.5 q0 -74 43.5 -117 q43.5 -43 128.5 -43 Z" /><glyph glyph-name="nine" unicode="9" d="M302 710 q81 0 137 -46 q56 -46 80 -115.5 q24 -69.5 24 -155.5 q0 -79 -15.5 -149 q-15.5 -70 -46.5 -128 q-31 -58 -85.5 -92 q-54.5 -34 -125.5 -34 q-73 0 -128.5 38 q-55.5 38 -55.5 80 q0 36 36 36 q17 0 27.5 -10 q10.5 -10 10.5 -26 q0 -5 -1 -13 q-1 -8 -1 -11 q-1 -33 23 -59.5 q24 -26.5 89 -26.5 q184 0 192 337 q-76 -62 -163 -62 q-105 0 -168 53.5 q-63 53.5 -63 159.5 q0 101 66 162.5 q66 61.5 168 61.5 ZM299 281 q89 0 163 65 l0 12 q0 170 -38 257 q-38 87 -122 87 q-67 0 -110 -57.5 q-43 -57.5 -43 -154.5 q0 -209 150 -209 Z" /><glyph glyph-name="colon" unicode=":" d="M66 323.5 q11 11.5 29 11.5 q18 0 29 -11.5 q11 -11.5 11 -28.5 q0 -17 -11 -28.5 q-11 -11.5 -29 -11.5 q-18 0 -29 11.5 q-11 11.5 -11 28.5 q0 17 11 28.5 ZM66 58.5 q11 11.5 29 11.5 q18 0 29 -11.5 q11 -11.5 11 -28.5 q0 -17 -11 -28.5 q-11 -11.5 -29 -11.5 q-18 0 -29 11.5 q-11 11.5 -11 28.5 q0 17 11 28.5 Z" /><glyph glyph-name="semicolon" unicode=";" d="M66 323.5 q11 11.5 29 11.5 q18 0 29 -11.5 q11 -11.5 11 -28.5 q0 -17 -11 -28.5 q-11 -11.5 -29 -11.5 q-18 0 -29 11.5 q-11 11.5 -11 28.5 q0 17 11 28.5 ZM95 70 q40 0 40 -53 q0 -93 -72 -137 l-5 6 q24 16 40.5 40 q16.5 24 16.5 44 q0 20 -21 20 q-18 0 -28.5 11.5 q-10.5 11.5 -10.5 28.5 q0 17 11 28.5 q11 11.5 29 11.5 Z" /><glyph glyph-name="less" unicode="&lt;" d="M420 373 l-348 -74 l348 -74 l0 -12 l-370 80 l0 12 l370 80 l0 -12 Z" /><glyph glyph-name="equal" unicode="=" d="M420 363 l-370 0 l0 12 l370 0 l0 -12 ZM420 203 l-370 0 l0 12 l370 0 l0 -12 Z" /><glyph glyph-name="greater" unicode="&gt;" d="M420 305 l0 -12 l-370 -80 l0 12 l348 74 l-348 74 l0 12 l370 -80 Z" /><glyph glyph-name="question" unicode="?" d="M232 750 q102 0 161 -50 q59 -50 59 -142 q0 -47 -18.5 -86.5 q-18.5 -39.5 -47 -65.5 q-28.5 -26 -61 -53 q-32.5 -27 -61 -50 q-28.5 -23 -47 -56.5 q-18.5 -33.5 -18.5 -71.5 l-8 0 q0 38 18.5 75.5 q18.5 37.5 44.5 69.5 q26 32 52.5 66 q26.5 34 45 79 q18.5 45 18.5 95 q0 84 -34 133 q-34 49 -104 49 q-68 0 -95.5 -29 q-27.5 -29 -27.5 -64 l0 -16 q0 -16 -10.5 -26 q-10.5 -10 -26.5 -10 q-17 0 -27 9.5 q-10 9.5 -10 26.5 q0 42 61.5 79.5 q61.5 37.5 135.5 37.5 ZM170 58.5 q11 11.5 29 11.5 q18 0 29 -11.5 q11 -11.5 11 -28.5 q0 -17 -11 -28.5 q-11 -11.5 -29 -11.5 q-18 0 -29 11.5 q-11 11.5 -11 28.5 q0 17 11 28.5 Z" /><glyph glyph-name="at" unicode="@" d="M454 652 q154 0 260 -91.5 q106 -91.5 106 -234.5 q0 -62 -16.5 -111 q-16.5 -49 -41.5 -78 q-25 -29 -56.5 -48 q-31.5 -19 -59.5 -25.5 q-28 -6.5 -53 -6.5 q-48 0 -80.5 22 q-32.5 22 -32.5 58 q0 14 5 28 q-62 -95 -134 -95 q-53 0 -80.5 29 q-27.5 29 -27.5 77 q0 93 82 189 q82 96 183 96 q38 0 56.5 -20 q18.5 -20 18.5 -48 q0 -11 -3 -20 l39 80 l62 0 l-139 -293 q-9 -19 -9 -36 q0 -26 20.5 -41 q20.5 -15 53.5 -15 q31 0 63.5 13 q32.5 13 66 40.5 q33.5 27.5 54.5 80.5 q21 53 21 124 q0 140 -103 229 q-103 89 -255 89 q-172 0 -284 -110 q-112 -110 -112 -281 q0 -157 102 -261 q102 -104 259 -104 l0 -8 q-161 0 -265 106 q-104 106 -104 267 q0 174 114.5 286.5 q114.5 112.5 289.5 112.5 ZM511 454 q-47 0 -98.5 -54 q-51.5 -54 -84.5 -128 q-33 -74 -33 -132 q0 -28 14.5 -45 q14.5 -17 43.5 -17 q43 0 84 40 q41 40 72 105 l51 106 q15 31 15 64 q0 26 -16.5 43.5 q-16.5 17.5 -47.5 17.5 Z" /><glyph glyph-name="A" unicode="a" d="M714 8 l0 -8 l-231 0 l0 8 l53 0 q16 0 19 7 q3 7 -4 23 l-83 195 l-302 0 l-77 -193 q-12 -32 15 -32 l64 0 l0 -8 l-167 0 l0 8 l37 0 q20 0 26 5 q6 5 15 25 l266 667 l8 0 l287 -667 q8 -19 16.5 -24.5 q8.5 -5.5 28.5 -5.5 l29 0 ZM464 241 l-153 358 l-142 -358 l295 0 Z" /><glyph glyph-name="B" unicode="b" d="M391 363 q95 -10 146 -58 q51 -48 51 -123 q0 -80 -60.5 -131 q-60.5 -51 -164.5 -51 l-315 0 l0 8 l35 0 q19 0 24.5 5 q5.5 5 5.5 25 l0 624 q0 20 -5.5 25 q-5.5 5 -24.5 5 l-35 0 l0 8 l268 0 q113 0 169 -46.5 q56 -46.5 56 -124.5 q0 -64 -42.5 -108.5 q-42.5 -44.5 -107.5 -57.5 ZM193 692 l0 -326 l145 0 q57 0 89.5 35 q32.5 35 32.5 129 q0 88 -39.5 125 q-39.5 37 -114.5 37 l-113 0 ZM193 8 l155 0 q70 0 114.5 42 q44.5 42 44.5 132 q0 176 -163 176 l-151 0 l0 -350 Z" /><glyph glyph-name="C" unicode="c" d="M422 710 q55 0 106 -15 q51 -15 83 -30 q32 -15 38 -15 q11 0 11 15 l0 35 l8 0 l0 -182 l-8 0 l-2 10 q-22 93 -81 133.5 q-59 40.5 -155 40.5 q-118 0 -195.5 -100 q-77.5 -100 -77.5 -252 q0 -152 77.5 -252 q77.5 -100 195.5 -100 q96 0 155 41 q59 41 81 134 l2 10 l8 0 l0 -183 l-8 0 l0 35 q0 15 -11 15 q-6 0 -38 -15 q-32 -15 -83.5 -30 q-51.5 -15 -105.5 -15 q-148 0 -251 103 q-103 103 -103 257 q0 154 103 257 q103 103 251 103 Z" /><glyph glyph-name="D" unicode="d" d="M48 700 l309 0 q150 0 251.5 -97 q101.5 -97 101.5 -253 q0 -156 -101.5 -253 q-101.5 -97 -251.5 -97 l-309 0 l0 8 l35 0 q19 0 24.5 5 q5.5 5 5.5 25 l0 624 q0 20 -5.5 25 q-5.5 5 -24.5 5 l-35 0 l0 8 ZM357 692 l-134 0 q-19 0 -24.5 -5 q-5.5 -5 -5.5 -25 l0 -624 q0 -20 5.5 -25 q5.5 -5 24.5 -5 l134 0 q119 0 195.5 94 q76.5 94 76.5 248 q0 154 -76.5 248 q-76.5 94 -195.5 94 Z" /><glyph glyph-name="E" unicode="e" d="M585 169 l0 -169 l-537 0 l0 8 l35 0 q19 0 24.5 5 q5.5 5 5.5 25 l0 624 q0 20 -5.5 25 q-5.5 5 -24.5 5 l-35 0 l0 8 l512 0 l0 -169 l-8 0 l0 25 q0 59 -29.5 97.5 q-29.5 38.5 -91.5 38.5 l-208 0 q-19 0 -24.5 -5 q-5.5 -5 -5.5 -25 l0 -300 l148 0 q111 0 111 96 l0 27 l8 0 l0 -254 l-8 0 l0 28 q0 95 -111 95 l-148 0 l0 -316 q0 -20 5.5 -25 q5.5 -5 24.5 -5 l233 0 q62 0 91.5 39.5 q29.5 39.5 29.5 96.5 l0 25 l8 0 Z" /><glyph glyph-name="F" unicode="f" d="M560 531 l-8 0 l0 25 q0 60 -29 98 q-29 38 -92 38 l-208 0 q-19 0 -24.5 -5 q-5.5 -5 -5.5 -25 l0 -300 l148 0 q57 0 84 26.5 q27 26.5 27 69.5 l0 27 l8 0 l0 -254 l-8 0 l0 28 q0 42 -27 68.5 q-27 26.5 -84 26.5 l-148 0 l0 -316 q0 -20 5.5 -25 q5.5 -5 24.5 -5 l35 0 l0 -8 l-210 0 l0 8 l35 0 q19 0 24.5 5 q5.5 5 5.5 25 l0 624 q0 20 -5.5 25 q-5.5 5 -24.5 5 l-35 0 l0 8 l512 0 l0 -169 Z" /><glyph glyph-name="G" unicode="g" d="M422 710 q55 0 106 -15 q51 -15 83 -30 q32 -15 38 -15 q11 0 11 15 l0 35 l8 0 l0 -182 l-8 0 l-2 10 q-22 93 -81 133.5 q-59 40.5 -155 40.5 q-118 0 -195.5 -100 q-77.5 -100 -77.5 -252 q0 -153 76 -252.5 q76 -99.5 193 -99.5 q102 0 153.5 47.5 q51.5 47.5 51.5 150.5 l0 116 q0 20 -5.5 25 q-5.5 5 -24.5 5 l-35 0 l0 8 l210 0 l0 -8 l-35 0 q-19 0 -24.5 -5 q-5.5 -5 -5.5 -25 l0 -102 q0 -94 -80 -157 q-80 -63 -205 -63 q-148 0 -249 102.5 q-101 102.5 -101 257.5 q0 154 103 257 q103 103 251 103 Z" /><glyph glyph-name="H" unicode="h" d="M760 692 l-35 0 q-19 0 -24.5 -5 q-5.5 -5 -5.5 -25 l0 -624 q0 -20 5.5 -25 q5.5 -5 24.5 -5 l35 0 l0 -8 l-210 0 l0 8 l35 0 q19 0 24.5 5 q5.5 5 5.5 25 l0 320 l-422 0 l0 -320 q0 -20 5.5 -25 q5.5 -5 24.5 -5 l35 0 l0 -8 l-210 0 l0 8 l35 0 q19 0 24.5 5 q5.5 5 5.5 25 l0 624 q0 20 -5.5 25 q-5.5 5 -24.5 5 l-35 0 l0 8 l210 0 l0 -8 l-35 0 q-19 0 -24.5 -5 q-5.5 -5 -5.5 -25 l0 -296 l422 0 l0 296 q0 20 -5.5 25 q-5.5 5 -24.5 5 l-35 0 l0 8 l210 0 l0 -8 Z" /><glyph glyph-name="I" unicode="i" d="M258 692 l-35 0 q-19 0 -24.5 -5 q-5.5 -5 -5.5 -25 l0 -624 q0 -20 5.5 -25 q5.5 -5 24.5 -5 l35 0 l0 -8 l-210 0 l0 8 l35 0 q19 0 24.5 5 q5.5 5 5.5 25 l0 624 q0 20 -5.5 25 q-5.5 5 -24.5 5 l-35 0 l0 8 l210 0 l0 -8 Z" /><glyph glyph-name="J" unicode="j" d="M357 692 l-35 0 q-20 0 -25 -5 q-5 -5 -5 -25 l0 -463 q0 -106 -44.5 -157.5 q-44.5 -51.5 -118.5 -51.5 q-52 0 -81.5 27 q-29.5 27 -29.5 55 q0 16 9.5 26 q9.5 10 25.5 10 q16 0 25.5 -9.5 q9.5 -9.5 9.5 -23.5 q0 -9 -6.5 -23 q-6.5 -14 -6.5 -20 q0 -34 54 -34 q45 0 64 38 q19 38 19 128 l0 498 q0 20 -5 25 q-5 5 -25 5 l-35 0 l0 8 l210 0 l0 -8 Z" /><glyph glyph-name="K" unicode="k" d="M258 692 l-35 0 q-19 0 -24.5 -5 q-5.5 -5 -5.5 -25 l0 -624 q0 -20 5.5 -25 q5.5 -5 24.5 -5 l35 0 l0 -8 l-210 0 l0 8 l35 0 q19 0 24.5 5 q5.5 5 5.5 25 l0 624 q0 20 -5.5 25 q-5.5 5 -24.5 5 l-35 0 l0 8 l210 0 l0 -8 ZM635 692 l-52 0 q-33 0 -61 -29 l-262 -272 l331 -353 q16 -18 26.5 -24 q10.5 -6 28.5 -6 l39 0 l0 -8 l-266 0 l0 8 l50 0 q17 0 22.5 8 q5.5 8 -7.5 22 l-286 301 l313 324 q11 12 5.5 20.5 q-5.5 8.5 -20.5 8.5 l-73 0 l0 8 l212 0 l0 -8 Z" /><glyph glyph-name="L" unicode="l" d="M258 692 l-35 0 q-19 0 -24.5 -5 q-5.5 -5 -5.5 -25 l0 -624 q0 -20 5.5 -25 q5.5 -5 24.5 -5 l188 0 q62 0 91.5 39.5 q29.5 39.5 29.5 96.5 l0 25 l8 0 l0 -169 l-492 0 l0 8 l35 0 q19 0 24.5 5 q5.5 5 5.5 25 l0 624 q0 20 -5.5 25 q-5.5 5 -24.5 5 l-35 0 l0 8 l210 0 l0 -8 Z" /><glyph glyph-name="M" unicode="m" d="M813 692 l-35 0 q-20 0 -25 -5 q-5 -5 -5 -25 l0 -624 q0 -20 5 -25 q5 -5 25 -5 l35 0 l0 -8 l-210 0 l0 8 l35 0 q20 0 25 5 q5 5 5 25 l0 629 l-265 -667 l-8 0 l-281 670 l0 -632 q0 -20 5 -25 q5 -5 25 -5 l38 0 l0 -8 l-144 0 l0 8 l38 0 q20 0 25 5 q5 5 5 25 l0 624 q0 20 -5 25 q-5 5 -25 5 l-38 0 l0 8 l148 0 l251 -594 l236 594 l140 0 l0 -8 Z" /><glyph glyph-name="N" unicode="n" d="M700 692 l-38 0 q-20 -1 -25 -6 q-5 -5 -5 -24 l0 -663 l-8 1 l-510 669 l0 -631 q0 -20 5 -25 q5 -5 25 -5 l39 0 l0 -8 l-145 0 l0 8 l38 0 q20 0 25 5 q5 5 5 25 l0 624 q0 20 -5 25 q-5 5 -25 5 l-38 0 l0 8 l153 0 l433 -573 l0 535 q0 20 -5 25 q-5 5 -25 5 l-38 0 l0 8 l144 0 l0 -8 Z" /><glyph glyph-name="O" unicode="o" d="M171 607 q103 103 251 103 q148 0 250.5 -103 q102.5 -103 102.5 -257 q0 -154 -102.5 -257 q-102.5 -103 -250.5 -103 q-148 0 -251 103 q-103 103 -103 257 q0 154 103 257 ZM421 702 q-117 0 -194.5 -100 q-77.5 -100 -77.5 -252 q0 -152 77.5 -252 q77.5 -100 194.5 -100 q118 0 195.5 100 q77.5 100 77.5 252 q0 152 -77.5 252 q-77.5 100 -195.5 100 Z" /><glyph glyph-name="P" unicode="p" d="M48 700 l291 0 q120 0 177 -52.5 q57 -52.5 57 -137.5 q0 -85 -57 -138.5 q-57 -53.5 -177 -53.5 l-146 0 l0 -280 q0 -20 5.5 -25 q5.5 -5 24.5 -5 l35 0 l0 -8 l-210 0 l0 8 l35 0 q19 0 24.5 5 q5.5 5 5.5 25 l0 624 q0 20 -5.5 25 q-5.5 5 -24.5 5 l-35 0 l0 8 ZM193 692 l0 -366 l136 0 q163 0 163 184 q0 95 -40.5 138.5 q-40.5 43.5 -122.5 43.5 l-136 0 Z" /><glyph glyph-name="Q" unicode="q" d="M768 -199 q8 0 20 4 l0 -8 q-39 -17 -73 -17 q-41 0 -75 21.5 q-34 21.5 -58.5 52.5 q-24.5 31 -47.5 62 q-23 31 -51.5 52.5 q-28.5 21.5 -61.5 21.5 q-149 1 -251 103.5 q-102 102.5 -102 256.5 q0 154 103 257 q103 103 251 103 q148 0 250.5 -103 q102.5 -103 102.5 -257 q0 -144 -89.5 -244 q-89.5 -100 -224.5 -114 q55 -9 99 -32.5 q44 -23.5 70 -49.5 q26 -26 47.5 -51 q21.5 -25 43.5 -41.5 q22 -16.5 47 -16.5 ZM226.5 602 q-77.5 -100 -77.5 -252 q0 -152 77.5 -252 q77.5 -100 194.5 -100 q118 0 195.5 100 q77.5 100 77.5 252 q0 152 -77.5 252 q-77.5 100 -195.5 100 q-117 0 -194.5 -100 Z" /><glyph glyph-name="R" unicode="r" d="M660 3 q16 0 38 5 l0 -8 q-50 -10 -78 -10 q-65 0 -98 40.5 q-33 40.5 -56 132.5 q-22 92 -53 123.5 q-31 31.5 -90 31.5 l-130 0 l0 -280 q0 -20 5.5 -25 q5.5 -5 24.5 -5 l35 0 l0 -8 l-210 0 l0 8 l35 0 q19 0 24.5 5 q5.5 5 5.5 25 l0 624 q0 20 -5.5 25 q-5.5 5 -24.5 5 l-35 0 l0 8 l291 0 q120 0 177 -52.5 q57 -52.5 57 -137.5 q0 -76 -47 -126.5 q-47 -50.5 -142 -62.5 q134 -20 165 -152 q9 -39 14.5 -58 q5.5 -19 15 -44 q9.5 -25 19.5 -36 q10 -11 25.5 -19.5 q15.5 -8.5 36.5 -8.5 ZM193 326 l136 0 q82 1 122.5 45.5 q40.5 44.5 40.5 138.5 q0 95 -40.5 138.5 q-40.5 43.5 -122.5 43.5 l-136 0 l0 -366 Z" /><glyph glyph-name="S" unicode="s" d="M290 710 q40 0 76.5 -15 q36.5 -15 60 -30 q23.5 -15 30.5 -15 q11 0 11 15 l0 35 l8 0 l0 -182 l-8 0 l-2 10 q-41 174 -176 174 q-69 0 -105.5 -32.5 q-36.5 -32.5 -36.5 -86.5 q0 -55 37.5 -96 q37.5 -41 90.5 -67 q53 -26 106 -53.5 q53 -27.5 90.5 -72.5 q37.5 -45 37.5 -106 q0 -87 -64 -142.5 q-64 -55.5 -174 -55.5 q-52 0 -95.5 15 q-43.5 15 -68 30 q-24.5 15 -31.5 15 q-11 0 -11 -15 l0 -35 l-8 0 l0 183 l8 0 l2 -10 q21 -91 70.5 -133 q49.5 -42 133.5 -42 q78 0 122 37.5 q44 37.5 44 110.5 q0 55 -37.5 96 q-37.5 41 -91 67.5 q-53.5 26.5 -106.5 54 q-53 27.5 -90.5 72.5 q-37.5 45 -37.5 106 q0 74 59 121 q59 47 156 47 Z" /><glyph glyph-name="T" unicode="t" d="M610 531 l-8 0 l0 25 q0 59 -29.5 97.5 q-29.5 38.5 -91.5 38.5 l-82 0 q-19 0 -24.5 -5 q-5.5 -5 -5.5 -25 l0 -624 q0 -20 5.5 -25 q5.5 -5 24.5 -5 l35 0 l0 -8 l-210 0 l0 8 l35 0 q19 0 24.5 5 q5.5 5 5.5 25 l0 624 q0 20 -5.5 25 q-5.5 5 -24.5 5 l-82 0 q-62 0 -91.5 -38.5 q-29.5 -38.5 -29.5 -97.5 l0 -25 l-8 0 l0 169 l562 0 l0 -169 Z" /><glyph glyph-name="U" unicode="u" d="M693 692 l-38 0 q-19 0 -24.5 -5 q-5.5 -5 -5.5 -25 l0 -440 q0 -62 -21 -108.5 q-21 -46.5 -56.5 -72.5 q-35.5 -26 -76.5 -38.5 q-41 -12.5 -88 -12.5 q-144 0 -216 59 q-72 59 -72 191 l0 422 q0 20 -5.5 25 q-5.5 5 -24.5 5 l-35 0 l0 8 l210 0 l0 -8 l-35 0 q-19 0 -24.5 -5 q-5.5 -5 -5.5 -25 l0 -440 q0 -224 208 -224 q62 0 112.5 20 q50.5 20 86 72.5 q35.5 52.5 35.5 131.5 l0 440 q0 20 -5.5 25 q-5.5 5 -24.5 5 l-38 0 l0 8 l144 0 l0 -8 Z" /><glyph glyph-name="V" unicode="v" d="M714 692 l-44 0 q-20 0 -26.5 -5 q-6.5 -5 -14.5 -25 l-259 -667 l-8 0 l-280 667 q-8 20 -15.5 25 q-7.5 5 -27.5 5 l-30 0 l0 8 l242 0 l0 -8 l-65 0 q-16 0 -19 -7 q-3 -7 4 -23 l232 -558 l216 557 q12 31 -15 31 l-68 0 l0 8 l178 0 l0 -8 Z" /><glyph glyph-name="W" unicode="w" d="M1031 700 l0 -8 l-44 0 q-20 0 -26.5 -5 q-6.5 -5 -14.5 -25 l-246 -667 l-8 0 l-173 477 l-179 -477 l-8 0 l-250 667 q-7 20 -15 25 q-8 5 -28 5 l-30 0 l0 8 l241 0 l0 -8 l-64 0 q-15 0 -18 -7 q-3 -7 3 -23 l202 -558 l142 378 l-65 180 q-7 20 -15 25 q-8 5 -28 5 l-31 0 l0 8 l242 0 l0 -8 l-65 0 q-15 0 -18 -7 q-3 -7 3 -23 l196 -553 l203 552 q11 31 -15 31 l-68 0 l0 8 l177 0 Z" /><glyph glyph-name="X" unicode="x" d="M638 8 l0 -8 l-250 0 l0 8 l55 0 q34 0 15 30 l-159 285 l-177 -285 q-18 -30 15 -30 l73 0 l0 -8 l-200 0 l0 8 l52 0 q20 0 29.5 6 q9.5 6 21.5 24 l182 293 l-185 331 q-11 20 -18 25 q-7 5 -23 5 l-46 0 l0 8 l250 0 l0 -8 l-56 0 q-31 0 -15 -30 l147 -263 l155 263 q17 30 -15 30 l-73 0 l0 8 l200 0 l0 -8 l-51 0 q-21 0 -30.5 -5.5 q-9.5 -5.5 -20.5 -24.5 l-161 -271 l198 -353 q11 -19 18 -24.5 q7 -5.5 23 -5.5 l46 0 Z" /><glyph glyph-name="Y" unicode="y" d="M668 692 l-30 0 q-41 0 -56 -30 l-202 -372 l0 -252 q0 -20 5 -25 q5 -5 25 -5 l35 0 l0 -8 l-210 0 l0 8 l35 0 q20 0 25 5 q5 5 5 25 l0 232 l-213 392 q-10 18 -19.5 24 q-9.5 6 -28.5 6 l-34 0 l0 8 l257 0 l0 -8 l-66 0 q-20 0 -22 -7.5 q-2 -7.5 7 -22.5 l195 -363 l195 361 q9 18 5.5 25 q-3.5 7 -20.5 7 l-73 0 l0 8 l185 0 l0 -8 Z" /><glyph glyph-name="Z" unicode="z" d="M570 692 l-420 -684 l311 0 q62 0 91.5 39.5 q29.5 39.5 29.5 96.5 l0 25 l8 0 l0 -169 l-532 0 l0 8 l420 684 l-271 0 q-62 0 -91.5 -38.5 q-29.5 -38.5 -29.5 -97.5 l0 -25 l-8 0 l0 169 l492 0 l0 -8 Z" /><glyph glyph-name="bracketleft" unicode="[" d="M263 782 l-70 0 l0 -864 l70 0 l0 -8 l-150 0 l0 880 l150 0 l0 -8 Z" /><glyph glyph-name="backslash" unicode="\" d="M400 0 l-13 0 l-307 700 l13 0 l307 -700 Z" /><glyph glyph-name="bracketright" unicode="]" d="M198 -90 l-150 0 l0 8 l70 0 l0 864 l-70 0 l0 8 l150 0 l0 -880 Z" /><glyph glyph-name="asciicircum" unicode="^" d="M207 328 l5 0 q25 -41 70 -89.5 q45 -48.5 81 -68.5 l-2 -4 q-100 41 -152 82 q-49 -40 -152 -82 l-2 4 q36 19 81.5 68.5 q45.5 49.5 70.5 89.5 Z" /><glyph glyph-name="underscore" unicode="_" d="M400 -40 l-350 0 l0 12 l350 0 l0 -12 Z" /><glyph glyph-name="grave" unicode="`" d="M90 710 q35 0 54 -50 q29 -72 96 -104 l-3 -6 q-6 3 -22.5 9.5 q-16.5 6.5 -26 11 q-9.5 4.5 -26.5 12 q-17 7.5 -27.5 13 q-10.5 5.5 -24 13.5 q-13.5 8 -22.5 15.5 q-9 7.5 -17 15.5 q-8 8 -12 16.5 q-4 8.5 -4 17.5 q0 17 10 26.5 q10 9.5 25 9.5 Z" /><glyph glyph-name="a" unicode="a" d="M243 510 q103 0 142 -45.5 q39 -45.5 39 -131.5 l0 -253 q0 -63 33 -63 q16 0 30 18 l5 -5 q-26 -37 -70 -37 q-77 0 -77 94 l0 40 q-42 -137 -172 -137 q-60 0 -97.5 32 q-37.5 32 -37.5 82 q0 67 71 119.5 q71 52.5 236 71.5 l0 79 q0 26 -4 46 q-4 20 -14.5 40 q-10.5 20 -33 31 q-22.5 11 -56.5 11 q-98 0 -98 -77 q0 -5 1.5 -15.5 q1.5 -10.5 1.5 -16.5 q0 -16 -10.5 -26 q-10.5 -10 -27.5 -10 q-36 0 -36 36 q0 44 49 80.5 q49 36.5 126 36.5 ZM345 184 l0 103 q-130 -17 -179.5 -62.5 q-49.5 -45.5 -49.5 -116.5 q0 -43 24 -69 q24 -26 67 -26 q62 0 100 53 q38 53 38 118 Z" /><glyph glyph-name="b" unicode="b" d="M172 750 l0 -396 q14 78 60.5 117 q46.5 39 101.5 39 q90 0 142 -69 q52 -69 52 -191 q0 -122 -52 -191 q-52 -69 -142 -69 q-55 0 -101.5 39.5 q-46.5 39.5 -60.5 117.5 l0 -147 l-144 0 l0 7 l35 0 q19 0 24.5 5.5 q5.5 5.5 5.5 24.5 l0 653 q0 20 -6.5 27 q-6.5 7 -23.5 3 l-35 -8 l0 8 l144 30 ZM317 497 q-62 0 -103.5 -60.5 q-41.5 -60.5 -41.5 -154.5 l0 -64 q0 -94 41.5 -154.5 q41.5 -60.5 103.5 -60.5 q65 0 98.5 65 q33.5 65 33.5 182 q0 118 -33.5 182.5 q-33.5 64.5 -98.5 64.5 Z" /><glyph glyph-name="c" unicode="c" d="M290 510 q73 0 128.5 -37.5 q55.5 -37.5 55.5 -79.5 q0 -17 -10 -26.5 q-10 -9.5 -26 -9.5 q-17 0 -27.5 10 q-10.5 10 -10.5 26 q0 5 1 14 q1 9 1 13 q0 32 -24.5 57 q-24.5 25 -87.5 25 q-80 0 -125 -68 q-45 -68 -45 -184 q0 -120 43.5 -185.5 q43.5 -65.5 121.5 -65.5 q120 0 179 100 l5 -7 q-61 -102 -194 -102 q-113 0 -173.5 73.5 q-60.5 73.5 -60.5 186.5 q0 112 65.5 186 q65.5 74 183.5 74 Z" /><glyph glyph-name="d" unicode="d" d="M476 750 l0 -712 q0 -20 5 -25 q5 -5 25 -5 l35 0 l0 -8 l-143 0 l0 147 q-15 -78 -61 -117.5 q-46 -39.5 -102 -39.5 q-90 0 -142 69 q-52 69 -52 191 q0 122 52 191 q52 69 142 69 q56 0 102 -39 q46 -39 61 -117 l0 336 q0 20 -6.5 27 q-6.5 7 -23.5 3 l-35 -8 l0 8 l143 30 ZM252 497 q-65 0 -98.5 -64.5 q-33.5 -64.5 -33.5 -182.5 q0 -117 33.5 -182 q33.5 -65 98.5 -65 q63 0 104.5 60.5 q41.5 60.5 41.5 154.5 l0 64 q0 94 -41.5 154.5 q-41.5 60.5 -104.5 60.5 Z" /><glyph glyph-name="e" unicode="e" d="M285 -1 q120 0 179 100 l5 -7 q-61 -102 -194 -102 q-113 0 -173.5 73.5 q-60.5 73.5 -60.5 186.5 q0 113 60 186.5 q60 73.5 172 73.5 q50 0 88 -16.5 q38 -16.5 58 -40 q20 -23.5 32.5 -56 q12.5 -32.5 16 -58 q3.5 -25.5 3.5 -52.5 l-350 0 q-1 -12 -1 -37 q0 -119 43.5 -185 q43.5 -66 121.5 -66 ZM273 502 q-66 0 -104.5 -55 q-38.5 -55 -46.5 -152 l269 0 q0 29 -1 50 q-1 21 -7.5 53 q-6.5 32 -18 52.5 q-11.5 20.5 -35 36 q-23.5 15.5 -56.5 15.5 Z" /><glyph glyph-name="f" unicode="f" d="M232 750 q38 0 64 -17 q26 -17 26 -41 q0 -15 -10 -24.5 q-10 -9.5 -25 -9.5 q-16 0 -25.5 9.5 q-9.5 9.5 -9.5 23.5 q0 7 5 18 q5 11 5 16 q0 17 -30 17 q-35 0 -47.5 -25.5 q-12.5 -25.5 -12.5 -82.5 l0 -134 l101 0 l0 -12 l-101 0 l0 -450 q0 -20 5 -25 q5 -5 25 -5 l35 0 l0 -8 l-209 0 l0 8 l35 0 q19 0 24.5 5 q5.5 5 5.5 25 l0 450 l-63 0 l0 12 l63 0 l0 97 q0 72 36.5 112.5 q36.5 40.5 102.5 40.5 Z" /><glyph glyph-name="g" unicode="g" d="M328 88 q77 0 118.5 -37.5 q41.5 -37.5 41.5 -95.5 q0 -82 -78.5 -143.5 q-78.5 -61.5 -187.5 -61.5 q-96 0 -154 37.5 q-58 37.5 -58 102.5 q0 39 31.5 70 q31.5 31 79.5 48 q-39 10 -61 37.5 q-22 27.5 -22 65.5 q0 67 70 116 q-48 45 -48 118 q0 75 50 120 q50 45 131 45 q45 0 85 -16 q49 44 99 44 q57 0 57 -39 q0 -12 -8 -20 q-8 -8 -21 -8 q-17 0 -24.5 12.5 q-7.5 12.5 -13.5 25.5 q-6 13 -18 13 q-25 0 -63 -32 q89 -42 89 -145 q0 -75 -50 -120 q-50 -45 -131 -45 q-79 0 -129 42 q-56 -40 -56 -81 q0 -37 26 -50 q26 -13 83 -13 q39 0 86.5 5 q47.5 5 75.5 5 ZM242 502 q-52 0 -79.5 -42 q-27.5 -42 -27.5 -115 q0 -72 28 -114.5 q28 -42.5 79 -42.5 q51 0 78.5 42.5 q27.5 42.5 27.5 114.5 q0 73 -27.5 115 q-27.5 42 -78.5 42 ZM222 -242 q100 0 154 46.5 q54 46.5 54 103.5 q0 103 -111 103 q-37 0 -83 -4 q-46 -4 -70 -4 q-17 0 -32 3 q-76 -27 -76 -119 q0 -52 43 -90.5 q43 -38.5 121 -38.5 Z" /><glyph glyph-name="h" unicode="h" d="M172 750 l0 -392 q14 76 60.5 114 q46.5 38 101.5 38 q83 0 128.5 -45.5 q45.5 -45.5 45.5 -127.5 l0 -299 q0 -20 5 -25 q5 -5 25 -5 l35 0 l0 -8 l-209 0 l0 8 l35 0 q19 0 24.5 5 q5.5 5 5.5 25 l0 308 q0 70 -27.5 110.5 q-27.5 40.5 -83.5 40.5 q-65 0 -105.5 -60 q-40.5 -60 -40.5 -153 l0 -246 q0 -20 5 -25 q5 -5 25 -5 l35 0 l0 -8 l-209 0 l0 8 l35 0 q19 0 24.5 5 q5.5 5 5.5 25 l0 652 q0 20 -6.5 27 q-6.5 7 -23.5 3 l-35 -8 l0 8 l144 30 Z" /><glyph glyph-name="i" unicode="i" d="M98.5 657.5 q14.5 14.5 34.5 14.5 q20 0 34 -14.5 q14 -14.5 14 -34.5 q0 -19 -14.5 -33.5 q-14.5 -14.5 -33.5 -14.5 q-20 0 -34.5 14 q-14.5 14 -14.5 34 q0 20 14.5 34.5 ZM172 500 l0 -462 q0 -20 5 -25 q5 -5 25 -5 l35 0 l0 -8 l-209 0 l0 8 l35 0 q19 0 24.5 5 q5.5 5 5.5 25 l0 402 q0 20 -6.5 27 q-6.5 7 -23.5 3 l-35 -8 l0 8 l144 30 Z" /><glyph glyph-name="j" unicode="j" d="M97.5 657.5 q14.5 14.5 34.5 14.5 q20 0 34 -14.5 q14 -14.5 14 -34.5 q0 -19 -14 -33.5 q-14 -14.5 -34 -14.5 q-20 0 -34.5 14 q-14.5 14 -14.5 34 q0 20 14.5 34.5 ZM172 500 l0 -597 q0 -72 -38.5 -112.5 q-38.5 -40.5 -104.5 -40.5 q-42 0 -69.5 17 q-27.5 17 -27.5 41 q0 15 9.5 24.5 q9.5 9.5 25.5 9.5 q16 0 26 -9.5 q10 -9.5 10 -23.5 q0 -8 -5.5 -18.5 q-5.5 -10.5 -5.5 -15.5 q0 -17 37 -17 q37 0 50.5 27 q13.5 27 13.5 81 l0 574 q0 20 -6.5 27 q-6.5 7 -23.5 3 l-35 -8 l0 8 l144 30 Z" /><glyph glyph-name="k" unicode="k" d="M172 750 l0 -712 q0 -20 5 -25 q5 -5 25 -5 l35 0 l0 -8 l-209 0 l0 8 l35 0 q19 0 24.5 5 q5.5 5 5.5 25 l0 652 q0 20 -6.5 27 q-6.5 7 -23.5 3 l-35 -8 l0 8 l144 30 ZM557 492 l-45 0 q-26 0 -40 -6 q-14 -6 -36 -24 l-189 -156 l233 -268 q26 -30 62 -30 l32 0 l0 -8 l-254 0 l0 8 l52 0 q16 0 21 9 q5 9 -6 21 l-207 222 l243 202 q12 12 6 21 q-6 9 -21 9 l-70 0 l0 8 l219 0 l0 -8 Z" /><glyph glyph-name="l" unicode="l" d="M172 750 l0 -712 q0 -20 5 -25 q5 -5 25 -5 l35 0 l0 -8 l-209 0 l0 8 l35 0 q19 0 24.5 5 q5.5 5 5.5 25 l0 652 q0 20 -6.5 27 q-6.5 7 -23.5 3 l-35 -8 l0 8 l144 30 Z" /><glyph glyph-name="m" unicode="m" d="M670 510 q83 0 128.5 -45.5 q45.5 -45.5 45.5 -127.5 l0 -299 q0 -20 5 -25 q5 -5 25 -5 l35 0 l0 -8 l-209 0 l0 8 l35 0 q19 0 24.5 5 q5.5 5 5.5 25 l0 308 q0 70 -27.5 110.5 q-27.5 40.5 -83.5 40.5 q-65 0 -105.5 -60 q-40.5 -60 -40.5 -153 l0 -246 q0 -20 5 -25 q5 -5 25 -5 l35 0 l0 -8 l-209 0 l0 8 l35 0 q19 0 24.5 5 q5.5 5 5.5 25 l0 308 q0 70 -27.5 110.5 q-27.5 40.5 -83.5 40.5 q-65 0 -105.5 -60 q-40.5 -60 -40.5 -153 l0 -246 q0 -20 5 -25 q5 -5 25 -5 l35 0 l0 -8 l-209 0 l0 8 l35 0 q19 0 24.5 5 q5.5 5 5.5 25 l0 402 q0 20 -6.5 27 q-6.5 7 -23.5 3 l-35 -8 l0 8 l144 30 l0 -142 q14 76 60.5 114 q46.5 38 101.5 38 q79 0 123.5 -41 q44.5 -41 49.5 -113 q15 77 61.5 115.5 q46.5 38.5 101.5 38.5 Z" /><glyph glyph-name="n" unicode="n" d="M334 510 q83 0 128.5 -45.5 q45.5 -45.5 45.5 -127.5 l0 -299 q0 -20 5 -25 q5 -5 25 -5 l35 0 l0 -8 l-209 0 l0 8 l35 0 q19 0 24.5 5 q5.5 5 5.5 25 l0 308 q0 70 -27.5 110.5 q-27.5 40.5 -83.5 40.5 q-65 0 -105.5 -60 q-40.5 -60 -40.5 -153 l0 -246 q0 -20 5 -25 q5 -5 25 -5 l35 0 l0 -8 l-209 0 l0 8 l35 0 q19 0 24.5 5 q5.5 5 5.5 25 l0 402 q0 20 -6.5 27 q-6.5 7 -23.5 3 l-35 -8 l0 8 l144 30 l0 -142 q14 76 60.5 114 q46.5 38 101.5 38 Z" /><glyph glyph-name="o" unicode="o" d="M101.5 436.5 q60.5 73.5 173.5 73.5 q113 0 173.5 -73.5 q60.5 -73.5 60.5 -186.5 q0 -113 -60.5 -186.5 q-60.5 -73.5 -173.5 -73.5 q-113 0 -173.5 73.5 q-60.5 73.5 -60.5 186.5 q0 113 60.5 186.5 ZM390 434.5 q-40 67.5 -115 67.5 q-75 0 -115 -67.5 q-40 -67.5 -40 -184.5 q0 -117 40 -184.5 q40 -67.5 115 -67.5 q75 0 115 67.5 q40 67.5 40 184.5 q0 117 -40 184.5 Z" /><glyph glyph-name="p" unicode="p" d="M334 510 q90 0 142 -69 q52 -69 52 -191 q0 -122 -52 -191 q-52 -69 -142 -69 q-55 0 -101.5 39.5 q-46.5 39.5 -60.5 117.5 l0 -349 q0 -20 5 -25 q5 -5 25 -5 l35 0 l0 -8 l-209 0 l0 8 l35 0 q19 0 24.5 5 q5.5 5 5.5 25 l0 642 q0 20 -6.5 27 q-6.5 7 -23.5 3 l-35 -8 l0 8 l144 30 l0 -146 q14 78 60.5 117 q46.5 39 101.5 39 ZM317 497 q-62 0 -104 -60.5 q-42 -60.5 -42 -154.5 l0 -64 q0 -94 42 -154.5 q42 -60.5 104 -60.5 q65 0 98.5 65 q33.5 65 33.5 182 q0 118 -33.5 182.5 q-33.5 64.5 -98.5 64.5 Z" /><glyph glyph-name="q" unicode="q" d="M235 510 q56 0 102 -39 q46 -39 61 -117 l0 146 l143 0 l0 -8 l-35 0 q-20 0 -25 -5 q-5 -5 -5 -25 l0 -664 q0 -20 5 -25 q5 -5 25 -5 l35 0 l0 -8 l-208 0 l0 8 l35 0 q20 0 25 5 q5 5 5 25 l0 349 q-15 -78 -61 -117.5 q-46 -39.5 -102 -39.5 q-90 0 -142 69 q-52 69 -52 191 q0 122 52 191 q52 69 142 69 ZM252 497 q-65 0 -98.5 -64.5 q-33.5 -64.5 -33.5 -182.5 q0 -117 33.5 -182 q33.5 -65 98.5 -65 q63 0 104.5 60.5 q41.5 60.5 41.5 154.5 l0 64 q0 94 -41.5 154.5 q-41.5 60.5 -104.5 60.5 Z" /><glyph glyph-name="r" unicode="r" d="M314 510 q28 0 47 -15 q19 -15 19 -41 q0 -16 -10 -26.5 q-10 -10.5 -26 -10.5 q-17 0 -27 9 q-10 9 -10 24 q0 8 3.5 19 q3.5 11 3.5 15 q0 15 -17 15 q-44 0 -84.5 -64.5 q-40.5 -64.5 -40.5 -155.5 l0 -241 q0 -20 5 -25 q5 -5 25 -5 l35 0 l0 -8 l-209 0 l0 8 l35 0 q19 0 24.5 5 q5.5 5 5.5 25 l0 401 q0 21 -6.5 28 q-6.5 7 -23.5 3 l-35 -8 l0 8 l144 30 l0 -151 q17 80 56.5 120.5 q39.5 40.5 85.5 40.5 Z" /><glyph glyph-name="s" unicode="s" d="M393 354 l-8 0 l-3 10 q-10 41 -28.5 70.5 q-18.5 29.5 -41 43 q-22.5 13.5 -42.5 19 q-20 5.5 -39 5.5 q-54 0 -80.5 -26.5 q-26.5 -26.5 -26.5 -62.5 q0 -40 30 -67 q30 -27 72.5 -43.5 q42.5 -16.5 85 -34 q42.5 -17.5 72.5 -50 q30 -32.5 30 -79.5 q0 -62 -48.5 -105.5 q-48.5 -43.5 -142.5 -43.5 q-42 0 -100 22 q-58 22 -63 22 q-11 0 -11 -15 l0 -29 l-8 0 l0 157 l8 0 l3 -10 q9 -42 29.5 -71 q20.5 -29 47 -43 q26.5 -14 49 -19.5 q22.5 -5.5 45.5 -5.5 q62 0 92.5 31 q30.5 31 30.5 74 q0 39 -30 66 q-30 27 -73 44 q-43 17 -86 34.5 q-43 17.5 -73 50 q-30 32.5 -30 79.5 q0 60 45 96.5 q45 36.5 132 36.5 q40 0 90 -21.5 q50 -21.5 53 -21.5 q11 0 11 15 l0 28 l8 0 l0 -156 Z" /><glyph glyph-name="t" unicode="t" d="M163 500 l122 0 l0 -12 l-122 0 l0 -409 q0 -33 16 -49.5 q16 -16.5 36 -16.5 q21 0 38 11 q17 11 25 29 l7 -3 q-8 -23 -37 -40 q-29 -17 -64 -17 q-43 0 -71.5 23.5 q-28.5 23.5 -28.5 70.5 l0 401 l-65 0 l0 12 l65 0 l0 98 l75 32 l4 0 l0 -130 Z" /><glyph glyph-name="u" unicode="u" d="M508 500 l0 -462 q0 -20 5 -25 q5 -5 25 -5 l35 0 l0 -8 l-144 0 l0 143 q-14 -76 -60.5 -114.5 q-46.5 -38.5 -101.5 -38.5 q-83 0 -128.5 46 q-45.5 46 -45.5 128 l0 276 q0 20 -6.5 27 q-6.5 7 -23.5 3 l-35 -8 l0 8 l144 30 l0 -345 q0 -151 111 -151 q65 0 105.5 59.5 q40.5 59.5 40.5 152.5 l0 224 q0 20 -6.5 27 q-6.5 7 -23.5 3 l-35 -8 l0 8 l144 30 Z" /><glyph glyph-name="v" unicode="v" d="M563 492 l-46 0 q-20 0 -26.5 -5 q-6.5 -5 -14.5 -25 l-179 -472 l-9 0 l-197 472 q-8 20 -15 25 q-7 5 -26 5 l-41 0 l0 8 l254 0 l0 -8 l-72 0 q-15 0 -18 -7 q-3 -7 3 -23 l151 -371 l140 371 q6 16 2.5 23 q-3.5 7 -17.5 7 l-78 0 l0 8 l189 0 l0 -8 Z" /><glyph glyph-name="w" unicode="w" d="M885 500 l0 -8 l-46 0 q-20 0 -26.5 -5 q-6.5 -5 -14.5 -25 l-179 -472 l-9 0 l-164 394 l-149 -394 l-9 0 l-197 472 q-8 20 -15 25 q-7 5 -26 5 l-41 0 l0 8 l254 0 l0 -8 l-72 0 q-15 0 -18 -7 q-3 -7 3 -23 l151 -371 l115 305 l-28 66 q-9 20 -15.5 25 q-6.5 5 -25.5 5 l-42 0 l0 8 l255 0 l0 -8 l-72 0 q-16 0 -19 -7 q-3 -7 4 -23 l150 -371 l140 371 q12 30 -15 30 l-78 0 l0 8 l189 0 Z" /><glyph glyph-name="x" unicode="x" d="M524 8 l0 -8 l-246 0 l0 8 l55 0 q34 0 15 30 l-106 186 l-125 -186 q-19 -30 13 -30 l65 0 l0 -8 l-181 0 l0 8 l43 0 q20 0 29 5.5 q9 5.5 22 24.5 l130 193 l-131 231 q-11 19 -18 24.5 q-7 5.5 -23 5.5 l-45 0 l0 8 l249 0 l0 -8 l-56 0 q-32 0 -15 -30 l101 -178 l117 178 q19 30 -15 30 l-66 0 l0 8 l182 0 l0 -8 l-43 0 q-19 0 -27.5 -5.5 q-8.5 -5.5 -21.5 -24.5 l-121 -186 l136 -238 q10 -19 17.5 -24.5 q7.5 -5.5 23.5 -5.5 l42 0 Z" /><glyph glyph-name="y" unicode="y" d="M569 492 l-46 0 q-20 0 -26.5 -5 q-6.5 -5 -14.5 -25 l-179 -472 q-44 -116 -98 -178 q-54 -62 -107 -62 q-37 0 -58 16.5 q-21 16.5 -21 41.5 q0 15 9.5 24.5 q9.5 9.5 25.5 9.5 q16 0 25.5 -9.5 q9.5 -9.5 9.5 -23.5 q0 -9 -5 -20 q-5 -11 -5 -16 q0 -15 19 -15 q49 0 101 59.5 q52 59.5 96 172.5 l-197 472 q-9 20 -16 25 q-7 5 -26 5 l-41 0 l0 8 l255 0 l0 -8 l-72 0 q-16 0 -19 -7 q-3 -7 4 -23 l150 -371 l140 371 q12 30 -15 30 l-78 0 l0 8 l189 0 l0 -8 Z" /><glyph glyph-name="z" unicode="z" d="M435 492 l-315 -484 l192 0 q61 0 90.5 38 q29.5 38 29.5 96 l0 27 l8 0 l0 -169 l-412 0 l0 8 l314 484 l-170 0 q-59 0 -89.5 -38.5 q-30.5 -38.5 -30.5 -94.5 l0 -28 l-8 0 l0 169 l391 0 l0 -8 Z" /><glyph glyph-name="braceleft" unicode="{" d="M348 790 l0 -8 q-64 0 -92 -23 q-28 -23 -28 -101 q0 -20 5 -91.5 q5 -71.5 5 -91.5 q0 -58 -42 -88.5 q-42 -30.5 -98 -36.5 q55 -5 97.5 -36 q42.5 -31 42.5 -89 q0 -20 -5 -91 q-5 -71 -5 -91 q0 -78 28 -101.5 q28 -23.5 92 -23.5 l0 -8 q-97 0 -148.5 33.5 q-51.5 33.5 -51.5 111.5 q0 19 5 85.5 q5 66.5 5 89.5 q0 65 -19 90.5 q-19 25.5 -71 25.5 l0 8 q52 0 71 25.5 q19 25.5 19 90.5 q0 23 -5 89.5 q-5 66.5 -5 85.5 q0 78 51.5 111.5 q51.5 33.5 148.5 33.5 Z" /><glyph glyph-name="bar" unicode="|" d="M92 -90 l-12 0 l0 880 l12 0 l0 -880 Z" /><glyph glyph-name="braceright" unicode="}" d="M238 470 q0 -65 19 -90.5 q19 -25.5 71 -25.5 l0 -8 q-52 0 -71 -25.5 q-19 -25.5 -19 -90.5 q0 -23 5 -89.5 q5 -66.5 5 -85.5 q0 -77 -51.5 -111 q-51.5 -34 -148.5 -34 l0 8 q64 0 92 23.5 q28 23.5 28 101.5 q0 20 -5 91 q-5 71 -5 91 q0 58 42.5 89 q42.5 31 97.5 36 q-56 6 -98 36.5 q-42 30.5 -42 88.5 q0 20 5 91.5 q5 71.5 5 91.5 q0 78 -28 101 q-28 23 -92 23 l0 8 q97 0 148.5 -34 q51.5 -34 51.5 -111 q0 -19 -5 -85.5 q-5 -66.5 -5 -89.5 Z" /><glyph glyph-name="asciitilde" unicode="~" d="M382 336 l8 0 q0 -43 -18.5 -67 q-18.5 -24 -51.5 -24 q-26 0 -108 22 q-82 22 -104 22 q-50 0 -50 -44 l-8 0 q0 43 20 67 q20 24 54 24 q26 0 105 -21.5 q79 -21.5 102 -21.5 q24 0 37.5 11.5 q13.5 11.5 13.5 31.5 Z" /><glyph glyph-name="exclamdown" unicode="¡" d="M124 499 q11 11 29 11 q18 0 29 -11.5 q11 -11.5 11 -28.5 q0 -17 -11 -28.5 q-11 -11.5 -29 -11.5 q-18 0 -29 11.5 q-11 11.5 -11 28.5 q0 18 11 29 ZM149 325 l8 0 q0 -124 19.5 -315 q19.5 -191 19.5 -217 q0 -18 -12 -30.5 q-12 -12.5 -31 -12.5 q-19 0 -31.5 12.5 q-12.5 12.5 -12.5 30.5 q0 26 20 217 q20 191 20 315 Z" /><glyph glyph-name="cent" unicode="¢" d="M292 502 l0 -503 q115 3 172 100 l5 -7 q-56 -94 -177 -102 l0 -80 l-12 0 l0 80 l-5 0 q-113 0 -173.5 73.5 q-60.5 73.5 -60.5 186.5 q0 110 62.5 183 q62.5 73 176.5 77 l0 80 l12 0 l0 -80 q73 -1 127.5 -38 q54.5 -37 54.5 -79 q0 -17 -10 -26.5 q-10 -9.5 -26 -9.5 q-17 0 -27.5 10 q-10.5 10 -10.5 26 q0 5 1 14 q1 9 1 13 q0 31 -24 56 q-24 25 -86 26 ZM120 250 q0 -117 42 -183 q42 -66 118 -68 l0 503 q-75 -4 -117.5 -72 q-42.5 -68 -42.5 -180 Z" /><glyph glyph-name="sterling" unicode="£" d="M500 177 l0 -177 l-450 0 l0 8 l98 84 q51 42 51 101 q0 47 -57 159 l-92 0 l0 16 l85 0 q-47 96 -47 159 q0 84 58 133.5 q58 49.5 156 49.5 q40 0 76.5 -15 q36.5 -15 60 -30 q23.5 -15 31.5 -15 q11 0 11 15 l0 35 l8 0 l0 -182 l-8 0 l-3 10 q-39 174 -176 174 q-70 0 -106 -34.5 q-36 -34.5 -36 -96.5 q0 -21 3.5 -41.5 q3.5 -20.5 12 -44.5 q8.5 -24 14.5 -37.5 q6 -13.5 19.5 -42 q13.5 -28.5 17.5 -37.5 l178 0 l0 -16 l-171 0 q24 -57 24 -97 q0 -79 -106 -170 l-14 -12 l229 0 q72 0 98.5 14 q26.5 14 26.5 65 l0 25 l8 0 Z" /><glyph glyph-name="currency" unicode="¤" d="M472 702 q-100 0 -172.5 -73.5 q-72.5 -73.5 -93.5 -193.5 l217 0 l0 -12 l-219 0 q-5 -38 -5 -73 q0 -39 6 -75 l218 0 l0 -12 l-216 0 q21 -119 93 -192 q72 -73 172 -73 q96 0 155 41 q59 41 81 134 l2 10 l8 0 l0 -183 l-8 0 l0 35 q0 15 -11 15 q-6 0 -38 -15 q-32 -15 -83.5 -30 q-51.5 -15 -105.5 -15 q-125 0 -220.5 76 q-95.5 76 -123.5 197 l-78 0 l0 12 l75 0 q-7 34 -7 75 q0 41 7 73 l-75 0 l0 12 l77 0 q28 122 123.5 198.5 q95.5 76.5 221.5 76.5 q55 0 106 -15 q51 -15 83 -30 q32 -15 38 -15 q11 0 11 15 l0 35 l8 0 l0 -182 l-8 0 l-2 10 q-22 93 -81 133.5 q-59 40.5 -155 40.5 Z" /><glyph glyph-name="yen" unicode="¥" d="M668 700 l0 -8 l-30 0 q-41 0 -56 -30 l-202 -372 l0 -20 l130 0 l0 -12 l-130 0 l0 -220 q0 -20 5 -25 q5 -5 25 -5 l35 0 l0 -8 l-210 0 l0 8 l35 0 q20 0 25 5 q5 5 5 25 l0 220 l-130 0 l0 12 l130 0 l-213 392 q-10 18 -19.5 24 q-9.5 6 -28.5 6 l-34 0 l0 8 l257 0 l0 -8 l-66 0 q-20 0 -22 -7.5 q-2 -7.5 7 -22.5 l195 -363 l195 361 q9 18 5.5 25 q-3.5 7 -20.5 7 l-73 0 l0 8 l185 0 Z" /><glyph glyph-name="brokenbar" unicode="¦" d="M92 410 l-12 0 l0 380 l12 0 l0 -380 ZM92 -90 l-12 0 l0 380 l12 0 l0 -380 Z" /><glyph glyph-name="section" unicode="§" d="M431 209 q79 -52 79 -129 q0 -80 -63.5 -130 q-63.5 -50 -174.5 -50 q-53 0 -96.5 13 q-43.5 13 -68 26.5 q-24.5 13.5 -30.5 13.5 q-11 0 -11 -14 l0 -30 l-8 0 l0 167 l8 0 l2 -9 q20 -83 68 -121 q48 -38 136 -38 q78 0 122 33.5 q44 33.5 44 96.5 q0 42 -27 74 q-27 32 -67 49.5 q-40 17.5 -87.5 38.5 q-47.5 21 -87.5 40.5 q-40 19.5 -67 54.5 q-27 35 -27 82 q0 76 90 124 q-90 54 -90 136 q0 68 59 110.5 q59 42.5 156 42.5 q39 0 76 -13.5 q37 -13.5 60.5 -26.5 q23.5 -13 30.5 -13 q11 0 11 14 l0 30 l8 0 l0 -166 l-8 0 l-2 9 q-40 158 -176 158 q-68 0 -105 -29.5 q-37 -29.5 -37 -74.5 q0 -50 37.5 -85 q37.5 -35 90.5 -56 q53 -21 106 -43.5 q53 -22.5 90.5 -61 q37.5 -38.5 37.5 -93.5 q0 -72 -79 -130 ZM140 421 q0 -43 30.5 -75.5 q30.5 -32.5 68.5 -49 q38 -16.5 95.5 -40.5 q57.5 -24 88.5 -43 q25 29 25 81 q0 34 -17 60 q-17 26 -48.5 45 q-31.5 19 -63.5 33 q-32 14 -75.5 31.5 q-43.5 17.5 -70.5 32.5 q-33 -28 -33 -75 Z" /><glyph glyph-name="dieresis" unicode="¨" d="M68 654 q13 13 31 13 q18 0 31 -13 q13 -13 13 -31 q0 -18 -12.5 -31 q-12.5 -13 -31.5 -13 q-19 0 -31.5 13 q-12.5 13 -12.5 31 q0 18 13 31 ZM238 654 q13 13 31 13 q18 0 31 -13 q13 -13 13 -31 q0 -18 -12.5 -31 q-12.5 -13 -31.5 -13 q-19 0 -31.5 13 q-12.5 13 -12.5 31 q0 18 13 31 Z" /><glyph glyph-name="copyright" unicode="©" d="M155.5 604.5 q105.5 105.5 254.5 105.5 q149 0 254.5 -105.5 q105.5 -105.5 105.5 -254.5 q0 -149 -105.5 -254.5 q-105.5 -105.5 -254.5 -105.5 q-149 0 -254.5 105.5 q-105.5 105.5 -105.5 254.5 q0 149 105.5 254.5 ZM656 596 q-102 102 -246 102 q-144 0 -246 -102 q-102 -102 -102 -246 q0 -144 102 -246 q102 -102 246 -102 q144 0 246 102 q102 102 102 246 q0 144 -102 246 ZM421 566 q27 0 56.5 -8 q29.5 -8 49 -15.5 q19.5 -7.5 23.5 -7.5 q7 0 7 9 l0 16 l8 0 l0 -116 l-8 0 l-2 6 q-20 60 -53 84 q-33 24 -81 24 q-63 0 -101 -59 q-38 -59 -38 -149 q0 -90 38 -149 q38 -59 101 -59 q47 0 80 24.5 q33 24.5 54 84.5 l2 6 l8 0 l0 -117 l-8 0 l0 17 q0 9 -7 9 q-4 0 -23 -8 q-19 -8 -48.5 -16 q-29.5 -8 -56.5 -8 q-91 0 -154 62 q-63 62 -63 154 q0 92 62.5 154 q62.5 62 153.5 62 Z" /><glyph glyph-name="ordfeminine" unicode="ª" d="M198 707 q73 0 100.5 -32.5 q27.5 -32.5 27.5 -92.5 l0 -177 q0 -43 24 -43 q11 0 21 13 l3 -4 q-18 -25 -51 -25 q-55 0 -55 66 l0 30 q-12 -49 -44 -74 q-32 -25 -75 -25 q-43 0 -69 22.5 q-26 22.5 -26 58.5 q0 47 49.5 83.5 q49.5 36.5 164.5 48.5 l0 57 q0 40 -15.5 64.5 q-15.5 24.5 -59.5 24.5 q-66 0 -66 -51 q0 -4 1 -12.5 q1 -8.5 1 -13.5 q0 -11 -7.5 -18.5 q-7.5 -7.5 -20.5 -7.5 q-26 0 -26 26 q0 31 34.5 56.5 q34.5 25.5 88.5 25.5 ZM268 477 l0 75 q-89 -12 -122.5 -44.5 q-33.5 -32.5 -33.5 -81.5 q0 -31 16.5 -49 q16.5 -18 46.5 -18 q41 0 67 36 q26 36 26 82 ZM380 288 l-330 0 l0 12 l330 0 l0 -12 Z" /><glyph glyph-name="guillemetleft" unicode="«" d="M310 455 l0 -4 q-46 -121 -168 -202 q121 -78 168 -202 l0 -4 q-115 139 -270 203 l0 6 q155 64 270 203 ZM535 455 l0 -4 q-46 -121 -168 -202 q121 -78 168 -202 l0 -4 q-115 139 -270 203 l0 6 q155 64 270 203 Z" /><glyph glyph-name="logicalnot" unicode="¬" d="M440 144 l-12 0 l0 139 l-378 0 l0 12 l390 0 l0 -151 Z" /><glyph glyph-name="softhyphen" unicode="­" d="M340 243 l-290 0 l0 12 l290 0 l0 -12 Z" /><glyph glyph-name="registered" unicode="®" d="M155.5 604.5 q105.5 105.5 254.5 105.5 q149 0 254.5 -105.5 q105.5 -105.5 105.5 -254.5 q0 -149 -105.5 -254.5 q-105.5 -105.5 -254.5 -105.5 q-149 0 -254.5 105.5 q-105.5 105.5 -105.5 254.5 q0 149 105.5 254.5 ZM164 104 q102 -102 246 -102 q144 0 246 102 q102 102 102 246 q0 144 -102 246 q-102 102 -246 102 q-144 0 -246 -102 q-102 -102 -102 -246 q0 -144 102 -246 ZM564 240 q11 -52 24 -73.5 q13 -21.5 42 -21.5 q5 0 17 2 l0 -7 q-35 -6 -60 -6 q-44 0 -67.5 22.5 q-23.5 22.5 -35.5 73.5 q-15 63 -31 81 q-16 18 -54 18 l-55 0 l0 -163 q0 -11 3 -14.5 q3 -3.5 15 -3.5 l16 0 l0 -8 l-144 0 l0 8 l17 0 q11 0 14.5 3.5 q3.5 3.5 3.5 14.5 l0 368 q0 11 -3.5 14.5 q-3.5 3.5 -14.5 3.5 l-17 0 l0 8 l189 0 q78 0 113.5 -32 q35.5 -32 35.5 -82 q0 -45 -32.5 -75 q-32.5 -30 -87.5 -39 q96 -16 112 -92 ZM343 338 l65 0 q86 0 86 108 q0 55 -21 80.5 q-21 25.5 -65 25.5 l-65 0 l0 -214 Z" /><glyph glyph-name="macron" unicode="¯" d="M313 602 l-258 0 l0 12 l258 0 l0 -12 Z" /><glyph glyph-name="degree" unicode="°" d="M70 680 q30 30 75 30 q45 0 75 -30 q30 -30 30 -75 q0 -45 -30 -75 q-30 -30 -75 -30 q-45 0 -75 30 q-30 30 -30 75 q0 45 30 75 ZM212 672 q-26 26 -67 26 q-41 0 -67 -26 q-26 -26 -26 -67 q0 -41 26 -67 q26 -26 67 -26 q41 0 67 26 q26 26 26 67 q0 41 -26 67 Z" /><glyph glyph-name="plusminus" unicode="±" d="M420 305 l0 -12 l-179 0 l0 -179 l-12 0 l0 179 l-179 0 l0 12 l179 0 l0 179 l12 0 l0 -179 l179 0 ZM50 85 l370 0 l0 -12 l-370 0 l0 12 Z" /><glyph glyph-name="twosuperior" unicode="²" d="M138 805 q57 0 89 -24.5 q32 -24.5 32 -70.5 q0 -27 -16 -53.5 q-16 -26.5 -33 -42 q-17 -15.5 -56.5 -47.5 q-39.5 -32 -57.5 -48 l-15 -13 l105 0 q43 0 57 6 q14 6 14 30 l0 10 l4 0 l0 -102 l-237 0 l0 4 l70 69 q58 51 81.5 95.5 q23.5 44.5 23.5 92.5 q0 90 -61 90 q-13 0 -22 -2 q-9 -2 -14 -8 q-5 -6 -8 -8.5 q-3 -2.5 -4 -13 q-1 -10.5 -1 -11.5 q0 -1 0 -13 q0 -11 -7 -18 q-7 -7 -19 -7 q-25 0 -25 25 q0 22 31 41 q31 19 69 19 Z" /><glyph glyph-name="threesuperior" unicode="³" d="M132 805 q57 0 89.5 -20.5 q32.5 -20.5 32.5 -59.5 q0 -40 -36 -62 q-36 -22 -83 -30 q32 -2 59 -10.5 q27 -8.5 49.5 -29.5 q22.5 -21 22.5 -52 q0 -48 -37.5 -72 q-37.5 -24 -96.5 -24 q-42 0 -72.5 19 q-30.5 19 -30.5 42 q0 25 25 25 q12 0 19 -7 q7 -7 7 -18 q0 -13 1 -19.5 q1 -6.5 5 -17 q4 -10.5 15.5 -15.5 q11.5 -5 30.5 -5 q74 0 74 91 q0 91 -94 91 q-7 0 -15 -2 q-8 -2 -11 -2 q-8 0 -8 6 q0 6 8 6 q3 0 11 -2 q8 -2 15 -2 q90 2 90 89 q0 36 -19 56.5 q-19 20.5 -51 20.5 q-12 0 -20.5 -3 q-8.5 -3 -13 -5.5 q-4.5 -2.5 -7 -10.5 q-2.5 -8 -3 -11 q-0.5 -3 0 -14 q0.5 -11 0.5 -12 q0 -11 -7 -18 q-7 -7 -19 -7 q-25 0 -25 25 q0 22 28.5 41 q28.5 19 65.5 19 Z" /><glyph glyph-name="acute" unicode="´" d="M203 710 q15 0 25 -9.5 q10 -9.5 10 -26.5 q0 -9 -3.5 -17.5 q-3.5 -8.5 -12.5 -17 q-9 -8.5 -16.5 -15.5 q-7.5 -7 -22.5 -15 q-15 -8 -24.5 -13.5 q-9.5 -5.5 -27.5 -13.5 q-18 -8 -26 -11.5 q-8 -3.5 -26.5 -11 q-18.5 -7.5 -22.5 -9.5 l-3 6 q69 33 96 104 q19 50 54 50 Z" /><glyph glyph-name="paragraph" unicode="¶" d="M590 692 l-48 0 l0 -684 l48 0 l0 -8 l-185 0 q-158 0 -261.5 93 q-103.5 93 -103.5 257 q0 163 103.5 256.5 q103.5 93.5 261.5 93.5 l185 0 l0 -8 ZM405 692 l0 -684 l129 0 l0 684 l-129 0 Z" /><glyph glyph-name="periodcentered" unicode="·" d="M66 277.5 q11 11.5 29 11.5 q18 0 29 -11.5 q11 -11.5 11 -28.5 q0 -17 -11 -28.5 q-11 -11.5 -29 -11.5 q-18 0 -29 11.5 q-11 11.5 -11 28.5 q0 17 11 28.5 Z" /><glyph glyph-name="cedilla" unicode="¸" d="M109 0 l0 -57 q48 0 78 -20 q30 -20 30 -57 q0 -35 -27 -57.5 q-27 -22.5 -78 -22.5 q-32 0 -62 12 l2 8 q26 -12 57 -12 q35 0 50 21.5 q15 21.5 15 50.5 q0 27 -16.5 48.5 q-16.5 21.5 -56.5 21.5 l0 64 l8 0 Z" /><glyph glyph-name="onesuperior" unicode="¹" d="M132 805 l0 -336 q0 -10 2.5 -12.5 q2.5 -2.5 12.5 -2.5 l34 0 l0 -4 l-157 0 l0 4 l35 0 q10 0 12.5 2.5 q2.5 2.5 2.5 12.5 l0 290 q0 9 -3 11.5 q-3 2.5 -12 1.5 q-18 -2 -35 -2 l0 4 q39 0 67.5 9 q28.5 9 36.5 22 l4 0 Z" /><glyph glyph-name="ordmasculine" unicode="º" d="M93 656 q42 51 122 51 q80 0 122.5 -51 q42.5 -51 42.5 -131 q0 -79 -42.5 -130.5 q-42.5 -51.5 -122.5 -51.5 q-80 0 -122 51.5 q-42 51.5 -42 130.5 q0 80 42 131 ZM295 655 q-27 47 -79 47 q-52 0 -79.5 -47 q-27.5 -47 -27.5 -130 q0 -82 27.5 -129.5 q27.5 -47.5 79.5 -47.5 q51 0 78.5 47.5 q27.5 47.5 27.5 129.5 q0 83 -27 130 ZM381 288 l-331 0 l0 12 l331 0 l0 -12 Z" /><glyph glyph-name="guillemetright" unicode="»" d="M40 451 l0 4 q115 -139 270 -203 l0 -6 q-155 -64 -270 -203 l0 4 q47 124 168 202 q-122 81 -168 202 ZM265 451 l0 4 q115 -139 270 -203 l0 -6 q-155 -64 -270 -203 l0 4 q47 124 168 202 q-122 81 -168 202 Z" /><glyph glyph-name="onequarter" unicode="¼" d="M181 350 l-157 0 l0 4 l35 0 q10 0 12.5 2.5 q2.5 2.5 2.5 12.5 l0 290 q0 9 -3 11.5 q-3 2.5 -12 1.5 q-18 -2 -35 -2 l0 4 q39 0 67.5 9 q28.5 9 36.5 22 l4 0 l0 -336 q0 -10 2.5 -12.5 q2.5 -2.5 12.5 -2.5 l34 0 l0 -4 ZM473 700 l-307 -700 l-13 0 l307 700 l13 0 ZM574 94 l0 -75 q0 -10 2.5 -12.5 q2.5 -2.5 12.5 -2.5 l34 0 l0 -4 l-157 0 l0 4 l35 0 q10 0 12.5 2.5 q2.5 2.5 2.5 12.5 l0 75 l-149 0 l0 4 l149 189 l54 68 l4 0 l0 -257 l49 0 l0 -4 l-49 0 ZM516 98 l0 184 l-144 -184 l144 0 Z" /><glyph glyph-name="onehalf" unicode="½" d="M132 705 l0 -336 q0 -10 2.5 -12.5 q2.5 -2.5 12.5 -2.5 l34 0 l0 -4 l-157 0 l0 4 l35 0 q10 0 12.5 2.5 q2.5 2.5 2.5 12.5 l0 290 q0 9 -3 11.5 q-3 2.5 -12 1.5 q-18 -2 -35 -2 l0 4 q39 0 67.5 9 q28.5 9 36.5 22 l4 0 ZM166 0 l-13 0 l307 700 l13 0 l-307 -700 ZM539 355 q57 0 89 -24.5 q32 -24.5 32 -70.5 q0 -27 -16 -53.5 q-16 -26.5 -33 -42 q-17 -15.5 -56.5 -47.5 q-39.5 -32 -57.5 -48 l-15 -13 l105 0 q43 0 57 6 q14 6 14 30 l0 10 l4 0 l0 -102 l-237 0 l0 4 l70 69 q58 51 81.5 95.5 q23.5 44.5 23.5 92.5 q0 90 -61 90 q-13 0 -22 -2 q-9 -2 -14 -8 q-5 -6 -8 -8.5 q-3 -2.5 -4 -13 q-1 -10.5 -1 -11.5 q0 -1 0 -13 q0 -11 -7 -18 q-7 -7 -19 -7 q-25 0 -25 25 q0 22 31 41 q31 19 69 19 Z" /><glyph glyph-name="threequarters" unicode="¾" d="M266 441 q0 -48 -37.5 -72 q-37.5 -24 -96.5 -24 q-42 0 -72.5 19 q-30.5 19 -30.5 42 q0 25 25 25 q12 0 19 -7 q7 -7 7 -18 q0 -13 1 -19.5 q1 -6.5 5 -17 q4 -10.5 15.5 -15.5 q11.5 -5 30.5 -5 q74 0 74 91 q0 91 -94 91 q-7 0 -15 -2 q-8 -2 -11 -2 q-8 0 -8 6 q0 6 8 6 q3 0 11 -2 q8 -2 15 -2 q90 2 90 89 q0 36 -19 56.5 q-19 20.5 -51 20.5 q-12 0 -20.5 -3 q-8.5 -3 -13 -5.5 q-4.5 -2.5 -7 -10.5 q-2.5 -8 -3 -11 q-0.5 -3 0 -14 q0.5 -11 0.5 -12 q0 -11 -7 -18 q-7 -7 -19 -7 q-25 0 -25 25 q0 22 28.5 41 q28.5 19 65.5 19 q57 0 89.5 -20.5 q32.5 -20.5 32.5 -59.5 q0 -40 -36 -62 q-36 -22 -83 -30 q32 -2 59 -10.5 q27 -8.5 49.5 -29.5 q22.5 -21 22.5 -52 ZM543 700 l-307 -700 l-13 0 l307 700 l13 0 ZM644 94 l0 -75 q0 -10 2.5 -12.5 q2.5 -2.5 12.5 -2.5 l34 0 l0 -4 l-157 0 l0 4 l35 0 q10 0 12.5 2.5 q2.5 2.5 2.5 12.5 l0 75 l-149 0 l0 4 l149 189 l54 68 l4 0 l0 -257 l49 0 l0 -4 l-49 0 ZM586 98 l0 184 l-144 -184 l144 0 Z" /><glyph glyph-name="questiondown" unicode="¿" d="M284 499 q11 11 29 11 q18 0 29 -11 q11 -11 11 -29 q0 -17 -11 -28.5 q-11 -11.5 -29 -11.5 q-18 0 -29 11.5 q-11 11.5 -11 28.5 q0 18 11 29 ZM313 325 l8 0 q0 -38 -18.5 -75 q-18.5 -37 -44.5 -69 q-26 -32 -52.5 -66 q-26.5 -34 -45 -79.5 q-18.5 -45.5 -18.5 -95.5 q0 -84 34 -133 q34 -49 104 -49 q68 0 95.5 29.5 q27.5 29.5 27.5 63.5 l0 16 q0 16 10.5 26 q10.5 10 26.5 10 q17 0 27 -9.5 q10 -9.5 10 -26.5 q0 -42 -61.5 -79.5 q-61.5 -37.5 -135.5 -37.5 q-102 0 -161 50 q-59 50 -59 142 q0 47 18.5 87 q18.5 40 47 65.5 q28.5 25.5 61 53 q32.5 27.5 61 50.5 q28.5 23 47 56 q18.5 33 18.5 71 Z" /><glyph glyph-name="Agrave" unicode="à" d="M406 756 l-3 -6 q-6 3 -22.5 9.5 q-16.5 6.5 -26 11 q-9.5 4.5 -26.5 12 q-17 7.5 -27.5 13 q-10.5 5.5 -24 13.5 q-13.5 8 -22.5 15.5 q-9 7.5 -17 15.5 q-8 8 -12 16.5 q-4 8.5 -4 17.5 q0 17 10 26.5 q10 9.5 25 9.5 q35 0 54 -50 q29 -72 96 -104 ZM714 8 l0 -8 l-231 0 l0 8 l53 0 q16 0 19 7 q3 7 -4 23 l-83 195 l-302 0 l-77 -193 q-12 -32 15 -32 l64 0 l0 -8 l-167 0 l0 8 l37 0 q20 0 26 5 q6 5 15 25 l266 667 l8 0 l287 -667 q8 -19 16.5 -24.5 q8.5 -5.5 28.5 -5.5 l29 0 ZM464 241 l-153 358 l-142 -358 l295 0 Z" /><glyph glyph-name="Aacute" unicode="á" d="M495 874 q0 -9 -3.5 -17.5 q-3.5 -8.5 -12.5 -17 q-9 -8.5 -16.5 -15.5 q-7.5 -7 -22.5 -15 q-15 -8 -24.5 -13.5 q-9.5 -5.5 -27.5 -13.5 q-18 -8 -26 -11.5 q-8 -3.5 -26.5 -11 q-18.5 -7.5 -22.5 -9.5 l-3 6 q69 33 96 104 q19 50 54 50 q15 0 25 -9.5 q10 -9.5 10 -26.5 ZM714 8 l0 -8 l-231 0 l0 8 l53 0 q16 0 19 7 q3 7 -4 23 l-83 195 l-302 0 l-77 -193 q-12 -32 15 -32 l64 0 l0 -8 l-167 0 l0 8 l37 0 q20 0 26 5 q6 5 15 25 l266 667 l8 0 l287 -667 q8 -19 16.5 -24.5 q8.5 -5.5 28.5 -5.5 l29 0 ZM464 241 l-153 358 l-142 -358 l295 0 Z" /><glyph glyph-name="Acircumflex" unicode="â" d="M349 833 q-49 -40 -152 -82 l-4 8 q36 20 82 68 q46 48 70 86 l9 0 q24 -40 69 -87 q45 -47 81 -67 l-3 -8 q-100 41 -152 82 ZM714 8 l0 -8 l-231 0 l0 8 l53 0 q16 0 19 7 q3 7 -4 23 l-83 195 l-302 0 l-77 -193 q-12 -32 15 -32 l64 0 l0 -8 l-167 0 l0 8 l37 0 q20 0 26 5 q6 5 15 25 l266 667 l8 0 l287 -667 q8 -19 16.5 -24.5 q8.5 -5.5 28.5 -5.5 l29 0 ZM464 241 l-153 358 l-142 -358 l295 0 Z" /><glyph glyph-name="Atilde" unicode="ã" d="M267 821 q-50 0 -50 -43 l-8 0 q0 43 20 67 q20 24 54 24 q27 0 75 -22 q48 -22 72 -22 q24 0 37.5 12 q13.5 12 13.5 32 l8 0 q0 -44 -18.5 -67.5 q-18.5 -23.5 -51.5 -23.5 q-26 0 -78 21.5 q-52 21.5 -74 21.5 ZM714 8 l0 -8 l-231 0 l0 8 l53 0 q16 0 19 7 q3 7 -4 23 l-83 195 l-302 0 l-77 -193 q-12 -32 15 -32 l64 0 l0 -8 l-167 0 l0 8 l37 0 q20 0 26 5 q6 5 15 25 l266 667 l8 0 l287 -667 q8 -19 16.5 -24.5 q8.5 -5.5 28.5 -5.5 l29 0 ZM464 241 l-153 358 l-142 -358 l295 0 Z" /><glyph glyph-name="Adieresis" unicode="ä" d="M295.5 792 q-12.5 -13 -31.5 -13 q-19 0 -31.5 13 q-12.5 13 -12.5 31 q0 18 13 31 q13 13 31 13 q18 0 31 -13 q13 -13 13 -31 q0 -18 -12.5 -31 ZM465.5 792 q-12.5 -13 -31.5 -13 q-19 0 -31.5 13 q-12.5 13 -12.5 31 q0 18 13 31 q13 13 31 13 q18 0 31 -13 q13 -13 13 -31 q0 -18 -12.5 -31 ZM714 8 l0 -8 l-231 0 l0 8 l53 0 q16 0 19 7 q3 7 -4 23 l-83 195 l-302 0 l-77 -193 q-12 -32 15 -32 l64 0 l0 -8 l-167 0 l0 8 l37 0 q20 0 26 5 q6 5 15 25 l266 667 l8 0 l287 -667 q8 -19 16.5 -24.5 q8.5 -5.5 28.5 -5.5 l29 0 ZM464 241 l-153 358 l-142 -358 l295 0 Z" /><glyph glyph-name="Aring" unicode="å" d="M424 800 q-30 -30 -75 -30 q-45 0 -75 30 q-30 30 -30 75 q0 45 30 75 q30 30 75 30 q45 0 75 -30 q30 -30 30 -75 q0 -45 -30 -75 ZM416 942 q-26 26 -67 26 q-41 0 -67 -26 q-26 -26 -26 -67 q0 -41 26 -67 q26 -26 67 -26 q41 0 67 26 q26 26 26 67 q0 41 -26 67 ZM714 8 l0 -8 l-231 0 l0 8 l53 0 q16 0 19 7 q3 7 -4 23 l-83 195 l-302 0 l-77 -193 q-12 -32 15 -32 l64 0 l0 -8 l-167 0 l0 8 l37 0 q20 0 26 5 q6 5 15 25 l266 667 l8 0 l287 -667 q8 -19 16.5 -24.5 q8.5 -5.5 28.5 -5.5 l29 0 ZM464 241 l-153 358 l-142 -358 l295 0 Z" /><glyph glyph-name="AE" unicode="æ" d="M925 169 l0 -169 l-537 0 l0 8 l35 0 q19 0 24.5 5 q5.5 5 5.5 25 l0 195 l-247 0 l-106 -194 q-16 -31 14 -31 l64 0 l0 -8 l-177 0 l0 8 l38 0 q21 0 31 6 q10 6 20 24 l363 662 l447 0 l0 -169 l-8 0 l0 25 q0 59 -29.5 97.5 q-29.5 38.5 -91.5 38.5 l-208 0 q-19 0 -24.5 -5 q-5.5 -5 -5.5 -25 l0 -300 l148 0 q111 0 111 96 l0 27 l8 0 l0 -254 l-8 0 l0 28 q0 95 -111 95 l-148 0 l0 -316 q0 -20 5.5 -25 q5.5 -5 24.5 -5 l233 0 q62 0 91.5 39.5 q29.5 39.5 29.5 96.5 l0 25 l8 0 ZM453 241 l0 443 l-242 -443 l242 0 Z" /><glyph glyph-name="Ccedilla" unicode="ç" d="M422 702 q-118 0 -195.5 -100 q-77.5 -100 -77.5 -252 q0 -152 77.5 -252 q77.5 -100 195.5 -100 q96 0 155 41 q59 41 81 134 l2 10 l8 0 l0 -183 l-8 0 l0 35 q0 15 -11 15 q-6 0 -37 -15 q-31 -15 -81.5 -30 q-50.5 -15 -104.5 -15 l0 -53 q48 0 78 -20 q30 -20 30 -57 q0 -35 -27 -57.5 q-27 -22.5 -78 -22.5 q-32 0 -62 12 l2 8 q26 -12 57 -12 q35 0 50 21.5 q15 21.5 15 50.5 q0 27 -16.5 48.5 q-16.5 21.5 -56.5 21.5 l0 60 q-147 2 -248.5 104 q-101.5 102 -101.5 256 q0 154 103 257 q103 103 251 103 q55 0 106 -15 q51 -15 83 -30 q32 -15 38 -15 q11 0 11 15 l0 35 l8 0 l0 -182 l-8 0 l-2 10 q-22 93 -81 133.5 q-59 40.5 -155 40.5 Z" /><glyph glyph-name="Egrave" unicode="è" d="M394 756 l-3 -6 q-6 3 -22.5 9.5 q-16.5 6.5 -26 11 q-9.5 4.5 -26.5 12 q-17 7.5 -27.5 13 q-10.5 5.5 -24 13.5 q-13.5 8 -22.5 15.5 q-9 7.5 -17 15.5 q-8 8 -12 16.5 q-4 8.5 -4 17.5 q0 17 10 26.5 q10 9.5 25 9.5 q35 0 54 -50 q29 -72 96 -104 ZM585 169 l0 -169 l-537 0 l0 8 l35 0 q19 0 24.5 5 q5.5 5 5.5 25 l0 624 q0 20 -5.5 25 q-5.5 5 -24.5 5 l-35 0 l0 8 l512 0 l0 -169 l-8 0 l0 25 q0 59 -29.5 97.5 q-29.5 38.5 -91.5 38.5 l-208 0 q-19 0 -24.5 -5 q-5.5 -5 -5.5 -25 l0 -300 l148 0 q111 0 111 96 l0 27 l8 0 l0 -254 l-8 0 l0 28 q0 95 -111 95 l-148 0 l0 -316 q0 -20 5.5 -25 q5.5 -5 24.5 -5 l233 0 q62 0 91.5 39.5 q29.5 39.5 29.5 96.5 l0 25 l8 0 Z" /><glyph glyph-name="Eacute" unicode="é" d="M482 874 q0 -9 -3.5 -17.5 q-3.5 -8.5 -12.5 -17 q-9 -8.5 -16.5 -15.5 q-7.5 -7 -22.5 -15 q-15 -8 -24.5 -13.5 q-9.5 -5.5 -27.5 -13.5 q-18 -8 -26 -11.5 q-8 -3.5 -26.5 -11 q-18.5 -7.5 -22.5 -9.5 l-3 6 q69 33 96 104 q19 50 54 50 q15 0 25 -9.5 q10 -9.5 10 -26.5 ZM585 169 l0 -169 l-537 0 l0 8 l35 0 q19 0 24.5 5 q5.5 5 5.5 25 l0 624 q0 20 -5.5 25 q-5.5 5 -24.5 5 l-35 0 l0 8 l512 0 l0 -169 l-8 0 l0 25 q0 59 -29.5 97.5 q-29.5 38.5 -91.5 38.5 l-208 0 q-19 0 -24.5 -5 q-5.5 -5 -5.5 -25 l0 -300 l148 0 q111 0 111 96 l0 27 l8 0 l0 -254 l-8 0 l0 28 q0 95 -111 95 l-148 0 l0 -316 q0 -20 5.5 -25 q5.5 -5 24.5 -5 l233 0 q62 0 91.5 39.5 q29.5 39.5 29.5 96.5 l0 25 l8 0 Z" /><glyph glyph-name="Ecircumflex" unicode="ê" d="M337 833 q-49 -40 -152 -82 l-4 8 q36 20 82 68 q46 48 70 86 l9 0 q24 -40 69 -87 q45 -47 81 -67 l-3 -8 q-100 41 -152 82 ZM585 169 l0 -169 l-537 0 l0 8 l35 0 q19 0 24.5 5 q5.5 5 5.5 25 l0 624 q0 20 -5.5 25 q-5.5 5 -24.5 5 l-35 0 l0 8 l512 0 l0 -169 l-8 0 l0 25 q0 59 -29.5 97.5 q-29.5 38.5 -91.5 38.5 l-208 0 q-19 0 -24.5 -5 q-5.5 -5 -5.5 -25 l0 -300 l148 0 q111 0 111 96 l0 27 l8 0 l0 -254 l-8 0 l0 28 q0 95 -111 95 l-148 0 l0 -316 q0 -20 5.5 -25 q5.5 -5 24.5 -5 l233 0 q62 0 91.5 39.5 q29.5 39.5 29.5 96.5 l0 25 l8 0 Z" /><glyph glyph-name="Edieresis" unicode="ë" d="M283.5 792 q-12.5 -13 -31.5 -13 q-19 0 -31.5 13 q-12.5 13 -12.5 31 q0 18 13 31 q13 13 31 13 q18 0 31 -13 q13 -13 13 -31 q0 -18 -12.5 -31 ZM453.5 792 q-12.5 -13 -31.5 -13 q-19 0 -31.5 13 q-12.5 13 -12.5 31 q0 18 13 31 q13 13 31 13 q18 0 31 -13 q13 -13 13 -31 q0 -18 -12.5 -31 ZM585 169 l0 -169 l-537 0 l0 8 l35 0 q19 0 24.5 5 q5.5 5 5.5 25 l0 624 q0 20 -5.5 25 q-5.5 5 -24.5 5 l-35 0 l0 8 l512 0 l0 -169 l-8 0 l0 25 q0 59 -29.5 97.5 q-29.5 38.5 -91.5 38.5 l-208 0 q-19 0 -24.5 -5 q-5.5 -5 -5.5 -25 l0 -300 l148 0 q111 0 111 96 l0 27 l8 0 l0 -254 l-8 0 l0 28 q0 95 -111 95 l-148 0 l0 -316 q0 -20 5.5 -25 q5.5 -5 24.5 -5 l233 0 q62 0 91.5 39.5 q29.5 39.5 29.5 96.5 l0 25 l8 0 Z" /><glyph glyph-name="Igrave" unicode="ì" d="M59 910 q35 0 54 -50 q29 -72 96 -104 l-3 -6 q-6 3 -22.5 9.5 q-16.5 6.5 -26 11 q-9.5 4.5 -26.5 12 q-17 7.5 -27.5 13 q-10.5 5.5 -24 13.5 q-13.5 8 -22.5 15.5 q-9 7.5 -17 15.5 q-8 8 -12 16.5 q-4 8.5 -4 17.5 q0 17 10 26.5 q10 9.5 25 9.5 ZM258 692 l-35 0 q-19 0 -24.5 -5 q-5.5 -5 -5.5 -25 l0 -624 q0 -20 5.5 -25 q5.5 -5 24.5 -5 l35 0 l0 -8 l-210 0 l0 8 l35 0 q19 0 24.5 5 q5.5 5 5.5 25 l0 624 q0 20 -5.5 25 q-5.5 5 -24.5 5 l-35 0 l0 8 l210 0 l0 -8 Z" /><glyph glyph-name="Iacute" unicode="í" d="M263 910 q15 0 25 -9.5 q10 -9.5 10 -26.5 q0 -9 -3.5 -17.5 q-3.5 -8.5 -12.5 -17 q-9 -8.5 -16.5 -15.5 q-7.5 -7 -22.5 -15 q-15 -8 -24.5 -13.5 q-9.5 -5.5 -27.5 -13.5 q-18 -8 -26 -11.5 q-8 -3.5 -26.5 -11 q-18.5 -7.5 -22.5 -9.5 l-3 6 q69 33 96 104 q19 50 54 50 ZM258 692 l-35 0 q-19 0 -24.5 -5 q-5.5 -5 -5.5 -25 l0 -624 q0 -20 5.5 -25 q5.5 -5 24.5 -5 l35 0 l0 -8 l-210 0 l0 8 l35 0 q19 0 24.5 5 q5.5 5 5.5 25 l0 624 q0 20 -5.5 25 q-5.5 5 -24.5 5 l-35 0 l0 8 l210 0 l0 -8 Z" /><glyph glyph-name="Icircumflex" unicode="î" d="M148 913 l9 0 q24 -40 69 -87 q45 -47 81 -67 l-3 -8 q-100 41 -152 82 q-49 -40 -152 -82 l-4 8 q36 20 82 68 q46 48 70 86 ZM258 692 l-35 0 q-19 0 -24.5 -5 q-5.5 -5 -5.5 -25 l0 -624 q0 -20 5.5 -25 q5.5 -5 24.5 -5 l35 0 l0 -8 l-210 0 l0 8 l35 0 q19 0 24.5 5 q5.5 5 5.5 25 l0 624 q0 20 -5.5 25 q-5.5 5 -24.5 5 l-35 0 l0 8 l210 0 l0 -8 Z" /><glyph glyph-name="Idieresis" unicode="ï" d="M36 854 q13 13 31 13 q18 0 31 -13 q13 -13 13 -31 q0 -18 -12.5 -31 q-12.5 -13 -31.5 -13 q-19 0 -31.5 13 q-12.5 13 -12.5 31 q0 18 13 31 ZM206 854 q13 13 31 13 q18 0 31 -13 q13 -13 13 -31 q0 -18 -12.5 -31 q-12.5 -13 -31.5 -13 q-19 0 -31.5 13 q-12.5 13 -12.5 31 q0 18 13 31 ZM258 692 l-35 0 q-19 0 -24.5 -5 q-5.5 -5 -5.5 -25 l0 -624 q0 -20 5.5 -25 q5.5 -5 24.5 -5 l35 0 l0 -8 l-210 0 l0 8 l35 0 q19 0 24.5 5 q5.5 5 5.5 25 l0 624 q0 20 -5.5 25 q-5.5 5 -24.5 5 l-35 0 l0 8 l210 0 l0 -8 Z" /><glyph glyph-name="Eth" unicode="ð" d="M48 700 l309 0 q150 0 251.5 -97 q101.5 -97 101.5 -253 q0 -156 -101.5 -253 q-101.5 -97 -251.5 -97 l-309 0 l0 8 l35 0 q19 0 24.5 5 q5.5 5 5.5 25 l0 306 l-65 0 l0 12 l65 0 l0 306 q0 20 -5.5 25 q-5.5 5 -24.5 5 l-35 0 l0 8 ZM223 8 l134 0 q119 0 195.5 94 q76.5 94 76.5 248 q0 154 -76.5 248 q-76.5 94 -195.5 94 l-134 0 q-19 0 -24.5 -5 q-5.5 -5 -5.5 -25 l0 -306 l155 0 l0 -12 l-155 0 l0 -306 q0 -20 5.5 -25 q5.5 -5 24.5 -5 Z" /><glyph glyph-name="Ntilde" unicode="ñ" d="M501 869 l8 0 q0 -44 -18.5 -67.5 q-18.5 -23.5 -51.5 -23.5 q-26 0 -78 21.5 q-52 21.5 -74 21.5 q-50 0 -50 -43 l-8 0 q0 43 20 67 q20 24 54 24 q27 0 75 -22 q48 -22 72 -22 q24 0 37.5 12 q13.5 12 13.5 32 ZM700 692 l-38 0 q-20 -1 -25 -6 q-5 -5 -5 -24 l0 -663 l-8 1 l-510 669 l0 -631 q0 -20 5 -25 q5 -5 25 -5 l39 0 l0 -8 l-145 0 l0 8 l38 0 q20 0 25 5 q5 5 5 25 l0 624 q0 20 -5 25 q-5 5 -25 5 l-38 0 l0 8 l153 0 l433 -573 l0 535 q0 20 -5 25 q-5 5 -25 5 l-38 0 l0 8 l144 0 l0 -8 Z" /><glyph glyph-name="Ograve" unicode="ò" d="M329 910 q35 0 54 -50 q29 -72 96 -104 l-3 -6 q-6 3 -22.5 9.5 q-16.5 6.5 -26 11 q-9.5 4.5 -26.5 12 q-17 7.5 -27.5 13 q-10.5 5.5 -24 13.5 q-13.5 8 -22.5 15.5 q-9 7.5 -17 15.5 q-8 8 -12 16.5 q-4 8.5 -4 17.5 q0 17 10 26.5 q10 9.5 25 9.5 ZM171 607 q103 103 251 103 q148 0 250.5 -103 q102.5 -103 102.5 -257 q0 -154 -102.5 -257 q-102.5 -103 -250.5 -103 q-148 0 -251 103 q-103 103 -103 257 q0 154 103 257 ZM421 702 q-117 0 -194.5 -100 q-77.5 -100 -77.5 -252 q0 -152 77.5 -252 q77.5 -100 194.5 -100 q118 0 195.5 100 q77.5 100 77.5 252 q0 152 -77.5 252 q-77.5 100 -195.5 100 Z" /><glyph glyph-name="Oacute" unicode="ó" d="M532 910 q15 0 25 -9.5 q10 -9.5 10 -26.5 q0 -9 -3.5 -17.5 q-3.5 -8.5 -12.5 -17 q-9 -8.5 -16.5 -15.5 q-7.5 -7 -22.5 -15 q-15 -8 -24.5 -13.5 q-9.5 -5.5 -27.5 -13.5 q-18 -8 -26 -11.5 q-8 -3.5 -26.5 -11 q-18.5 -7.5 -22.5 -9.5 l-3 6 q69 33 96 104 q19 50 54 50 ZM171 607 q103 103 251 103 q148 0 250.5 -103 q102.5 -103 102.5 -257 q0 -154 -102.5 -257 q-102.5 -103 -250.5 -103 q-148 0 -251 103 q-103 103 -103 257 q0 154 103 257 ZM421 702 q-117 0 -194.5 -100 q-77.5 -100 -77.5 -252 q0 -152 77.5 -252 q77.5 -100 194.5 -100 q118 0 195.5 100 q77.5 100 77.5 252 q0 152 -77.5 252 q-77.5 100 -195.5 100 Z" /><glyph glyph-name="Ocircumflex" unicode="ô" d="M418 913 l9 0 q24 -40 69 -87 q45 -47 81 -67 l-3 -8 q-100 41 -152 82 q-49 -40 -152 -82 l-4 8 q36 20 82 68 q46 48 70 86 ZM171 607 q103 103 251 103 q148 0 250.5 -103 q102.5 -103 102.5 -257 q0 -154 -102.5 -257 q-102.5 -103 -250.5 -103 q-148 0 -251 103 q-103 103 -103 257 q0 154 103 257 ZM421 702 q-117 0 -194.5 -100 q-77.5 -100 -77.5 -252 q0 -152 77.5 -252 q77.5 -100 194.5 -100 q118 0 195.5 100 q77.5 100 77.5 252 q0 152 -77.5 252 q-77.5 100 -195.5 100 Z" /><glyph glyph-name="Otilde" unicode="õ" d="M554 869 l8 0 q0 -44 -18.5 -67.5 q-18.5 -23.5 -51.5 -23.5 q-26 0 -78 21.5 q-52 21.5 -74 21.5 q-50 0 -50 -43 l-8 0 q0 43 20 67 q20 24 54 24 q26 0 75 -22 q49 -22 72 -22 q24 0 37.5 12 q13.5 12 13.5 32 ZM171 607 q103 103 251 103 q148 0 250.5 -103 q102.5 -103 102.5 -257 q0 -154 -102.5 -257 q-102.5 -103 -250.5 -103 q-148 0 -251 103 q-103 103 -103 257 q0 154 103 257 ZM421 702 q-117 0 -194.5 -100 q-77.5 -100 -77.5 -252 q0 -152 77.5 -252 q77.5 -100 194.5 -100 q118 0 195.5 100 q77.5 100 77.5 252 q0 152 -77.5 252 q-77.5 100 -195.5 100 Z" /><glyph glyph-name="Odieresis" unicode="ö" d="M306 854 q13 13 31 13 q18 0 31 -13 q13 -13 13 -31 q0 -18 -12.5 -31 q-12.5 -13 -31.5 -13 q-19 0 -31.5 13 q-12.5 13 -12.5 31 q0 18 13 31 ZM476 854 q13 13 31 13 q18 0 31 -13 q13 -13 13 -31 q0 -18 -12.5 -31 q-12.5 -13 -31.5 -13 q-19 0 -31.5 13 q-12.5 13 -12.5 31 q0 18 13 31 ZM171 607 q103 103 251 103 q148 0 250.5 -103 q102.5 -103 102.5 -257 q0 -154 -102.5 -257 q-102.5 -103 -250.5 -103 q-148 0 -251 103 q-103 103 -103 257 q0 154 103 257 ZM421 702 q-117 0 -194.5 -100 q-77.5 -100 -77.5 -252 q0 -152 77.5 -252 q77.5 -100 194.5 -100 q118 0 195.5 100 q77.5 100 77.5 252 q0 152 -77.5 252 q-77.5 100 -195.5 100 Z" /><glyph glyph-name="multiply" unicode="×" d="M390 451 l-161 -162 l161 -162 l-9 -9 l-161 162 l-161 -162 l-9 9 l161 162 l-161 162 l9 9 l161 -162 l161 162 l9 -9 Z" /><glyph glyph-name="Oslash" unicode="ø" d="M643 790 l-58 -119 q87 -44 138.5 -129 q51.5 -85 51.5 -192 q0 -154 -102.5 -257 q-102.5 -103 -250.5 -103 q-82 0 -153 34 l-56 -114 l-13 0 l58 119 q-87 44 -138.5 129 q-51.5 85 -51.5 192 q0 154 103 257 q103 103 251 103 q81 0 152 -34 l56 114 l13 0 ZM149 350 q0 -95 32.5 -172.5 q32.5 -77.5 88.5 -124.5 l294 601 q-63 48 -143 48 q-117 0 -194.5 -100 q-77.5 -100 -77.5 -252 ZM421 -2 q118 0 195.5 100 q77.5 100 77.5 252 q0 95 -32.5 172.5 q-32.5 77.5 -88.5 124.5 l-294 -601 q63 -48 142 -48 Z" /><glyph glyph-name="Ugrave" unicode="ù" d="M290 910 q35 0 54 -50 q29 -72 96 -104 l-3 -6 q-6 3 -22.5 9.5 q-16.5 6.5 -26 11 q-9.5 4.5 -26.5 12 q-17 7.5 -27.5 13 q-10.5 5.5 -24 13.5 q-13.5 8 -22.5 15.5 q-9 7.5 -17 15.5 q-8 8 -12 16.5 q-4 8.5 -4 17.5 q0 17 10 26.5 q10 9.5 25 9.5 ZM693 692 l-38 0 q-19 0 -24.5 -5 q-5.5 -5 -5.5 -25 l0 -440 q0 -62 -21 -108.5 q-21 -46.5 -56.5 -72.5 q-35.5 -26 -76.5 -38.5 q-41 -12.5 -88 -12.5 q-144 0 -216 59 q-72 59 -72 191 l0 422 q0 20 -5.5 25 q-5.5 5 -24.5 5 l-35 0 l0 8 l210 0 l0 -8 l-35 0 q-19 0 -24.5 -5 q-5.5 -5 -5.5 -25 l0 -440 q0 -224 208 -224 q62 0 112.5 20 q50.5 20 86 72.5 q35.5 52.5 35.5 131.5 l0 440 q0 20 -5.5 25 q-5.5 5 -24.5 5 l-38 0 l0 8 l144 0 l0 -8 Z" /><glyph glyph-name="Uacute" unicode="ú" d="M493 910 q15 0 25 -9.5 q10 -9.5 10 -26.5 q0 -9 -3.5 -17.5 q-3.5 -8.5 -12.5 -17 q-9 -8.5 -16.5 -15.5 q-7.5 -7 -22.5 -15 q-15 -8 -24.5 -13.5 q-9.5 -5.5 -27.5 -13.5 q-18 -8 -26 -11.5 q-8 -3.5 -26.5 -11 q-18.5 -7.5 -22.5 -9.5 l-3 6 q69 33 96 104 q19 50 54 50 ZM693 692 l-38 0 q-19 0 -24.5 -5 q-5.5 -5 -5.5 -25 l0 -440 q0 -62 -21 -108.5 q-21 -46.5 -56.5 -72.5 q-35.5 -26 -76.5 -38.5 q-41 -12.5 -88 -12.5 q-144 0 -216 59 q-72 59 -72 191 l0 422 q0 20 -5.5 25 q-5.5 5 -24.5 5 l-35 0 l0 8 l210 0 l0 -8 l-35 0 q-19 0 -24.5 -5 q-5.5 -5 -5.5 -25 l0 -440 q0 -224 208 -224 q62 0 112.5 20 q50.5 20 86 72.5 q35.5 52.5 35.5 131.5 l0 440 q0 20 -5.5 25 q-5.5 5 -24.5 5 l-38 0 l0 8 l144 0 l0 -8 Z" /><glyph glyph-name="Ucircumflex" unicode="û" d="M379 913 l9 0 q24 -40 69 -87 q45 -47 81 -67 l-3 -8 q-100 41 -152 82 q-49 -40 -152 -82 l-4 8 q36 20 82 68 q46 48 70 86 ZM693 692 l-38 0 q-19 0 -24.5 -5 q-5.5 -5 -5.5 -25 l0 -440 q0 -62 -21 -108.5 q-21 -46.5 -56.5 -72.5 q-35.5 -26 -76.5 -38.5 q-41 -12.5 -88 -12.5 q-144 0 -216 59 q-72 59 -72 191 l0 422 q0 20 -5.5 25 q-5.5 5 -24.5 5 l-35 0 l0 8 l210 0 l0 -8 l-35 0 q-19 0 -24.5 -5 q-5.5 -5 -5.5 -25 l0 -440 q0 -224 208 -224 q62 0 112.5 20 q50.5 20 86 72.5 q35.5 52.5 35.5 131.5 l0 440 q0 20 -5.5 25 q-5.5 5 -24.5 5 l-38 0 l0 8 l144 0 l0 -8 Z" /><glyph glyph-name="Udieresis" unicode="ü" d="M267 854 q13 13 31 13 q18 0 31 -13 q13 -13 13 -31 q0 -18 -12.5 -31 q-12.5 -13 -31.5 -13 q-19 0 -31.5 13 q-12.5 13 -12.5 31 q0 18 13 31 ZM437 854 q13 13 31 13 q18 0 31 -13 q13 -13 13 -31 q0 -18 -12.5 -31 q-12.5 -13 -31.5 -13 q-19 0 -31.5 13 q-12.5 13 -12.5 31 q0 18 13 31 ZM693 692 l-38 0 q-19 0 -24.5 -5 q-5.5 -5 -5.5 -25 l0 -440 q0 -62 -21 -108.5 q-21 -46.5 -56.5 -72.5 q-35.5 -26 -76.5 -38.5 q-41 -12.5 -88 -12.5 q-144 0 -216 59 q-72 59 -72 191 l0 422 q0 20 -5.5 25 q-5.5 5 -24.5 5 l-35 0 l0 8 l210 0 l0 -8 l-35 0 q-19 0 -24.5 -5 q-5.5 -5 -5.5 -25 l0 -440 q0 -224 208 -224 q62 0 112.5 20 q50.5 20 86 72.5 q35.5 52.5 35.5 131.5 l0 440 q0 20 -5.5 25 q-5.5 5 -24.5 5 l-38 0 l0 8 l144 0 l0 -8 Z" /><glyph glyph-name="Yacute" unicode="ý" d="M485 910 q15 0 25 -9.5 q10 -9.5 10 -26.5 q0 -9 -3.5 -17.5 q-3.5 -8.5 -12.5 -17 q-9 -8.5 -16.5 -15.5 q-7.5 -7 -22.5 -15 q-15 -8 -24.5 -13.5 q-9.5 -5.5 -27.5 -13.5 q-18 -8 -26 -11.5 q-8 -3.5 -26.5 -11 q-18.5 -7.5 -22.5 -9.5 l-3 6 q69 33 96 104 q19 50 54 50 ZM668 692 l-30 0 q-41 0 -56 -30 l-202 -372 l0 -252 q0 -20 5 -25 q5 -5 25 -5 l35 0 l0 -8 l-210 0 l0 8 l35 0 q20 0 25 5 q5 5 5 25 l0 232 l-213 392 q-10 18 -19.5 24 q-9.5 6 -28.5 6 l-34 0 l0 8 l257 0 l0 -8 l-66 0 q-20 0 -22 -7.5 q-2 -7.5 7 -22.5 l195 -363 l195 361 q9 18 5.5 25 q-3.5 7 -20.5 7 l-73 0 l0 8 l185 0 l0 -8 Z" /><glyph glyph-name="Thorn" unicode="þ" d="M258 692 l-35 0 q-19 0 -24.5 -5 q-5.5 -5 -5.5 -25 l0 -120 l146 0 q120 0 177 -53.5 q57 -53.5 57 -138.5 q0 -85 -57 -138.5 q-57 -53.5 -177 -53.5 l-146 0 l0 -120 q0 -20 5.5 -25 q5.5 -5 24.5 -5 l35 0 l0 -8 l-210 0 l0 8 l35 0 q19 0 24.5 5 q5.5 5 5.5 25 l0 624 q0 20 -5.5 25 q-5.5 5 -24.5 5 l-35 0 l0 8 l210 0 l0 -8 ZM193 534 l0 -368 l136 0 q163 0 163 184 q0 95 -40.5 139.5 q-40.5 44.5 -122.5 44.5 l-136 0 Z" /><glyph glyph-name="germandbls" unicode="ß" d="M287 750 q76 0 125.5 -38 q49.5 -38 49.5 -104 q0 -33 -14 -61.5 q-14 -28.5 -34.5 -47.5 q-20.5 -19 -41 -35.5 q-20.5 -16.5 -34.5 -33 q-14 -16.5 -14 -32.5 q0 -24 22.5 -47 q22.5 -23 55 -42.5 q32.5 -19.5 65 -41.5 q32.5 -22 55 -55 q22.5 -33 22.5 -73 q0 -62 -44 -105.5 q-44 -43.5 -127 -43.5 q-66 0 -105 35.5 q-39 35.5 -39 76.5 q0 27 26 27 q27 0 27 -27 q0 -52 18.5 -78 q18.5 -26 72.5 -26 q54 0 79 29.5 q25 29.5 25 72.5 q0 36 -20 63 q-20 27 -48.5 44 q-28.5 17 -56.5 33.5 q-28 16.5 -48 39.5 q-20 23 -20 52 q0 28 17 60.5 q17 32.5 38 59 q21 26.5 38 68 q17 41.5 17 85.5 q0 137 -107 137 q-115 0 -115 -188 l0 -554 l-144 0 l0 8 l35 0 q19 0 24.5 5 q5.5 5 5.5 25 l0 450 l-63 0 l0 12 l63 0 l0 34 q0 109 55 162.5 q55 53.5 139 53.5 Z" /><glyph glyph-name="agrave" unicode="à" d="M150 712 q35 0 54 -50 q29 -72 96 -104 l-3 -6 q-6 3 -22.5 9.5 q-16.5 6.5 -26 11 q-9.5 4.5 -26.5 12 q-17 7.5 -27.5 13 q-10.5 5.5 -24 13.5 q-13.5 8 -22.5 15.5 q-9 7.5 -17 15.5 q-8 8 -12 16.5 q-4 8.5 -4 17.5 q0 17 10 26.5 q10 9.5 25 9.5 ZM243 510 q103 0 142 -45.5 q39 -45.5 39 -131.5 l0 -253 q0 -63 33 -63 q16 0 30 18 l5 -5 q-26 -37 -70 -37 q-77 0 -77 94 l0 40 q-42 -137 -172 -137 q-60 0 -97.5 32 q-37.5 32 -37.5 82 q0 67 71 119.5 q71 52.5 236 71.5 l0 79 q0 26 -4 46 q-4 20 -14.5 40 q-10.5 20 -33 31 q-22.5 11 -56.5 11 q-98 0 -98 -77 q0 -5 1.5 -15.5 q1.5 -10.5 1.5 -16.5 q0 -16 -10.5 -26 q-10.5 -10 -27.5 -10 q-36 0 -36 36 q0 44 49 80.5 q49 36.5 126 36.5 ZM345 184 l0 103 q-130 -17 -179.5 -62.5 q-49.5 -45.5 -49.5 -116.5 q0 -43 24 -69 q24 -26 67 -26 q62 0 100 53 q38 53 38 118 Z" /><glyph glyph-name="aacute" unicode="á" d="M354 712 q15 0 25 -9.5 q10 -9.5 10 -26.5 q0 -9 -3.5 -17.5 q-3.5 -8.5 -12.5 -17 q-9 -8.5 -16.5 -15.5 q-7.5 -7 -22.5 -15 q-15 -8 -24.5 -13.5 q-9.5 -5.5 -27.5 -13.5 q-18 -8 -26 -11.5 q-8 -3.5 -26.5 -11 q-18.5 -7.5 -22.5 -9.5 l-3 6 q69 33 96 104 q19 50 54 50 ZM243 510 q103 0 142 -45.5 q39 -45.5 39 -131.5 l0 -253 q0 -63 33 -63 q16 0 30 18 l5 -5 q-26 -37 -70 -37 q-77 0 -77 94 l0 40 q-42 -137 -172 -137 q-60 0 -97.5 32 q-37.5 32 -37.5 82 q0 67 71 119.5 q71 52.5 236 71.5 l0 79 q0 26 -4 46 q-4 20 -14.5 40 q-10.5 20 -33 31 q-22.5 11 -56.5 11 q-98 0 -98 -77 q0 -5 1.5 -15.5 q1.5 -10.5 1.5 -16.5 q0 -16 -10.5 -26 q-10.5 -10 -27.5 -10 q-36 0 -36 36 q0 44 49 80.5 q49 36.5 126 36.5 ZM345 184 l0 103 q-130 -17 -179.5 -62.5 q-49.5 -45.5 -49.5 -116.5 q0 -43 24 -69 q24 -26 67 -26 q62 0 100 53 q38 53 38 118 Z" /><glyph glyph-name="acircumflex" unicode="â" d="M239 715 l9 0 q24 -40 69 -87 q45 -47 81 -67 l-3 -8 q-100 41 -152 82 q-49 -40 -152 -82 l-4 8 q36 20 82 68 q46 48 70 86 ZM243 510 q103 0 142 -45.5 q39 -45.5 39 -131.5 l0 -253 q0 -63 33 -63 q16 0 30 18 l5 -5 q-26 -37 -70 -37 q-77 0 -77 94 l0 40 q-42 -137 -172 -137 q-60 0 -97.5 32 q-37.5 32 -37.5 82 q0 67 71 119.5 q71 52.5 236 71.5 l0 79 q0 26 -4 46 q-4 20 -14.5 40 q-10.5 20 -33 31 q-22.5 11 -56.5 11 q-98 0 -98 -77 q0 -5 1.5 -15.5 q1.5 -10.5 1.5 -16.5 q0 -16 -10.5 -26 q-10.5 -10 -27.5 -10 q-36 0 -36 36 q0 44 49 80.5 q49 36.5 126 36.5 ZM345 184 l0 103 q-130 -17 -179.5 -62.5 q-49.5 -45.5 -49.5 -116.5 q0 -43 24 -69 q24 -26 67 -26 q62 0 100 53 q38 53 38 118 Z" /><glyph glyph-name="atilde" unicode="ã" d="M375 671 l8 0 q0 -44 -18.5 -67.5 q-18.5 -23.5 -51.5 -23.5 q-26 0 -78 21.5 q-52 21.5 -74 21.5 q-50 0 -50 -43 l-8 0 q0 43 20 67 q20 24 54 24 q27 0 75 -22 q48 -22 72 -22 q24 0 37.5 12 q13.5 12 13.5 32 ZM243 510 q103 0 142 -45.5 q39 -45.5 39 -131.5 l0 -253 q0 -63 33 -63 q16 0 30 18 l5 -5 q-26 -37 -70 -37 q-77 0 -77 94 l0 40 q-42 -137 -172 -137 q-60 0 -97.5 32 q-37.5 32 -37.5 82 q0 67 71 119.5 q71 52.5 236 71.5 l0 79 q0 26 -4 46 q-4 20 -14.5 40 q-10.5 20 -33 31 q-22.5 11 -56.5 11 q-98 0 -98 -77 q0 -5 1.5 -15.5 q1.5 -10.5 1.5 -16.5 q0 -16 -10.5 -26 q-10.5 -10 -27.5 -10 q-36 0 -36 36 q0 44 49 80.5 q49 36.5 126 36.5 ZM345 184 l0 103 q-130 -17 -179.5 -62.5 q-49.5 -45.5 -49.5 -116.5 q0 -43 24 -69 q24 -26 67 -26 q62 0 100 53 q38 53 38 118 Z" /><glyph glyph-name="adieresis" unicode="ä" d="M127 656 q13 13 31 13 q18 0 31 -13 q13 -13 13 -31 q0 -18 -12.5 -31 q-12.5 -13 -31.5 -13 q-19 0 -31.5 13 q-12.5 13 -12.5 31 q0 18 13 31 ZM297 656 q13 13 31 13 q18 0 31 -13 q13 -13 13 -31 q0 -18 -12.5 -31 q-12.5 -13 -31.5 -13 q-19 0 -31.5 13 q-12.5 13 -12.5 31 q0 18 13 31 ZM243 510 q103 0 142 -45.5 q39 -45.5 39 -131.5 l0 -253 q0 -63 33 -63 q16 0 30 18 l5 -5 q-26 -37 -70 -37 q-77 0 -77 94 l0 40 q-42 -137 -172 -137 q-60 0 -97.5 32 q-37.5 32 -37.5 82 q0 67 71 119.5 q71 52.5 236 71.5 l0 79 q0 26 -4 46 q-4 20 -14.5 40 q-10.5 20 -33 31 q-22.5 11 -56.5 11 q-98 0 -98 -77 q0 -5 1.5 -15.5 q1.5 -10.5 1.5 -16.5 q0 -16 -10.5 -26 q-10.5 -10 -27.5 -10 q-36 0 -36 36 q0 44 49 80.5 q49 36.5 126 36.5 ZM345 184 l0 103 q-130 -17 -179.5 -62.5 q-49.5 -45.5 -49.5 -116.5 q0 -43 24 -69 q24 -26 67 -26 q62 0 100 53 q38 53 38 118 Z" /><glyph glyph-name="aring" unicode="å" d="M168 752 q30 30 75 30 q45 0 75 -30 q30 -30 30 -75 q0 -45 -30 -75 q-30 -30 -75 -30 q-45 0 -75 30 q-30 30 -30 75 q0 45 30 75 ZM310 744 q-26 26 -67 26 q-41 0 -67 -26 q-26 -26 -26 -67 q0 -41 26 -67 q26 -26 67 -26 q41 0 67 26 q26 26 26 67 q0 41 -26 67 ZM243 510 q103 0 142 -45.5 q39 -45.5 39 -131.5 l0 -253 q0 -63 33 -63 q16 0 30 18 l5 -5 q-26 -37 -70 -37 q-77 0 -77 94 l0 40 q-42 -137 -172 -137 q-60 0 -97.5 32 q-37.5 32 -37.5 82 q0 67 71 119.5 q71 52.5 236 71.5 l0 79 q0 26 -4 46 q-4 20 -14.5 40 q-10.5 20 -33 31 q-22.5 11 -56.5 11 q-98 0 -98 -77 q0 -5 1.5 -15.5 q1.5 -10.5 1.5 -16.5 q0 -16 -10.5 -26 q-10.5 -10 -27.5 -10 q-36 0 -36 36 q0 44 49 80.5 q49 36.5 126 36.5 ZM345 184 l0 103 q-130 -17 -179.5 -62.5 q-49.5 -45.5 -49.5 -116.5 q0 -43 24 -69 q24 -26 67 -26 q62 0 100 53 q38 53 38 118 Z" /><glyph glyph-name="ae" unicode="æ" d="M577 510 q50 0 87.5 -16 q37.5 -16 58 -39.5 q20.5 -23.5 33 -55.5 q12.5 -32 16 -58 q3.5 -26 3.5 -54 l-350 0 q-1 -12 -1 -37 q0 -119 43.5 -184.5 q43.5 -65.5 121.5 -65.5 q120 0 179 98 l5 -7 q-61 -101 -194 -101 q-79 0 -133 37.5 q-54 37.5 -79 102.5 q-26 -65 -78 -102.5 q-52 -37.5 -116 -37.5 q-60 0 -97.5 32 q-37.5 32 -37.5 82 q0 67 71 119.5 q71 52.5 236 71.5 l0 79 q0 26 -4 46 q-4 20 -14.5 40 q-10.5 20 -33 31 q-22.5 11 -56.5 11 q-98 0 -98 -77 q0 -5 1.5 -15.5 q1.5 -10.5 1.5 -16.5 q0 -16 -10.5 -26 q-10.5 -10 -27.5 -10 q-36 0 -36 36 q0 44 49 80.5 q49 36.5 126 36.5 q126 0 160 -82 q59 82 174 82 ZM576 502 q-66 0 -104.5 -55 q-38.5 -55 -46.5 -152 l270 0 q0 29 -1 50 q-1 21 -8 53 q-7 32 -18.5 52.5 q-11.5 20.5 -35 36 q-23.5 15.5 -56.5 15.5 ZM345 250 l0 37 q-130 -17 -179.5 -62.5 q-49.5 -45.5 -49.5 -116.5 q0 -43 23.5 -69 q23.5 -26 65.5 -26 q53 0 97.5 40 q44.5 40 59.5 90 q-17 49 -17 107 Z" /><glyph glyph-name="ccedilla" unicode="ç" d="M285 -1 q120 0 179 100 l5 -7 q-60 -100 -189 -102 l0 -52 q48 0 78 -20 q30 -20 30 -57 q0 -35 -27 -57.5 q-27 -22.5 -78 -22.5 q-32 0 -62 12 l2 8 q26 -12 57 -12 q35 0 50 21.5 q15 21.5 15 50.5 q0 27 -16.5 48.5 q-16.5 21.5 -56.5 21.5 l0 59 q-112 1 -171.5 74.5 q-59.5 73.5 -59.5 185.5 q0 112 65.5 186 q65.5 74 183.5 74 q73 0 128.5 -37.5 q55.5 -37.5 55.5 -79.5 q0 -17 -10 -26.5 q-10 -9.5 -26 -9.5 q-17 0 -27.5 10 q-10.5 10 -10.5 26 q0 5 1 14 q1 9 1 13 q0 32 -24.5 57 q-24.5 25 -87.5 25 q-80 0 -125 -68 q-45 -68 -45 -184 q0 -120 43.5 -185.5 q43.5 -65.5 121.5 -65.5 Z" /><glyph glyph-name="egrave" unicode="è" d="M324 556 l-3 -6 q-6 3 -22.5 9.5 q-16.5 6.5 -26 11 q-9.5 4.5 -26.5 12 q-17 7.5 -27.5 13 q-10.5 5.5 -24 13.5 q-13.5 8 -22.5 15.5 q-9 7.5 -17 15.5 q-8 8 -12 16.5 q-4 8.5 -4 17.5 q0 17 10 26.5 q10 9.5 25 9.5 q35 0 54 -50 q29 -72 96 -104 ZM285 -1 q120 0 179 100 l5 -7 q-61 -102 -194 -102 q-113 0 -173.5 73.5 q-60.5 73.5 -60.5 186.5 q0 113 60 186.5 q60 73.5 172 73.5 q50 0 88 -16.5 q38 -16.5 58 -40 q20 -23.5 32.5 -56 q12.5 -32.5 16 -58 q3.5 -25.5 3.5 -52.5 l-350 0 q-1 -12 -1 -37 q0 -119 43.5 -185 q43.5 -66 121.5 -66 ZM273 502 q-66 0 -104.5 -55 q-38.5 -55 -46.5 -152 l269 0 q0 29 -1 50 q-1 21 -7.5 53 q-6.5 32 -18 52.5 q-11.5 20.5 -35 36 q-23.5 15.5 -56.5 15.5 Z" /><glyph glyph-name="eacute" unicode="é" d="M412 674 q0 -9 -3.5 -17.5 q-3.5 -8.5 -12.5 -17 q-9 -8.5 -16.5 -15.5 q-7.5 -7 -22.5 -15 q-15 -8 -24.5 -13.5 q-9.5 -5.5 -27.5 -13.5 q-18 -8 -26 -11.5 q-8 -3.5 -26.5 -11 q-18.5 -7.5 -22.5 -9.5 l-3 6 q69 33 96 104 q19 50 54 50 q15 0 25 -9.5 q10 -9.5 10 -26.5 ZM285 -1 q120 0 179 100 l5 -7 q-61 -102 -194 -102 q-113 0 -173.5 73.5 q-60.5 73.5 -60.5 186.5 q0 113 60 186.5 q60 73.5 172 73.5 q50 0 88 -16.5 q38 -16.5 58 -40 q20 -23.5 32.5 -56 q12.5 -32.5 16 -58 q3.5 -25.5 3.5 -52.5 l-350 0 q-1 -12 -1 -37 q0 -119 43.5 -185 q43.5 -66 121.5 -66 ZM273 502 q-66 0 -104.5 -55 q-38.5 -55 -46.5 -152 l269 0 q0 29 -1 50 q-1 21 -7.5 53 q-6.5 32 -18 52.5 q-11.5 20.5 -35 36 q-23.5 15.5 -56.5 15.5 Z" /><glyph glyph-name="ecircumflex" unicode="ê" d="M267 633 q-49 -40 -152 -82 l-4 8 q36 20 82 68 q46 48 70 86 l9 0 q24 -40 69 -87 q45 -47 81 -67 l-3 -8 q-100 41 -152 82 ZM285 -1 q120 0 179 100 l5 -7 q-61 -102 -194 -102 q-113 0 -173.5 73.5 q-60.5 73.5 -60.5 186.5 q0 113 60 186.5 q60 73.5 172 73.5 q50 0 88 -16.5 q38 -16.5 58 -40 q20 -23.5 32.5 -56 q12.5 -32.5 16 -58 q3.5 -25.5 3.5 -52.5 l-350 0 q-1 -12 -1 -37 q0 -119 43.5 -185 q43.5 -66 121.5 -66 ZM273 502 q-66 0 -104.5 -55 q-38.5 -55 -46.5 -152 l269 0 q0 29 -1 50 q-1 21 -7.5 53 q-6.5 32 -18 52.5 q-11.5 20.5 -35 36 q-23.5 15.5 -56.5 15.5 Z" /><glyph glyph-name="edieresis" unicode="ë" d="M213.5 592 q-12.5 -13 -31.5 -13 q-19 0 -31.5 13 q-12.5 13 -12.5 31 q0 18 13 31 q13 13 31 13 q18 0 31 -13 q13 -13 13 -31 q0 -18 -12.5 -31 ZM383.5 592 q-12.5 -13 -31.5 -13 q-19 0 -31.5 13 q-12.5 13 -12.5 31 q0 18 13 31 q13 13 31 13 q18 0 31 -13 q13 -13 13 -31 q0 -18 -12.5 -31 ZM285 -1 q120 0 179 100 l5 -7 q-61 -102 -194 -102 q-113 0 -173.5 73.5 q-60.5 73.5 -60.5 186.5 q0 113 60 186.5 q60 73.5 172 73.5 q50 0 88 -16.5 q38 -16.5 58 -40 q20 -23.5 32.5 -56 q12.5 -32.5 16 -58 q3.5 -25.5 3.5 -52.5 l-350 0 q-1 -12 -1 -37 q0 -119 43.5 -185 q43.5 -66 121.5 -66 ZM273 502 q-66 0 -104.5 -55 q-38.5 -55 -46.5 -152 l269 0 q0 29 -1 50 q-1 21 -7.5 53 q-6.5 32 -18 52.5 q-11.5 20.5 -35 36 q-23.5 15.5 -56.5 15.5 Z" /><glyph glyph-name="igrave" unicode="ì" d="M39 710 q35 0 54 -50 q29 -72 96 -104 l-3 -6 q-6 3 -22.5 9.5 q-16.5 6.5 -26 11 q-9.5 4.5 -26.5 12 q-17 7.5 -27.5 13 q-10.5 5.5 -24 13.5 q-13.5 8 -22.5 15.5 q-9 7.5 -17 15.5 q-8 8 -12 16.5 q-4 8.5 -4 17.5 q0 17 10 26.5 q10 9.5 25 9.5 ZM172 500 l0 -462 q0 -20 5 -25 q5 -5 25 -5 l35 0 l0 -8 l-209 0 l0 8 l35 0 q19 0 24.5 5 q5.5 5 5.5 25 l0 402 q0 20 -6.5 27 q-6.5 7 -23.5 3 l-35 -8 l0 8 l144 30 Z" /><glyph glyph-name="iacute" unicode="í" d="M243 710 q15 0 25 -9.5 q10 -9.5 10 -26.5 q0 -9 -3.5 -17.5 q-3.5 -8.5 -12.5 -17 q-9 -8.5 -16.5 -15.5 q-7.5 -7 -22.5 -15 q-15 -8 -24.5 -13.5 q-9.5 -5.5 -27.5 -13.5 q-18 -8 -26 -11.5 q-8 -3.5 -26.5 -11 q-18.5 -7.5 -22.5 -9.5 l-3 6 q69 33 96 104 q19 50 54 50 ZM172 500 l0 -462 q0 -20 5 -25 q5 -5 25 -5 l35 0 l0 -8 l-209 0 l0 8 l35 0 q19 0 24.5 5 q5.5 5 5.5 25 l0 402 q0 20 -6.5 27 q-6.5 7 -23.5 3 l-35 -8 l0 8 l144 30 Z" /><glyph glyph-name="icircumflex" unicode="î" d="M128 713 l9 0 q24 -40 69 -87 q45 -47 81 -67 l-3 -8 q-100 41 -152 82 q-49 -40 -152 -82 l-4 8 q36 20 82 68 q46 48 70 86 ZM172 500 l0 -462 q0 -20 5 -25 q5 -5 25 -5 l35 0 l0 -8 l-209 0 l0 8 l35 0 q19 0 24.5 5 q5.5 5 5.5 25 l0 402 q0 20 -6.5 27 q-6.5 7 -23.5 3 l-35 -8 l0 8 l144 30 Z" /><glyph glyph-name="idieresis" unicode="ï" d="M16 654 q13 13 31 13 q18 0 31 -13 q13 -13 13 -31 q0 -18 -12.5 -31 q-12.5 -13 -31.5 -13 q-19 0 -31.5 13 q-12.5 13 -12.5 31 q0 18 13 31 ZM186 654 q13 13 31 13 q18 0 31 -13 q13 -13 13 -31 q0 -18 -12.5 -31 q-12.5 -13 -31.5 -13 q-19 0 -31.5 13 q-12.5 13 -12.5 31 q0 18 13 31 ZM172 500 l0 -462 q0 -20 5 -25 q5 -5 25 -5 l35 0 l0 -8 l-209 0 l0 8 l35 0 q19 0 24.5 5 q5.5 5 5.5 25 l0 402 q0 20 -6.5 27 q-6.5 7 -23.5 3 l-35 -8 l0 8 l144 30 Z" /><glyph glyph-name="eth" unicode="ð" d="M302 860 l-64 -110 q128 -4 199.5 -119 q71.5 -115 71.5 -310 q0 -155 -59 -243 q-59 -88 -175 -88 q-113 0 -173.5 73.5 q-60.5 73.5 -60.5 186.5 q0 115 63.5 187.5 q63.5 72.5 190.5 72.5 q79 0 125 -33 q-16 146 -63 204 q-47 58 -124 60 l-86 -147 l-11 6 l82 141 q-103 -3 -158 -98 l-4 6 q55 98 167 101 l68 116 l11 -6 ZM275 -2 q155 0 155 275 q0 111 -9 192 q-43 37 -126 37 q-89 0 -132 -66.5 q-43 -66.5 -43 -185.5 q0 -117 40 -184.5 q40 -67.5 115 -67.5 Z" /><glyph glyph-name="ntilde" unicode="ñ" d="M441 669 l8 0 q0 -44 -18.5 -67.5 q-18.5 -23.5 -51.5 -23.5 q-26 0 -78 21.5 q-52 21.5 -74 21.5 q-50 0 -50 -43 l-8 0 q0 43 20 67 q20 24 54 24 q27 0 75 -22 q48 -22 72 -22 q24 0 37.5 12 q13.5 12 13.5 32 ZM334 510 q83 0 128.5 -45.5 q45.5 -45.5 45.5 -127.5 l0 -299 q0 -20 5 -25 q5 -5 25 -5 l35 0 l0 -8 l-209 0 l0 8 l35 0 q19 0 24.5 5 q5.5 5 5.5 25 l0 308 q0 70 -27.5 110.5 q-27.5 40.5 -83.5 40.5 q-65 0 -105.5 -60 q-40.5 -60 -40.5 -153 l0 -246 q0 -20 5 -25 q5 -5 25 -5 l35 0 l0 -8 l-209 0 l0 8 l35 0 q19 0 24.5 5 q5.5 5 5.5 25 l0 402 q0 20 -6.5 27 q-6.5 7 -23.5 3 l-35 -8 l0 8 l144 30 l0 -142 q14 76 60.5 114 q46.5 38 101.5 38 Z" /><glyph glyph-name="ograve" unicode="ò" d="M182 710 q35 0 54 -50 q29 -72 96 -104 l-3 -6 q-6 3 -22.5 9.5 q-16.5 6.5 -26 11 q-9.5 4.5 -26.5 12 q-17 7.5 -27.5 13 q-10.5 5.5 -24 13.5 q-13.5 8 -22.5 15.5 q-9 7.5 -17 15.5 q-8 8 -12 16.5 q-4 8.5 -4 17.5 q0 17 10 26.5 q10 9.5 25 9.5 ZM101.5 436.5 q60.5 73.5 173.5 73.5 q113 0 173.5 -73.5 q60.5 -73.5 60.5 -186.5 q0 -113 -60.5 -186.5 q-60.5 -73.5 -173.5 -73.5 q-113 0 -173.5 73.5 q-60.5 73.5 -60.5 186.5 q0 113 60.5 186.5 ZM390 434.5 q-40 67.5 -115 67.5 q-75 0 -115 -67.5 q-40 -67.5 -40 -184.5 q0 -117 40 -184.5 q40 -67.5 115 -67.5 q75 0 115 67.5 q40 67.5 40 184.5 q0 117 -40 184.5 Z" /><glyph glyph-name="oacute" unicode="ó" d="M386 710 q15 0 25 -9.5 q10 -9.5 10 -26.5 q0 -9 -3.5 -17.5 q-3.5 -8.5 -12.5 -17 q-9 -8.5 -16.5 -15.5 q-7.5 -7 -22.5 -15 q-15 -8 -24.5 -13.5 q-9.5 -5.5 -27.5 -13.5 q-18 -8 -26 -11.5 q-8 -3.5 -26.5 -11 q-18.5 -7.5 -22.5 -9.5 l-3 6 q69 33 96 104 q19 50 54 50 ZM101.5 436.5 q60.5 73.5 173.5 73.5 q113 0 173.5 -73.5 q60.5 -73.5 60.5 -186.5 q0 -113 -60.5 -186.5 q-60.5 -73.5 -173.5 -73.5 q-113 0 -173.5 73.5 q-60.5 73.5 -60.5 186.5 q0 113 60.5 186.5 ZM390 434.5 q-40 67.5 -115 67.5 q-75 0 -115 -67.5 q-40 -67.5 -40 -184.5 q0 -117 40 -184.5 q40 -67.5 115 -67.5 q75 0 115 67.5 q40 67.5 40 184.5 q0 117 -40 184.5 Z" /><glyph glyph-name="ocircumflex" unicode="ô" d="M271 713 l9 0 q24 -40 69 -87 q45 -47 81 -67 l-3 -8 q-100 41 -152 82 q-49 -40 -152 -82 l-4 8 q36 20 82 68 q46 48 70 86 ZM101.5 436.5 q60.5 73.5 173.5 73.5 q113 0 173.5 -73.5 q60.5 -73.5 60.5 -186.5 q0 -113 -60.5 -186.5 q-60.5 -73.5 -173.5 -73.5 q-113 0 -173.5 73.5 q-60.5 73.5 -60.5 186.5 q0 113 60.5 186.5 ZM390 434.5 q-40 67.5 -115 67.5 q-75 0 -115 -67.5 q-40 -67.5 -40 -184.5 q0 -117 40 -184.5 q40 -67.5 115 -67.5 q75 0 115 67.5 q40 67.5 40 184.5 q0 117 -40 184.5 Z" /><glyph glyph-name="otilde" unicode="õ" d="M407 669 l8 0 q0 -44 -18.5 -67.5 q-18.5 -23.5 -51.5 -23.5 q-26 0 -78 21.5 q-52 21.5 -74 21.5 q-50 0 -50 -43 l-8 0 q0 43 20 67 q20 24 54 24 q27 0 75 -22 q48 -22 72 -22 q24 0 37.5 12 q13.5 12 13.5 32 ZM101.5 436.5 q60.5 73.5 173.5 73.5 q113 0 173.5 -73.5 q60.5 -73.5 60.5 -186.5 q0 -113 -60.5 -186.5 q-60.5 -73.5 -173.5 -73.5 q-113 0 -173.5 73.5 q-60.5 73.5 -60.5 186.5 q0 113 60.5 186.5 ZM390 434.5 q-40 67.5 -115 67.5 q-75 0 -115 -67.5 q-40 -67.5 -40 -184.5 q0 -117 40 -184.5 q40 -67.5 115 -67.5 q75 0 115 67.5 q40 67.5 40 184.5 q0 117 -40 184.5 Z" /><glyph glyph-name="odieresis" unicode="ö" d="M159 654 q13 13 31 13 q18 0 31 -13 q13 -13 13 -31 q0 -18 -12.5 -31 q-12.5 -13 -31.5 -13 q-19 0 -31.5 13 q-12.5 13 -12.5 31 q0 18 13 31 ZM329 654 q13 13 31 13 q18 0 31 -13 q13 -13 13 -31 q0 -18 -12.5 -31 q-12.5 -13 -31.5 -13 q-19 0 -31.5 13 q-12.5 13 -12.5 31 q0 18 13 31 ZM101.5 436.5 q60.5 73.5 173.5 73.5 q113 0 173.5 -73.5 q60.5 -73.5 60.5 -186.5 q0 -113 -60.5 -186.5 q-60.5 -73.5 -173.5 -73.5 q-113 0 -173.5 73.5 q-60.5 73.5 -60.5 186.5 q0 113 60.5 186.5 ZM390 434.5 q-40 67.5 -115 67.5 q-75 0 -115 -67.5 q-40 -67.5 -40 -184.5 q0 -117 40 -184.5 q40 -67.5 115 -67.5 q75 0 115 67.5 q40 67.5 40 184.5 q0 117 -40 184.5 Z" /><glyph glyph-name="divide" unicode="÷" d="M206 443.5 q11 11.5 29 11.5 q18 0 29 -11.5 q11 -11.5 11 -28.5 q0 -17 -11 -28.5 q-11 -11.5 -29 -11.5 q-18 0 -29 11.5 q-11 11.5 -11 28.5 q0 17 11 28.5 ZM420 293 l-370 0 l0 12 l370 0 l0 -12 ZM206 211.5 q11 11.5 29 11.5 q18 0 29 -11.5 q11 -11.5 11 -28.5 q0 -17 -11 -28.5 q-11 -11.5 -29 -11.5 q-18 0 -29 11.5 q-11 11.5 -11 28.5 q0 17 11 28.5 Z" /><glyph glyph-name="oslash" unicode="ø" d="M450 500 l-26 -39 q85 -70 85 -211 q0 -113 -60.5 -186.5 q-60.5 -73.5 -173.5 -73.5 q-82 0 -140 42 l-22 -32 l-13 0 l26 39 q-85 72 -85 211 q0 113 60.5 186.5 q60.5 73.5 173.5 73.5 q82 0 140 -42 l22 32 l13 0 ZM120 250 q0 -106 33 -171 l238 353 q-40 70 -116 70 q-75 0 -115 -67.5 q-40 -67.5 -40 -184.5 ZM275 -2 q75 0 115 67.5 q40 67.5 40 184.5 q0 108 -33 172 l-238 -354 q40 -70 116 -70 Z" /><glyph glyph-name="ugrave" unicode="ù" d="M201 710 q35 0 54 -50 q29 -72 96 -104 l-3 -6 q-6 3 -22.5 9.5 q-16.5 6.5 -26 11 q-9.5 4.5 -26.5 12 q-17 7.5 -27.5 13 q-10.5 5.5 -24 13.5 q-13.5 8 -22.5 15.5 q-9 7.5 -17 15.5 q-8 8 -12 16.5 q-4 8.5 -4 17.5 q0 17 10 26.5 q10 9.5 25 9.5 ZM508 500 l0 -462 q0 -20 5 -25 q5 -5 25 -5 l35 0 l0 -8 l-144 0 l0 143 q-14 -76 -60.5 -114.5 q-46.5 -38.5 -101.5 -38.5 q-83 0 -128.5 46 q-45.5 46 -45.5 128 l0 276 q0 20 -6.5 27 q-6.5 7 -23.5 3 l-35 -8 l0 8 l144 30 l0 -345 q0 -151 111 -151 q65 0 105.5 59.5 q40.5 59.5 40.5 152.5 l0 224 q0 20 -6.5 27 q-6.5 7 -23.5 3 l-35 -8 l0 8 l144 30 Z" /><glyph glyph-name="uacute" unicode="ú" d="M405 710 q15 0 25 -9.5 q10 -9.5 10 -26.5 q0 -9 -3.5 -17.5 q-3.5 -8.5 -12.5 -17 q-9 -8.5 -16.5 -15.5 q-7.5 -7 -22.5 -15 q-15 -8 -24.5 -13.5 q-9.5 -5.5 -27.5 -13.5 q-18 -8 -26 -11.5 q-8 -3.5 -26.5 -11 q-18.5 -7.5 -22.5 -9.5 l-3 6 q69 33 96 104 q19 50 54 50 ZM508 500 l0 -462 q0 -20 5 -25 q5 -5 25 -5 l35 0 l0 -8 l-144 0 l0 143 q-14 -76 -60.5 -114.5 q-46.5 -38.5 -101.5 -38.5 q-83 0 -128.5 46 q-45.5 46 -45.5 128 l0 276 q0 20 -6.5 27 q-6.5 7 -23.5 3 l-35 -8 l0 8 l144 30 l0 -345 q0 -151 111 -151 q65 0 105.5 59.5 q40.5 59.5 40.5 152.5 l0 224 q0 20 -6.5 27 q-6.5 7 -23.5 3 l-35 -8 l0 8 l144 30 Z" /><glyph glyph-name="ucircumflex" unicode="û" d="M290 713 l9 0 q24 -40 69 -87 q45 -47 81 -67 l-3 -8 q-100 41 -152 82 q-49 -40 -152 -82 l-4 8 q36 20 82 68 q46 48 70 86 ZM508 500 l0 -462 q0 -20 5 -25 q5 -5 25 -5 l35 0 l0 -8 l-144 0 l0 143 q-14 -76 -60.5 -114.5 q-46.5 -38.5 -101.5 -38.5 q-83 0 -128.5 46 q-45.5 46 -45.5 128 l0 276 q0 20 -6.5 27 q-6.5 7 -23.5 3 l-35 -8 l0 8 l144 30 l0 -345 q0 -151 111 -151 q65 0 105.5 59.5 q40.5 59.5 40.5 152.5 l0 224 q0 20 -6.5 27 q-6.5 7 -23.5 3 l-35 -8 l0 8 l144 30 Z" /><glyph glyph-name="udieresis" unicode="ü" d="M178 654 q13 13 31 13 q18 0 31 -13 q13 -13 13 -31 q0 -18 -12.5 -31 q-12.5 -13 -31.5 -13 q-19 0 -31.5 13 q-12.5 13 -12.5 31 q0 18 13 31 ZM348 654 q13 13 31 13 q18 0 31 -13 q13 -13 13 -31 q0 -18 -12.5 -31 q-12.5 -13 -31.5 -13 q-19 0 -31.5 13 q-12.5 13 -12.5 31 q0 18 13 31 ZM508 500 l0 -462 q0 -20 5 -25 q5 -5 25 -5 l35 0 l0 -8 l-144 0 l0 143 q-14 -76 -60.5 -114.5 q-46.5 -38.5 -101.5 -38.5 q-83 0 -128.5 46 q-45.5 46 -45.5 128 l0 276 q0 20 -6.5 27 q-6.5 7 -23.5 3 l-35 -8 l0 8 l144 30 l0 -345 q0 -151 111 -151 q65 0 105.5 59.5 q40.5 59.5 40.5 152.5 l0 224 q0 20 -6.5 27 q-6.5 7 -23.5 3 l-35 -8 l0 8 l144 30 Z" /><glyph glyph-name="yacute" unicode="ý" d="M428 710 q15 0 25 -9.5 q10 -9.5 10 -26.5 q0 -9 -3.5 -17.5 q-3.5 -8.5 -12.5 -17 q-9 -8.5 -16.5 -15.5 q-7.5 -7 -22.5 -15 q-15 -8 -24.5 -13.5 q-9.5 -5.5 -27.5 -13.5 q-18 -8 -26 -11.5 q-8 -3.5 -26.5 -11 q-18.5 -7.5 -22.5 -9.5 l-3 6 q69 33 96 104 q19 50 54 50 ZM569 492 l-46 0 q-20 0 -26.5 -5 q-6.5 -5 -14.5 -25 l-179 -472 q-44 -116 -98 -178 q-54 -62 -107 -62 q-37 0 -58 16.5 q-21 16.5 -21 41.5 q0 15 9.5 24.5 q9.5 9.5 25.5 9.5 q16 0 25.5 -9.5 q9.5 -9.5 9.5 -23.5 q0 -9 -5 -20 q-5 -11 -5 -16 q0 -15 19 -15 q49 0 101 59.5 q52 59.5 96 172.5 l-197 472 q-9 20 -16 25 q-7 5 -26 5 l-41 0 l0 8 l255 0 l0 -8 l-72 0 q-16 0 -19 -7 q-3 -7 4 -23 l150 -371 l140 371 q12 30 -15 30 l-78 0 l0 8 l189 0 l0 -8 Z" /><glyph glyph-name="thorn" unicode="þ" d="M172 750 l0 -396 q14 78 60.5 117 q46.5 39 101.5 39 q90 0 142 -69 q52 -69 52 -191 q0 -122 -52 -191 q-52 -69 -142 -69 q-55 0 -101.5 39.5 q-46.5 39.5 -60.5 117.5 l0 -349 q0 -20 5 -25 q5 -5 25 -5 l35 0 l0 -8 l-209 0 l0 8 l35 0 q19 0 24.5 5 q5.5 5 5.5 25 l0 892 q0 20 -6.5 27 q-6.5 7 -23.5 3 l-35 -8 l0 8 l144 30 ZM317 497 q-63 0 -104.5 -60.5 q-41.5 -60.5 -41.5 -154.5 l0 -64 q0 -94 41.5 -154.5 q41.5 -60.5 104.5 -60.5 q65 0 98.5 65 q33.5 65 33.5 182 q0 118 -33.5 182.5 q-33.5 64.5 -98.5 64.5 Z" /><glyph glyph-name="ydieresis" unicode="ÿ" d="M202 654 q13 13 31 13 q18 0 31 -13 q13 -13 13 -31 q0 -18 -12.5 -31 q-12.5 -13 -31.5 -13 q-19 0 -31.5 13 q-12.5 13 -12.5 31 q0 18 13 31 ZM372 654 q13 13 31 13 q18 0 31 -13 q13 -13 13 -31 q0 -18 -12.5 -31 q-12.5 -13 -31.5 -13 q-19 0 -31.5 13 q-12.5 13 -12.5 31 q0 18 13 31 ZM569 492 l-46 0 q-20 0 -26.5 -5 q-6.5 -5 -14.5 -25 l-179 -472 q-44 -116 -98 -178 q-54 -62 -107 -62 q-37 0 -58 16.5 q-21 16.5 -21 41.5 q0 15 9.5 24.5 q9.5 9.5 25.5 9.5 q16 0 25.5 -9.5 q9.5 -9.5 9.5 -23.5 q0 -9 -5 -20 q-5 -11 -5 -16 q0 -15 19 -15 q49 0 101 59.5 q52 59.5 96 172.5 l-197 472 q-9 20 -16 25 q-7 5 -26 5 l-41 0 l0 8 l255 0 l0 -8 l-72 0 q-16 0 -19 -7 q-3 -7 4 -23 l150 -371 l140 371 q12 30 -15 30 l-78 0 l0 8 l189 0 l0 -8 Z" /><glyph glyph-name="Amacron" unicode="&#x100;" d="M478 802 l-258 0 l0 12 l258 0 l0 -12 ZM714 8 l0 -8 l-231 0 l0 8 l53 0 q16 0 19 7 q3 7 -4 23 l-83 195 l-302 0 l-77 -193 q-12 -32 15 -32 l64 0 l0 -8 l-167 0 l0 8 l37 0 q20 0 26 5 q6 5 15 25 l266 667 l8 0 l287 -667 q8 -19 16.5 -24.5 q8.5 -5.5 28.5 -5.5 l29 0 ZM464 241 l-153 358 l-142 -358 l295 0 Z" /><glyph glyph-name="amacron" unicode="&#x101;" d="M372 604 l-258 0 l0 12 l258 0 l0 -12 ZM243 510 q103 0 142 -45.5 q39 -45.5 39 -131.5 l0 -253 q0 -63 33 -63 q16 0 30 18 l5 -5 q-26 -37 -70 -37 q-77 0 -77 94 l0 40 q-42 -137 -172 -137 q-60 0 -97.5 32 q-37.5 32 -37.5 82 q0 67 71 119.5 q71 52.5 236 71.5 l0 79 q0 26 -4 46 q-4 20 -14.5 40 q-10.5 20 -33 31 q-22.5 11 -56.5 11 q-98 0 -98 -77 q0 -5 1.5 -15.5 q1.5 -10.5 1.5 -16.5 q0 -16 -10.5 -26 q-10.5 -10 -27.5 -10 q-36 0 -36 36 q0 44 49 80.5 q49 36.5 126 36.5 ZM345 184 l0 103 q-130 -17 -179.5 -62.5 q-49.5 -45.5 -49.5 -116.5 q0 -43 24 -69 q24 -26 67 -26 q62 0 100 53 q38 53 38 118 Z" /><glyph glyph-name="Abreve" unicode="&#x102;" d="M349 750 q-109 0 -131 143 l8 0 q16 -90 123 -90 q62 0 92 26.5 q30 26.5 36 63.5 l8 0 q-22 -143 -136 -143 ZM714 8 l0 -8 l-231 0 l0 8 l53 0 q16 0 19 7 q3 7 -4 23 l-83 195 l-302 0 l-77 -193 q-12 -32 15 -32 l64 0 l0 -8 l-167 0 l0 8 l37 0 q20 0 26 5 q6 5 15 25 l266 667 l8 0 l287 -667 q8 -19 16.5 -24.5 q8.5 -5.5 28.5 -5.5 l29 0 ZM464 241 l-153 358 l-142 -358 l295 0 Z" /><glyph glyph-name="abreve" unicode="&#x103;" d="M371 695 l8 0 q-22 -143 -136 -143 q-109 0 -131 143 l8 0 q16 -90 123 -90 q62 0 92 26.5 q30 26.5 36 63.5 ZM243 510 q103 0 142 -45.5 q39 -45.5 39 -131.5 l0 -253 q0 -63 33 -63 q16 0 30 18 l5 -5 q-26 -37 -70 -37 q-77 0 -77 94 l0 40 q-42 -137 -172 -137 q-60 0 -97.5 32 q-37.5 32 -37.5 82 q0 67 71 119.5 q71 52.5 236 71.5 l0 79 q0 26 -4 46 q-4 20 -14.5 40 q-10.5 20 -33 31 q-22.5 11 -56.5 11 q-98 0 -98 -77 q0 -5 1.5 -15.5 q1.5 -10.5 1.5 -16.5 q0 -16 -10.5 -26 q-10.5 -10 -27.5 -10 q-36 0 -36 36 q0 44 49 80.5 q49 36.5 126 36.5 ZM345 184 l0 103 q-130 -17 -179.5 -62.5 q-49.5 -45.5 -49.5 -116.5 q0 -43 24 -69 q24 -26 67 -26 q62 0 100 53 q38 53 38 118 Z" /><glyph glyph-name="Aogonek" unicode="&#x104;" d="M714 0 l-72 0 q-30 -26 -51 -63 q-21 -37 -21 -67 q0 -27 14.5 -42.5 q14.5 -15.5 40.5 -15.5 q31 0 55 20 l1 -7 q-31 -29 -77 -29 q-32 0 -54.5 17.5 q-22.5 17.5 -22.5 50.5 q0 64 107 136 l-151 0 l0 8 l53 0 q16 0 19 7 q3 7 -4 23 l-83 195 l-302 0 l-77 -193 q-12 -32 15 -32 l64 0 l0 -8 l-167 0 l0 8 l37 0 q20 0 26 5 q6 5 15 25 l266 667 l8 0 l287 -667 q8 -19 16.5 -24.5 q8.5 -5.5 28.5 -5.5 l29 0 l0 -8 ZM464 241 l-153 358 l-142 -358 l295 0 Z" /><glyph glyph-name="aogonek" unicode="&#x105;" d="M243 510 q103 0 142 -45.5 q39 -45.5 39 -131.5 l0 -253 q0 -63 33 -63 q16 0 30 18 l5 -5 q-88 -98 -88 -160 q0 -26 15 -42 q15 -16 40 -16 q25 0 54 19 l2 -6 q-31 -29 -76 -29 q-33 0 -55 17.5 q-22 17.5 -22 50.5 q0 24 19 53.5 q19 29.5 32.5 43 q13.5 13.5 43.5 40.5 q-18 -8 -35 -8 q-77 0 -77 94 l0 40 q-42 -137 -172 -137 q-60 0 -97.5 32 q-37.5 32 -37.5 82 q0 67 71 119.5 q71 52.5 236 71.5 l0 79 q0 26 -4 46 q-4 20 -14.5 40 q-10.5 20 -33 31 q-22.5 11 -56.5 11 q-98 0 -98 -77 q0 -5 1.5 -15.5 q1.5 -10.5 1.5 -16.5 q0 -16 -10.5 -26 q-10.5 -10 -27.5 -10 q-36 0 -36 36 q0 44 49 80.5 q49 36.5 126 36.5 ZM345 184 l0 103 q-130 -17 -179.5 -62.5 q-49.5 -45.5 -49.5 -116.5 q0 -43 24 -69 q24 -26 67 -26 q62 0 100 53 q38 53 38 118 Z" /><glyph glyph-name="Cacute" unicode="&#x106;" d="M532 910 q15 0 25 -9.5 q10 -9.5 10 -26.5 q0 -9 -3.5 -17.5 q-3.5 -8.5 -12.5 -17 q-9 -8.5 -16.5 -15.5 q-7.5 -7 -22.5 -15 q-15 -8 -24.5 -13.5 q-9.5 -5.5 -27.5 -13.5 q-18 -8 -26 -11.5 q-8 -3.5 -26.5 -11 q-18.5 -7.5 -22.5 -9.5 l-3 6 q69 33 96 104 q19 50 54 50 ZM422 710 q55 0 106 -15 q51 -15 83 -30 q32 -15 38 -15 q11 0 11 15 l0 35 l8 0 l0 -182 l-8 0 l-2 10 q-22 93 -81 133.5 q-59 40.5 -155 40.5 q-118 0 -195.5 -100 q-77.5 -100 -77.5 -252 q0 -152 77.5 -252 q77.5 -100 195.5 -100 q96 0 155 41 q59 41 81 134 l2 10 l8 0 l0 -183 l-8 0 l0 35 q0 15 -11 15 q-6 0 -38 -15 q-32 -15 -83.5 -30 q-51.5 -15 -105.5 -15 q-148 0 -251 103 q-103 103 -103 257 q0 154 103 257 q103 103 251 103 Z" /><glyph glyph-name="cacute" unicode="&#x107;" d="M393 710 q15 0 25 -9.5 q10 -9.5 10 -26.5 q0 -9 -3.5 -17.5 q-3.5 -8.5 -12.5 -17 q-9 -8.5 -16.5 -15.5 q-7.5 -7 -22.5 -15 q-15 -8 -24.5 -13.5 q-9.5 -5.5 -27.5 -13.5 q-18 -8 -26 -11.5 q-8 -3.5 -26.5 -11 q-18.5 -7.5 -22.5 -9.5 l-3 6 q69 33 96 104 q19 50 54 50 ZM290 510 q73 0 128.5 -37.5 q55.5 -37.5 55.5 -79.5 q0 -17 -10 -26.5 q-10 -9.5 -26 -9.5 q-17 0 -27.5 10 q-10.5 10 -10.5 26 q0 5 1 14 q1 9 1 13 q0 32 -24.5 57 q-24.5 25 -87.5 25 q-80 0 -125 -68 q-45 -68 -45 -184 q0 -120 43.5 -185.5 q43.5 -65.5 121.5 -65.5 q120 0 179 100 l5 -7 q-61 -102 -194 -102 q-113 0 -173.5 73.5 q-60.5 73.5 -60.5 186.5 q0 112 65.5 186 q65.5 74 183.5 74 Z" /><glyph glyph-name="Cdotaccent" unicode="&#x10a;" d="M387.5 857.5 q14.5 14.5 34.5 14.5 q20 0 34 -14.5 q14 -14.5 14 -34.5 q0 -19 -14 -33.5 q-14 -14.5 -34 -14.5 q-20 0 -34.5 14 q-14.5 14 -14.5 34 q0 20 14.5 34.5 ZM422 710 q55 0 106 -15 q51 -15 83 -30 q32 -15 38 -15 q11 0 11 15 l0 35 l8 0 l0 -182 l-8 0 l-2 10 q-22 93 -81 133.5 q-59 40.5 -155 40.5 q-118 0 -195.5 -100 q-77.5 -100 -77.5 -252 q0 -152 77.5 -252 q77.5 -100 195.5 -100 q96 0 155 41 q59 41 81 134 l2 10 l8 0 l0 -183 l-8 0 l0 35 q0 15 -11 15 q-6 0 -38 -15 q-32 -15 -83.5 -30 q-51.5 -15 -105.5 -15 q-148 0 -251 103 q-103 103 -103 257 q0 154 103 257 q103 103 251 103 Z" /><glyph glyph-name="cdotaccent" unicode="&#x10b;" d="M248.5 657.5 q14.5 14.5 34.5 14.5 q20 0 34 -14.5 q14 -14.5 14 -34.5 q0 -19 -14.5 -33.5 q-14.5 -14.5 -33.5 -14.5 q-20 0 -34.5 14 q-14.5 14 -14.5 34 q0 20 14.5 34.5 ZM290 510 q73 0 128.5 -37.5 q55.5 -37.5 55.5 -79.5 q0 -17 -10 -26.5 q-10 -9.5 -26 -9.5 q-17 0 -27.5 10 q-10.5 10 -10.5 26 q0 5 1 14 q1 9 1 13 q0 32 -24.5 57 q-24.5 25 -87.5 25 q-80 0 -125 -68 q-45 -68 -45 -184 q0 -120 43.5 -185.5 q43.5 -65.5 121.5 -65.5 q120 0 179 100 l5 -7 q-61 -102 -194 -102 q-113 0 -173.5 73.5 q-60.5 73.5 -60.5 186.5 q0 112 65.5 186 q65.5 74 183.5 74 Z" /><glyph glyph-name="Ccaron" unicode="&#x10c;" d="M574 910 l4 -8 q-37 -19 -81.5 -66.5 q-44.5 -47.5 -69.5 -87.5 l-9 0 q-24 39 -69.5 86.5 q-45.5 47.5 -82.5 67.5 l4 8 q105 -43 152 -82 q49 40 152 82 ZM422 710 q55 0 106 -15 q51 -15 83 -30 q32 -15 38 -15 q11 0 11 15 l0 35 l8 0 l0 -182 l-8 0 l-2 10 q-22 93 -81 133.5 q-59 40.5 -155 40.5 q-118 0 -195.5 -100 q-77.5 -100 -77.5 -252 q0 -152 77.5 -252 q77.5 -100 195.5 -100 q96 0 155 41 q59 41 81 134 l2 10 l8 0 l0 -183 l-8 0 l0 35 q0 15 -11 15 q-6 0 -38 -15 q-32 -15 -83.5 -30 q-51.5 -15 -105.5 -15 q-148 0 -251 103 q-103 103 -103 257 q0 154 103 257 q103 103 251 103 Z" /><glyph glyph-name="ccaron" unicode="&#x10d;" d="M435 710 l4 -8 q-37 -19 -81.5 -66.5 q-44.5 -47.5 -69.5 -87.5 l-9 0 q-24 39 -69.5 86.5 q-45.5 47.5 -82.5 67.5 l4 8 q105 -43 152 -82 q49 40 152 82 ZM290 510 q73 0 128.5 -37.5 q55.5 -37.5 55.5 -79.5 q0 -17 -10 -26.5 q-10 -9.5 -26 -9.5 q-17 0 -27.5 10 q-10.5 10 -10.5 26 q0 5 1 14 q1 9 1 13 q0 32 -24.5 57 q-24.5 25 -87.5 25 q-80 0 -125 -68 q-45 -68 -45 -184 q0 -120 43.5 -185.5 q43.5 -65.5 121.5 -65.5 q120 0 179 100 l5 -7 q-61 -102 -194 -102 q-113 0 -173.5 73.5 q-60.5 73.5 -60.5 186.5 q0 112 65.5 186 q65.5 74 183.5 74 Z" /><glyph glyph-name="Dcaron" unicode="&#x10e;" d="M509 910 l4 -8 q-37 -19 -81.5 -66.5 q-44.5 -47.5 -69.5 -87.5 l-9 0 q-24 39 -69.5 86.5 q-45.5 47.5 -82.5 67.5 l4 8 q105 -43 152 -82 q49 40 152 82 ZM48 700 l309 0 q150 0 251.5 -97 q101.5 -97 101.5 -253 q0 -156 -101.5 -253 q-101.5 -97 -251.5 -97 l-309 0 l0 8 l35 0 q19 0 24.5 5 q5.5 5 5.5 25 l0 624 q0 20 -5.5 25 q-5.5 5 -24.5 5 l-35 0 l0 8 ZM357 692 l-134 0 q-19 0 -24.5 -5 q-5.5 -5 -5.5 -25 l0 -624 q0 -20 5.5 -25 q5.5 -5 24.5 -5 l134 0 q119 0 195.5 94 q76.5 94 76.5 248 q0 154 -76.5 248 q-76.5 94 -195.5 94 Z" /><glyph glyph-name="dcaron" unicode="&#x10f;" d="M476 750 l0 -712 q0 -20 5 -25 q5 -5 25 -5 l35 0 l0 -8 l-143 0 l0 147 q-15 -78 -61 -117.5 q-46 -39.5 -102 -39.5 q-90 0 -142 69 q-52 69 -52 191 q0 122 52 191 q52 69 142 69 q56 0 102 -39 q46 -39 61 -117 l0 336 q0 20 -6.5 27 q-6.5 7 -23.5 3 l-35 -8 l0 8 l143 30 ZM565 750 q40 0 40 -53 q0 -91 -72 -137 l-5 6 q24 16 40.5 40 q16.5 24 16.5 44 q0 20 -21 20 q-18 0 -28.5 11.5 q-10.5 11.5 -10.5 28.5 q0 17 11 28.5 q11 11.5 29 11.5 ZM252 497 q-65 0 -98.5 -64.5 q-33.5 -64.5 -33.5 -182.5 q0 -117 33.5 -182 q33.5 -65 98.5 -65 q63 0 104.5 60.5 q41.5 60.5 41.5 154.5 l0 64 q0 94 -41.5 154.5 q-41.5 60.5 -104.5 60.5 Z" /><glyph glyph-name="Dcroat" unicode="&#x110;" d="M48 700 l309 0 q150 0 251.5 -97 q101.5 -97 101.5 -253 q0 -156 -101.5 -253 q-101.5 -97 -251.5 -97 l-309 0 l0 8 l35 0 q19 0 24.5 5 q5.5 5 5.5 25 l0 306 l-65 0 l0 12 l65 0 l0 306 q0 20 -5.5 25 q-5.5 5 -24.5 5 l-35 0 l0 8 ZM223 8 l134 0 q119 0 195.5 94 q76.5 94 76.5 248 q0 154 -76.5 248 q-76.5 94 -195.5 94 l-134 0 q-19 0 -24.5 -5 q-5.5 -5 -5.5 -25 l0 -306 l155 0 l0 -12 l-155 0 l0 -306 q0 -20 5.5 -25 q5.5 -5 24.5 -5 Z" /><glyph glyph-name="dcroat" unicode="&#x111;" d="M476 605 l0 -567 q0 -20 5 -25 q5 -5 25 -5 l35 0 l0 -8 l-143 0 l0 147 q-15 -78 -61 -117.5 q-46 -39.5 -102 -39.5 q-90 0 -142 69 q-52 69 -52 191 q0 122 52 191 q52 69 142 69 q56 0 102 -39 q46 -39 61 -117 l0 251 l-88 0 l0 12 l88 0 l0 73 q0 20 -6.5 27 q-6.5 7 -23.5 3 l-35 -8 l0 8 l143 30 l0 -133 l66 0 l0 -12 l-66 0 ZM398 218 l0 64 q0 94 -41.5 154.5 q-41.5 60.5 -104.5 60.5 q-65 0 -98.5 -64.5 q-33.5 -64.5 -33.5 -182.5 q0 -117 33.5 -182 q33.5 -65 98.5 -65 q63 0 104.5 60.5 q41.5 60.5 41.5 154.5 Z" /><glyph glyph-name="Emacron" unicode="&#x112;" d="M466 802 l-258 0 l0 12 l258 0 l0 -12 ZM585 169 l0 -169 l-537 0 l0 8 l35 0 q19 0 24.5 5 q5.5 5 5.5 25 l0 624 q0 20 -5.5 25 q-5.5 5 -24.5 5 l-35 0 l0 8 l512 0 l0 -169 l-8 0 l0 25 q0 59 -29.5 97.5 q-29.5 38.5 -91.5 38.5 l-208 0 q-19 0 -24.5 -5 q-5.5 -5 -5.5 -25 l0 -300 l148 0 q111 0 111 96 l0 27 l8 0 l0 -254 l-8 0 l0 28 q0 95 -111 95 l-148 0 l0 -316 q0 -20 5.5 -25 q5.5 -5 24.5 -5 l233 0 q62 0 91.5 39.5 q29.5 39.5 29.5 96.5 l0 25 l8 0 Z" /><glyph glyph-name="emacron" unicode="&#x113;" d="M396 602 l-258 0 l0 12 l258 0 l0 -12 ZM285 -1 q120 0 179 100 l5 -7 q-61 -102 -194 -102 q-113 0 -173.5 73.5 q-60.5 73.5 -60.5 186.5 q0 113 60 186.5 q60 73.5 172 73.5 q50 0 88 -16.5 q38 -16.5 58 -40 q20 -23.5 32.5 -56 q12.5 -32.5 16 -58 q3.5 -25.5 3.5 -52.5 l-350 0 q-1 -12 -1 -37 q0 -119 43.5 -185 q43.5 -66 121.5 -66 ZM273 502 q-66 0 -104.5 -55 q-38.5 -55 -46.5 -152 l269 0 q0 29 -1 50 q-1 21 -7.5 53 q-6.5 32 -18 52.5 q-11.5 20.5 -35 36 q-23.5 15.5 -56.5 15.5 Z" /><glyph glyph-name="Edotaccent" unicode="&#x116;" d="M337 775 q-20 0 -34.5 14 q-14.5 14 -14.5 34 q0 20 14.5 34.5 q14.5 14.5 34.5 14.5 q20 0 34 -14.5 q14 -14.5 14 -34.5 q0 -19 -14.5 -33.5 q-14.5 -14.5 -33.5 -14.5 ZM585 169 l0 -169 l-537 0 l0 8 l35 0 q19 0 24.5 5 q5.5 5 5.5 25 l0 624 q0 20 -5.5 25 q-5.5 5 -24.5 5 l-35 0 l0 8 l512 0 l0 -169 l-8 0 l0 25 q0 59 -29.5 97.5 q-29.5 38.5 -91.5 38.5 l-208 0 q-19 0 -24.5 -5 q-5.5 -5 -5.5 -25 l0 -300 l148 0 q111 0 111 96 l0 27 l8 0 l0 -254 l-8 0 l0 28 q0 95 -111 95 l-148 0 l0 -316 q0 -20 5.5 -25 q5.5 -5 24.5 -5 l233 0 q62 0 91.5 39.5 q29.5 39.5 29.5 96.5 l0 25 l8 0 Z" /><glyph glyph-name="edotaccent" unicode="&#x117;" d="M267 575 q-20 0 -34.5 14 q-14.5 14 -14.5 34 q0 20 14.5 34.5 q14.5 14.5 34.5 14.5 q20 0 34 -14.5 q14 -14.5 14 -34.5 q0 -19 -14.5 -33.5 q-14.5 -14.5 -33.5 -14.5 ZM285 -1 q120 0 179 100 l5 -7 q-61 -102 -194 -102 q-113 0 -173.5 73.5 q-60.5 73.5 -60.5 186.5 q0 113 60 186.5 q60 73.5 172 73.5 q50 0 88 -16.5 q38 -16.5 58 -40 q20 -23.5 32.5 -56 q12.5 -32.5 16 -58 q3.5 -25.5 3.5 -52.5 l-350 0 q-1 -12 -1 -37 q0 -119 43.5 -185 q43.5 -66 121.5 -66 ZM273 502 q-66 0 -104.5 -55 q-38.5 -55 -46.5 -152 l269 0 q0 29 -1 50 q-1 21 -7.5 53 q-6.5 32 -18 52.5 q-11.5 20.5 -35 36 q-23.5 15.5 -56.5 15.5 Z" /><glyph glyph-name="Eogonek" unicode="&#x118;" d="M624 -168 l1 -7 q-31 -29 -77 -29 q-32 0 -54.5 17.5 q-22.5 17.5 -22.5 50.5 q0 64 107 136 l-530 0 l0 8 l35 0 q19 0 24.5 5 q5.5 5 5.5 25 l0 624 q0 20 -5.5 25 q-5.5 5 -24.5 5 l-35 0 l0 8 l512 0 l0 -169 l-8 0 l0 25 q0 59 -29.5 97.5 q-29.5 38.5 -91.5 38.5 l-208 0 q-19 0 -24.5 -5 q-5.5 -5 -5.5 -25 l0 -300 l148 0 q111 0 111 96 l0 27 l8 0 l0 -254 l-8 0 l0 28 q0 95 -111 95 l-148 0 l0 -316 q0 -20 5.5 -25 q5.5 -5 24.5 -5 l233 0 q62 0 91.5 39.5 q29.5 39.5 29.5 96.5 l0 25 l8 0 l0 -169 l1 0 q-30 -26 -51 -63 q-21 -37 -21 -67 q0 -27 14.5 -42.5 q14.5 -15.5 40.5 -15.5 q31 0 55 20 Z" /><glyph glyph-name="eogonek" unicode="&#x119;" d="M273 510 q50 0 87.5 -16 q37.5 -16 58 -39.5 q20.5 -23.5 33 -55.5 q12.5 -32 16 -58 q3.5 -26 3.5 -54 l-350 0 q-1 -12 -1 -37 q0 -119 43.5 -185 q43.5 -66 121.5 -66 q119 0 179 99 l5 -7 q-23 -35 -55 -61 q-34 -25 -59 -73 q-25 -48 -25 -80 q0 -26 14.5 -41.5 q14.5 -15.5 38.5 -15.5 q32 0 55 19 l3 -6 q-30 -30 -76 -30 q-33 0 -55 17.5 q-22 17.5 -22 51.5 q0 64 94 140 q-47 -22 -107 -22 q-113 0 -173.5 73.5 q-60.5 73.5 -60.5 186.5 q0 113 60 186.5 q60 73.5 172 73.5 ZM273 502 q-66 0 -105 -55 q-39 -55 -46 -152 l269 0 q0 23 -1 40.5 q-1 17.5 -4 44.5 q-3 27 -11 46 q-8 19 -20.5 37.5 q-12.5 18.5 -33.5 28.5 q-21 10 -48 10 Z" /><glyph glyph-name="Ecaron" unicode="&#x11a;" d="M342 748 l-9 0 q-24 39 -69.5 86.5 q-45.5 47.5 -82.5 67.5 l4 8 q105 -43 152 -82 q49 40 152 82 l4 -8 q-37 -19 -81.5 -66.5 q-44.5 -47.5 -69.5 -87.5 ZM585 169 l0 -169 l-537 0 l0 8 l35 0 q19 0 24.5 5 q5.5 5 5.5 25 l0 624 q0 20 -5.5 25 q-5.5 5 -24.5 5 l-35 0 l0 8 l512 0 l0 -169 l-8 0 l0 25 q0 59 -29.5 97.5 q-29.5 38.5 -91.5 38.5 l-208 0 q-19 0 -24.5 -5 q-5.5 -5 -5.5 -25 l0 -300 l148 0 q111 0 111 96 l0 27 l8 0 l0 -254 l-8 0 l0 28 q0 95 -111 95 l-148 0 l0 -316 q0 -20 5.5 -25 q5.5 -5 24.5 -5 l233 0 q62 0 91.5 39.5 q29.5 39.5 29.5 96.5 l0 25 l8 0 Z" /><glyph glyph-name="ecaron" unicode="&#x11b;" d="M272 548 l-9 0 q-24 39 -69.5 86.5 q-45.5 47.5 -82.5 67.5 l4 8 q105 -43 152 -82 q49 40 152 82 l4 -8 q-37 -19 -81.5 -66.5 q-44.5 -47.5 -69.5 -87.5 ZM285 -1 q120 0 179 100 l5 -7 q-61 -102 -194 -102 q-113 0 -173.5 73.5 q-60.5 73.5 -60.5 186.5 q0 113 60 186.5 q60 73.5 172 73.5 q50 0 88 -16.5 q38 -16.5 58 -40 q20 -23.5 32.5 -56 q12.5 -32.5 16 -58 q3.5 -25.5 3.5 -52.5 l-350 0 q-1 -12 -1 -37 q0 -119 43.5 -185 q43.5 -66 121.5 -66 ZM273 502 q-66 0 -104.5 -55 q-38.5 -55 -46.5 -152 l269 0 q0 29 -1 50 q-1 21 -7.5 53 q-6.5 32 -18 52.5 q-11.5 20.5 -35 36 q-23.5 15.5 -56.5 15.5 Z" /><glyph glyph-name="Gbreve" unicode="&#x11e;" d="M547 893 l8 0 q-22 -143 -136 -143 q-109 0 -131 143 l8 0 q16 -90 123 -90 q62 0 92 26.5 q30 26.5 36 63.5 ZM422 710 q55 0 106 -15 q51 -15 83 -30 q32 -15 38 -15 q11 0 11 15 l0 35 l8 0 l0 -182 l-8 0 l-2 10 q-22 93 -81 133.5 q-59 40.5 -155 40.5 q-118 0 -195.5 -100 q-77.5 -100 -77.5 -252 q0 -153 76 -252.5 q76 -99.5 193 -99.5 q102 0 153.5 47.5 q51.5 47.5 51.5 150.5 l0 116 q0 20 -5.5 25 q-5.5 5 -24.5 5 l-35 0 l0 8 l210 0 l0 -8 l-35 0 q-19 0 -24.5 -5 q-5.5 -5 -5.5 -25 l0 -102 q0 -94 -80 -157 q-80 -63 -205 -63 q-148 0 -249 102.5 q-101 102.5 -101 257.5 q0 154 103 257 q103 103 251 103 Z" /><glyph glyph-name="gbreve" unicode="&#x11f;" d="M241 550 q-109 0 -131 143 l8 0 q16 -90 123 -90 q62 0 92 26.5 q30 26.5 36 63.5 l8 0 q-22 -143 -136 -143 ZM328 88 q77 0 118.5 -37.5 q41.5 -37.5 41.5 -95.5 q0 -82 -78.5 -143.5 q-78.5 -61.5 -187.5 -61.5 q-96 0 -154 37.5 q-58 37.5 -58 102.5 q0 39 31.5 70 q31.5 31 79.5 48 q-39 10 -61 37.5 q-22 27.5 -22 65.5 q0 67 70 116 q-48 45 -48 118 q0 75 50 120 q50 45 131 45 q45 0 85 -16 q49 44 99 44 q57 0 57 -39 q0 -12 -8 -20 q-8 -8 -21 -8 q-17 0 -24.5 12.5 q-7.5 12.5 -13.5 25.5 q-6 13 -18 13 q-25 0 -63 -32 q89 -42 89 -145 q0 -75 -50 -120 q-50 -45 -131 -45 q-79 0 -129 42 q-56 -40 -56 -81 q0 -37 26 -50 q26 -13 83 -13 q39 0 86.5 5 q47.5 5 75.5 5 ZM242 502 q-52 0 -79.5 -42 q-27.5 -42 -27.5 -115 q0 -72 28 -114.5 q28 -42.5 79 -42.5 q51 0 78.5 42.5 q27.5 42.5 27.5 114.5 q0 73 -27.5 115 q-27.5 42 -78.5 42 ZM222 -242 q100 0 154 46.5 q54 46.5 54 103.5 q0 103 -111 103 q-37 0 -83 -4 q-46 -4 -70 -4 q-17 0 -32 3 q-76 -27 -76 -119 q0 -52 43 -90.5 q43 -38.5 121 -38.5 Z" /><glyph glyph-name="Gdotaccent" unicode="&#x120;" d="M385.5 857.5 q14.5 14.5 34.5 14.5 q20 0 34 -14.5 q14 -14.5 14 -34.5 q0 -19 -14 -33.5 q-14 -14.5 -34 -14.5 q-20 0 -34.5 14 q-14.5 14 -14.5 34 q0 20 14.5 34.5 ZM422 710 q55 0 106 -15 q51 -15 83 -30 q32 -15 38 -15 q11 0 11 15 l0 35 l8 0 l0 -182 l-8 0 l-2 10 q-22 93 -81 133.5 q-59 40.5 -155 40.5 q-118 0 -195.5 -100 q-77.5 -100 -77.5 -252 q0 -153 76 -252.5 q76 -99.5 193 -99.5 q102 0 153.5 47.5 q51.5 47.5 51.5 150.5 l0 116 q0 20 -5.5 25 q-5.5 5 -24.5 5 l-35 0 l0 8 l210 0 l0 -8 l-35 0 q-19 0 -24.5 -5 q-5.5 -5 -5.5 -25 l0 -102 q0 -94 -80 -157 q-80 -63 -205 -63 q-148 0 -249 102.5 q-101 102.5 -101 257.5 q0 154 103 257 q103 103 251 103 Z" /><glyph glyph-name="gdotaccent" unicode="&#x121;" d="M276 589.5 q-14 -14.5 -34 -14.5 q-20 0 -34.5 14 q-14.5 14 -14.5 34 q0 20 14.5 34.5 q14.5 14.5 34.5 14.5 q20 0 34 -14.5 q14 -14.5 14 -34.5 q0 -19 -14 -33.5 ZM328 88 q77 0 118.5 -37.5 q41.5 -37.5 41.5 -95.5 q0 -82 -78.5 -143.5 q-78.5 -61.5 -187.5 -61.5 q-96 0 -154 37.5 q-58 37.5 -58 102.5 q0 39 31.5 70 q31.5 31 79.5 48 q-39 10 -61 37.5 q-22 27.5 -22 65.5 q0 67 70 116 q-48 45 -48 118 q0 75 50 120 q50 45 131 45 q45 0 85 -16 q49 44 99 44 q57 0 57 -39 q0 -12 -8 -20 q-8 -8 -21 -8 q-17 0 -24.5 12.5 q-7.5 12.5 -13.5 25.5 q-6 13 -18 13 q-25 0 -63 -32 q89 -42 89 -145 q0 -75 -50 -120 q-50 -45 -131 -45 q-79 0 -129 42 q-56 -40 -56 -81 q0 -37 26 -50 q26 -13 83 -13 q39 0 86.5 5 q47.5 5 75.5 5 ZM242 502 q-52 0 -79.5 -42 q-27.5 -42 -27.5 -115 q0 -72 28 -114.5 q28 -42.5 79 -42.5 q51 0 78.5 42.5 q27.5 42.5 27.5 114.5 q0 73 -27.5 115 q-27.5 42 -78.5 42 ZM222 -242 q100 0 154 46.5 q54 46.5 54 103.5 q0 103 -111 103 q-37 0 -83 -4 q-46 -4 -70 -4 q-17 0 -32 3 q-76 -27 -76 -119 q0 -52 43 -90.5 q43 -38.5 121 -38.5 Z" /><glyph glyph-name="Gcommaaccent" unicode="&#x122;" d="M422 710 q55 0 106 -15 q51 -15 83 -30 q32 -15 38 -15 q11 0 11 15 l0 35 l8 0 l0 -182 l-8 0 l-2 10 q-22 93 -81 133.5 q-59 40.5 -155 40.5 q-118 0 -195.5 -100 q-77.5 -100 -77.5 -252 q0 -153 76 -252.5 q76 -99.5 193 -99.5 q102 0 153.5 47.5 q51.5 47.5 51.5 150.5 l0 116 q0 20 -5.5 25 q-5.5 5 -24.5 5 l-35 0 l0 8 l210 0 l0 -8 l-35 0 q-19 0 -24.5 -5 q-5.5 -5 -5.5 -25 l0 -102 q0 -94 -80 -157 q-80 -63 -205 -63 q-148 0 -249 102.5 q-101 102.5 -101 257.5 q0 154 103 257 q103 103 251 103 ZM418 -59 q40 0 40 -54 q0 -48 -21.5 -73 q-21.5 -25 -53.5 -25 l0 8 q23 0 39.5 15 q16.5 15 16.5 32 q0 17 -21 17 q-18 0 -29 11 q-11 11 -11 29 q0 17 11 28.5 q11 11.5 29 11.5 Z" /><glyph glyph-name="gcommaaccent" unicode="&#x123;" d="M242 553 q-40 0 -40 54 q0 48 21.5 73 q21.5 25 53.5 25 l0 -8 q-23 0 -39.5 -15 q-16.5 -15 -16.5 -32 q0 -17 21 -17 q18 0 29 -11 q11 -11 11 -29 q0 -17 -11 -28.5 q-11 -11.5 -29 -11.5 ZM328 88 q77 0 118.5 -37.5 q41.5 -37.5 41.5 -95.5 q0 -82 -78.5 -143.5 q-78.5 -61.5 -187.5 -61.5 q-96 0 -154 37.5 q-58 37.5 -58 102.5 q0 39 31.5 70 q31.5 31 79.5 48 q-39 10 -61 37.5 q-22 27.5 -22 65.5 q0 67 70 116 q-48 45 -48 118 q0 75 50 120 q50 45 131 45 q45 0 85 -16 q49 44 99 44 q57 0 57 -39 q0 -12 -8 -20 q-8 -8 -21 -8 q-17 0 -24.5 12.5 q-7.5 12.5 -13.5 25.5 q-6 13 -18 13 q-25 0 -63 -32 q89 -42 89 -145 q0 -75 -50 -120 q-50 -45 -131 -45 q-79 0 -129 42 q-56 -40 -56 -81 q0 -37 26 -50 q26 -13 83 -13 q39 0 86.5 5 q47.5 5 75.5 5 ZM242 502 q-52 0 -79.5 -42 q-27.5 -42 -27.5 -115 q0 -72 28 -114.5 q28 -42.5 79 -42.5 q51 0 78.5 42.5 q27.5 42.5 27.5 114.5 q0 73 -27.5 115 q-27.5 42 -78.5 42 ZM222 -242 q100 0 154 46.5 q54 46.5 54 103.5 q0 103 -111 103 q-37 0 -83 -4 q-46 -4 -70 -4 q-17 0 -32 3 q-76 -27 -76 -119 q0 -52 43 -90.5 q43 -38.5 121 -38.5 Z" /><glyph glyph-name="Hbar" unicode="&#x126;" d="M760 692 l-35 0 q-19 0 -24.5 -5 q-5.5 -5 -5.5 -25 l0 -146 l65 0 l0 -12 l-65 0 l0 -466 q0 -20 5.5 -25 q5.5 -5 24.5 -5 l35 0 l0 -8 l-210 0 l0 8 l35 0 q19 0 24.5 5 q5.5 5 5.5 25 l0 320 l-422 0 l0 -320 q0 -20 5.5 -25 q5.5 -5 24.5 -5 l35 0 l0 -8 l-210 0 l0 8 l35 0 q19 0 24.5 5 q5.5 5 5.5 25 l0 466 l-65 0 l0 12 l65 0 l0 146 q0 20 -5.5 25 q-5.5 5 -24.5 5 l-35 0 l0 8 l210 0 l0 -8 l-35 0 q-19 0 -24.5 -5 q-5.5 -5 -5.5 -25 l0 -146 l422 0 l0 146 q0 20 -5.5 25 q-5.5 5 -24.5 5 l-35 0 l0 8 l210 0 l0 -8 ZM615 504 l-422 0 l0 -138 l422 0 l0 138 Z" /><glyph glyph-name="hbar" unicode="&#x127;" d="M573 8 l0 -8 l-209 0 l0 8 l35 0 q19 0 24.5 5 q5.5 5 5.5 25 l0 308 q0 70 -27.5 110.5 q-27.5 40.5 -83.5 40.5 q-65 0 -105.5 -60 q-40.5 -60 -40.5 -153 l0 -246 q0 -20 5 -25 q5 -5 25 -5 l35 0 l0 -8 l-209 0 l0 8 l35 0 q19 0 24.5 5 q5.5 5 5.5 25 l0 567 l-65 0 l0 12 l65 0 l0 73 q0 20 -6.5 27 q-6.5 7 -23.5 3 l-35 -8 l0 8 l144 30 l0 -133 l87 0 l0 -12 l-87 0 l0 -247 q14 76 60.5 114 q46.5 38 101.5 38 q83 0 128.5 -45.5 q45.5 -45.5 45.5 -127.5 l0 -299 q0 -20 5 -25 q5 -5 25 -5 l35 0 Z" /><glyph glyph-name="Imacron" unicode="&#x12a;" d="M281 802 l-258 0 l0 12 l258 0 l0 -12 ZM258 692 l-35 0 q-19 0 -24.5 -5 q-5.5 -5 -5.5 -25 l0 -624 q0 -20 5.5 -25 q5.5 -5 24.5 -5 l35 0 l0 -8 l-210 0 l0 8 l35 0 q19 0 24.5 5 q5.5 5 5.5 25 l0 624 q0 20 -5.5 25 q-5.5 5 -24.5 5 l-35 0 l0 8 l210 0 l0 -8 Z" /><glyph glyph-name="imacron" unicode="&#x12b;" d="M261 602 l-258 0 l0 12 l258 0 l0 -12 ZM172 500 l0 -462 q0 -20 5 -25 q5 -5 25 -5 l35 0 l0 -8 l-209 0 l0 8 l35 0 q19 0 24.5 5 q5.5 5 5.5 25 l0 402 q0 20 -6.5 27 q-6.5 7 -23.5 3 l-35 -8 l0 8 l144 30 Z" /><glyph glyph-name="Iogonek" unicode="&#x12e;" d="M258 692 l-35 0 q-19 0 -24.5 -5 q-5.5 -5 -5.5 -25 l0 -624 q0 -20 5.5 -25 q5.5 -5 24.5 -5 l35 0 l0 -8 l-77 0 q-30 -26 -51 -63 q-21 -37 -21 -67 q0 -27 14.5 -42.5 q14.5 -15.5 40.5 -15.5 q31 0 55 20 l1 -7 q-31 -29 -77 -29 q-32 0 -54.5 17.5 q-22.5 17.5 -22.5 50.5 q0 64 107 136 l-125 0 l0 8 l35 0 q19 0 24.5 5 q5.5 5 5.5 25 l0 624 q0 20 -5.5 25 q-5.5 5 -24.5 5 l-35 0 l0 8 l210 0 l0 -8 Z" /><glyph glyph-name="iogonek" unicode="&#x12f;" d="M133 575 q-20 0 -34.5 14 q-14.5 14 -14.5 34 q0 20 14.5 34.5 q14.5 14.5 34.5 14.5 q20 0 34 -14.5 q14 -14.5 14 -34.5 q0 -19 -14.5 -33.5 q-14.5 -14.5 -33.5 -14.5 ZM272 -165 l1 -7 q-31 -29 -77 -29 q-32 0 -54.5 17.5 q-22.5 17.5 -22.5 50.5 q0 62 103 133 l-194 0 l0 8 l35 0 q19 0 24.5 5 q5.5 5 5.5 25 l0 402 q0 20 -6.5 27 q-6.5 7 -23.5 3 l-35 -8 l0 8 l144 30 l0 -462 q0 -20 5 -25 q5 -5 25 -5 l35 0 l0 -8 l-6 0 q-29 -26 -49 -61.5 q-20 -35.5 -20 -65.5 q0 -27 14.5 -42.5 q14.5 -15.5 40.5 -15.5 q31 0 55 20 Z" /><glyph glyph-name="Idotaccent" unicode="&#x130;" d="M118.5 857.5 q14.5 14.5 34.5 14.5 q20 0 34 -14.5 q14 -14.5 14 -34.5 q0 -19 -14.5 -33.5 q-14.5 -14.5 -33.5 -14.5 q-20 0 -34.5 14 q-14.5 14 -14.5 34 q0 20 14.5 34.5 ZM258 692 l-35 0 q-19 0 -24.5 -5 q-5.5 -5 -5.5 -25 l0 -624 q0 -20 5.5 -25 q5.5 -5 24.5 -5 l35 0 l0 -8 l-210 0 l0 8 l35 0 q19 0 24.5 5 q5.5 5 5.5 25 l0 624 q0 20 -5.5 25 q-5.5 5 -24.5 5 l-35 0 l0 8 l210 0 l0 -8 Z" /><glyph glyph-name="dotlessi" unicode="&#x131;" d="M172 500 l0 -462 q0 -20 5 -25 q5 -5 25 -5 l35 0 l0 -8 l-209 0 l0 8 l35 0 q19 0 24.5 5 q5.5 5 5.5 25 l0 402 q0 20 -6.5 27 q-6.5 7 -23.5 3 l-35 -8 l0 8 l144 30 Z" /><glyph glyph-name="IJ" unicode="&#x132;" d="M258 692 l-35 0 q-19 0 -24.5 -5 q-5.5 -5 -5.5 -25 l0 -624 q0 -20 5.5 -25 q5.5 -5 24.5 -5 l35 0 l0 -8 l-210 0 l0 8 l35 0 q19 0 24.5 5 q5.5 5 5.5 25 l0 624 q0 20 -5.5 25 q-5.5 5 -24.5 5 l-35 0 l0 8 l210 0 l0 -8 ZM648 692 l-35 0 q-19 0 -24.5 -5 q-5.5 -5 -5.5 -25 l0 -463 q0 -106 -44.5 -157.5 q-44.5 -51.5 -118.5 -51.5 q-52 0 -81.5 27 q-29.5 27 -29.5 55 q0 16 9.5 26 q9.5 10 25.5 10 q16 0 25.5 -9.5 q9.5 -9.5 9.5 -23.5 q0 -9 -6.5 -23 q-6.5 -14 -6.5 -20 q0 -34 54 -34 q45 0 64 38 q19 38 19 128 l0 498 q0 20 -5.5 25 q-5.5 5 -24.5 5 l-35 0 l0 8 l210 0 l0 -8 Z" /><glyph glyph-name="ij" unicode="&#x133;" d="M98.5 657.5 q14.5 14.5 34.5 14.5 q20 0 34 -14.5 q14 -14.5 14 -34.5 q0 -19 -14.5 -33.5 q-14.5 -14.5 -33.5 -14.5 q-20 0 -34.5 14 q-14.5 14 -14.5 34 q0 20 14.5 34.5 ZM357.5 657.5 q14.5 14.5 34.5 14.5 q20 0 34 -14.5 q14 -14.5 14 -34.5 q0 -19 -14 -33.5 q-14 -14.5 -34 -14.5 q-20 0 -34.5 14 q-14.5 14 -14.5 34 q0 20 14.5 34.5 ZM172 500 l0 -462 q0 -20 5 -25 q5 -5 25 -5 l35 0 l0 -8 l-209 0 l0 8 l35 0 q19 0 24.5 5 q5.5 5 5.5 25 l0 402 q0 20 -6.5 27 q-6.5 7 -23.5 3 l-35 -8 l0 8 l144 30 ZM432 500 l0 -597 q0 -72 -38.5 -112.5 q-38.5 -40.5 -104.5 -40.5 q-42 0 -69 17 q-27 17 -27 41 q0 15 9.5 24.5 q9.5 9.5 25.5 9.5 q16 0 25.5 -9.5 q9.5 -9.5 9.5 -23.5 q0 -8 -5 -18.5 q-5 -10.5 -5 -15.5 q0 -17 36 -17 q37 0 50.5 27 q13.5 27 13.5 81 l0 574 q0 20 -6.5 27 q-6.5 7 -23.5 3 l-35 -8 l0 8 l144 30 Z" /><glyph glyph-name="Kcommaaccent" unicode="&#x136;" d="M258 692 l-35 0 q-19 0 -24.5 -5 q-5.5 -5 -5.5 -25 l0 -624 q0 -20 5.5 -25 q5.5 -5 24.5 -5 l35 0 l0 -8 l-210 0 l0 8 l35 0 q19 0 24.5 5 q5.5 5 5.5 25 l0 624 q0 20 -5.5 25 q-5.5 5 -24.5 5 l-35 0 l0 8 l210 0 l0 -8 ZM635 692 l-52 0 q-33 0 -61 -29 l-262 -272 l331 -353 q16 -18 26.5 -24 q10.5 -6 28.5 -6 l39 0 l0 -8 l-266 0 l0 8 l50 0 q17 0 22.5 8 q5.5 8 -7.5 22 l-286 301 l313 324 q11 12 5.5 20.5 q-5.5 8.5 -20.5 8.5 l-73 0 l0 8 l212 0 l0 -8 ZM343 -53 q40 0 40 -54 q0 -48 -21.5 -73 q-21.5 -25 -53.5 -25 l0 8 q23 0 39.5 15 q16.5 15 16.5 32 q0 17 -21 17 q-18 0 -29 11 q-11 11 -11 29 q0 17 11 28.5 q11 11.5 29 11.5 Z" /><glyph glyph-name="kcommaaccent" unicode="&#x137;" d="M172 750 l0 -712 q0 -20 5 -25 q5 -5 25 -5 l35 0 l0 -8 l-209 0 l0 8 l35 0 q19 0 24.5 5 q5.5 5 5.5 25 l0 652 q0 20 -6.5 27 q-6.5 7 -23.5 3 l-35 -8 l0 8 l144 30 ZM557 492 l-45 0 q-26 0 -40 -6 q-14 -6 -36 -24 l-189 -156 l233 -268 q26 -30 62 -30 l32 0 l0 -8 l-254 0 l0 8 l52 0 q16 0 21 9 q5 9 -6 21 l-207 222 l243 202 q12 12 6 21 q-6 9 -21 9 l-70 0 l0 8 l219 0 l0 -8 ZM283 -53 q40 0 40 -54 q0 -48 -21.5 -73 q-21.5 -25 -53.5 -25 l0 8 q23 0 39.5 15 q16.5 15 16.5 32 q0 17 -21 17 q-18 0 -29 11 q-11 11 -11 29 q0 17 11 28.5 q11 11.5 29 11.5 Z" /><glyph glyph-name="Lacute" unicode="&#x139;" d="M263 911 q15 0 25 -9.5 q10 -9.5 10 -26.5 q0 -9 -3.5 -17.5 q-3.5 -8.5 -12.5 -17 q-9 -8.5 -16.5 -15.5 q-7.5 -7 -22.5 -15 q-15 -8 -24.5 -13.5 q-9.5 -5.5 -27.5 -13.5 q-18 -8 -26 -11.5 q-8 -3.5 -26.5 -11 q-18.5 -7.5 -22.5 -9.5 l-3 6 q69 33 96 104 q19 50 54 50 ZM258 692 l-35 0 q-19 0 -24.5 -5 q-5.5 -5 -5.5 -25 l0 -624 q0 -20 5.5 -25 q5.5 -5 24.5 -5 l188 0 q62 0 91.5 39.5 q29.5 39.5 29.5 96.5 l0 25 l8 0 l0 -169 l-492 0 l0 8 l35 0 q19 0 24.5 5 q5.5 5 5.5 25 l0 624 q0 20 -5.5 25 q-5.5 5 -24.5 5 l-35 0 l0 8 l210 0 l0 -8 Z" /><glyph glyph-name="lacute" unicode="&#x13a;" d="M243 950 q15 0 25 -9.5 q10 -9.5 10 -26.5 q0 -9 -3.5 -17.5 q-3.5 -8.5 -12.5 -17 q-9 -8.5 -16.5 -15.5 q-7.5 -7 -22.5 -15 q-15 -8 -24.5 -13.5 q-9.5 -5.5 -27.5 -13.5 q-18 -8 -26 -11.5 q-8 -3.5 -26.5 -11 q-18.5 -7.5 -22.5 -9.5 l-3 6 q69 33 96 104 q19 50 54 50 ZM172 750 l0 -712 q0 -20 5 -25 q5 -5 25 -5 l35 0 l0 -8 l-209 0 l0 8 l35 0 q19 0 24.5 5 q5.5 5 5.5 25 l0 652 q0 20 -6.5 27 q-6.5 7 -23.5 3 l-35 -8 l0 8 l144 30 Z" /><glyph glyph-name="Lcommaaccent" unicode="&#x13b;" d="M258 692 l-35 0 q-19 0 -24.5 -5 q-5.5 -5 -5.5 -25 l0 -624 q0 -20 5.5 -25 q5.5 -5 24.5 -5 l188 0 q62 0 91.5 39.5 q29.5 39.5 29.5 96.5 l0 25 l8 0 l0 -169 l-492 0 l0 8 l35 0 q19 0 24.5 5 q5.5 5 5.5 25 l0 624 q0 20 -5.5 25 q-5.5 5 -24.5 5 l-35 0 l0 8 l210 0 l0 -8 ZM294 -53 q40 0 40 -54 q0 -48 -21.5 -73 q-21.5 -25 -53.5 -25 l0 8 q23 0 39.5 15 q16.5 15 16.5 32 q0 17 -21 17 q-18 0 -29 11 q-11 11 -11 29 q0 17 11 28.5 q11 11.5 29 11.5 Z" /><glyph glyph-name="lcommaaccent" unicode="&#x13c;" d="M172 750 l0 -712 q0 -20 5 -25 q5 -5 25 -5 l35 0 l0 -8 l-209 0 l0 8 l35 0 q19 0 24.5 5 q5.5 5 5.5 25 l0 652 q0 20 -6.5 27 q-6.5 7 -23.5 3 l-35 -8 l0 8 l144 30 ZM132 -53 q40 0 40 -54 q0 -48 -21.5 -73 q-21.5 -25 -53.5 -25 l0 8 q23 0 39.5 15 q16.5 15 16.5 32 q0 17 -21 17 q-18 0 -29 11 q-11 11 -11 29 q0 17 11 28.5 q11 11.5 29 11.5 Z" /><glyph glyph-name="Lcaron" unicode="&#x13d;" d="M360 710 q40 0 40 -53 q0 -91 -72 -137 l-5 6 q24 16 40.5 40 q16.5 24 16.5 44 q0 20 -21 20 q-18 0 -28.5 11.5 q-10.5 11.5 -10.5 28.5 q0 17 11 28.5 q11 11.5 29 11.5 ZM258 692 l-35 0 q-19 0 -24.5 -5 q-5.5 -5 -5.5 -25 l0 -624 q0 -20 5.5 -25 q5.5 -5 24.5 -5 l188 0 q62 0 91.5 39.5 q29.5 39.5 29.5 96.5 l0 25 l8 0 l0 -169 l-492 0 l0 8 l35 0 q19 0 24.5 5 q5.5 5 5.5 25 l0 624 q0 20 -5.5 25 q-5.5 5 -24.5 5 l-35 0 l0 8 l210 0 l0 -8 Z" /><glyph glyph-name="lcaron" unicode="&#x13e;" d="M172 750 l0 -712 q0 -20 5 -25 q5 -5 25 -5 l35 0 l0 -8 l-209 0 l0 8 l35 0 q19 0 24.5 5 q5.5 5 5.5 25 l0 652 q0 20 -6.5 27 q-6.5 7 -23.5 3 l-35 -8 l0 8 l144 30 ZM260 750 q40 0 40 -53 q0 -91 -72 -137 l-5 6 q24 16 40.5 40 q16.5 24 16.5 44 q0 20 -21 20 q-18 0 -28.5 11.5 q-10.5 11.5 -10.5 28.5 q0 17 11 28.5 q11 11.5 29 11.5 Z" /><glyph glyph-name="Ldot" unicode="&#x13f;" d="M258 692 l-35 0 q-19 0 -24.5 -5 q-5.5 -5 -5.5 -25 l0 -624 q0 -20 5.5 -25 q5.5 -5 24.5 -5 l188 0 q62 0 91.5 39.5 q29.5 39.5 29.5 96.5 l0 25 l8 0 l0 -169 l-492 0 l0 8 l35 0 q19 0 24.5 5 q5.5 5 5.5 25 l0 624 q0 20 -5.5 25 q-5.5 5 -24.5 5 l-35 0 l0 8 l210 0 l0 -8 ZM329 367.5 q11 11.5 29 11.5 q18 0 29 -11.5 q11 -11.5 11 -28.5 q0 -17 -11 -28.5 q-11 -11.5 -29 -11.5 q-18 0 -29 11.5 q-11 11.5 -11 28.5 q0 17 11 28.5 Z" /><glyph glyph-name="ldot" unicode="&#x140;" d="M172 750 l0 -712 q0 -20 5 -25 q5 -5 25 -5 l35 0 l0 -8 l-209 0 l0 8 l35 0 q19 0 24.5 5 q5.5 5 5.5 25 l0 652 q0 20 -6.5 27 q-6.5 7 -23.5 3 l-35 -8 l0 8 l144 30 ZM241 367.5 q11 11.5 29 11.5 q18 0 29 -11.5 q11 -11.5 11 -28.5 q0 -17 -11 -28.5 q-11 -11.5 -29 -11.5 q-18 0 -29 11.5 q-11 11.5 -11 28.5 q0 17 11 28.5 Z" /><glyph glyph-name="Lslash" unicode="&#x141;" d="M540 169 l0 -169 l-492 0 l0 8 l35 0 q19 0 24.5 5 q5.5 5 5.5 25 l0 278 l-65 -22 l0 12 l65 22 l0 334 q0 20 -5.5 25 q-5.5 5 -24.5 5 l-35 0 l0 8 l210 0 l0 -8 l-35 0 q-19 0 -24.5 -5 q-5.5 -5 -5.5 -25 l0 -308 l155 52 l0 -12 l-155 -52 l0 -304 q0 -20 5.5 -25 q5.5 -5 24.5 -5 l188 0 q62 0 91.5 39.5 q29.5 39.5 29.5 96.5 l0 25 l8 0 Z" /><glyph glyph-name="lslash" unicode="&#x142;" d="M172 363 l0 -325 q0 -20 5 -25 q5 -5 25 -5 l35 0 l0 -8 l-209 0 l0 8 l35 0 q19 0 24.5 5 q5.5 5 5.5 25 l0 287 l-65 -31 l0 12 l65 31 l0 353 q0 20 -6.5 27 q-6.5 7 -23.5 3 l-35 -8 l0 8 l144 30 l0 -375 l65 31 l0 -12 l-65 -31 Z" /><glyph glyph-name="Nacute" unicode="&#x143;" d="M480 910 q15 0 25 -9.5 q10 -9.5 10 -26.5 q0 -9 -3.5 -17.5 q-3.5 -8.5 -12.5 -17 q-9 -8.5 -16.5 -15.5 q-7.5 -7 -22.5 -15 q-15 -8 -24.5 -13.5 q-9.5 -5.5 -27.5 -13.5 q-18 -8 -26 -11.5 q-8 -3.5 -26.5 -11 q-18.5 -7.5 -22.5 -9.5 l-3 6 q69 33 96 104 q19 50 54 50 ZM700 692 l-38 0 q-20 -1 -25 -6 q-5 -5 -5 -24 l0 -663 l-8 1 l-510 669 l0 -631 q0 -20 5 -25 q5 -5 25 -5 l39 0 l0 -8 l-145 0 l0 8 l38 0 q20 0 25 5 q5 5 5 25 l0 624 q0 20 -5 25 q-5 5 -25 5 l-38 0 l0 8 l153 0 l433 -573 l0 535 q0 20 -5 25 q-5 5 -25 5 l-38 0 l0 8 l144 0 l0 -8 Z" /><glyph glyph-name="nacute" unicode="&#x144;" d="M420 710 q15 0 25 -9.5 q10 -9.5 10 -26.5 q0 -9 -3.5 -17.5 q-3.5 -8.5 -12.5 -17 q-9 -8.5 -16.5 -15.5 q-7.5 -7 -22.5 -15 q-15 -8 -24.5 -13.5 q-9.5 -5.5 -27.5 -13.5 q-18 -8 -26 -11.5 q-8 -3.5 -26.5 -11 q-18.5 -7.5 -22.5 -9.5 l-3 6 q69 33 96 104 q19 50 54 50 ZM334 510 q83 0 128.5 -45.5 q45.5 -45.5 45.5 -127.5 l0 -299 q0 -20 5 -25 q5 -5 25 -5 l35 0 l0 -8 l-209 0 l0 8 l35 0 q19 0 24.5 5 q5.5 5 5.5 25 l0 308 q0 70 -27.5 110.5 q-27.5 40.5 -83.5 40.5 q-65 0 -105.5 -60 q-40.5 -60 -40.5 -153 l0 -246 q0 -20 5 -25 q5 -5 25 -5 l35 0 l0 -8 l-209 0 l0 8 l35 0 q19 0 24.5 5 q5.5 5 5.5 25 l0 402 q0 20 -6.5 27 q-6.5 7 -23.5 3 l-35 -8 l0 8 l144 30 l0 -142 q14 76 60.5 114 q46.5 38 101.5 38 Z" /><glyph glyph-name="Ncommaaccent" unicode="&#x145;" d="M700 692 l-38 0 q-20 -1 -25 -6 q-5 -5 -5 -24 l0 -663 l-8 1 l-510 669 l0 -631 q0 -20 5 -25 q5 -5 25 -5 l39 0 l0 -8 l-145 0 l0 8 l38 0 q20 0 25 5 q5 5 5 25 l0 624 q0 20 -5 25 q-5 5 -25 5 l-38 0 l0 8 l153 0 l433 -573 l0 535 q0 20 -5 25 q-5 5 -25 5 l-38 0 l0 8 l144 0 l0 -8 ZM369 -53 q40 0 40 -54 q0 -48 -21.5 -73 q-21.5 -25 -53.5 -25 l0 8 q23 0 39.5 15 q16.5 15 16.5 32 q0 17 -21 17 q-18 0 -29 11 q-11 11 -11 29 q0 17 11 28.5 q11 11.5 29 11.5 Z" /><glyph glyph-name="ncommaaccent" unicode="&#x146;" d="M334 510 q83 0 128.5 -45.5 q45.5 -45.5 45.5 -127.5 l0 -299 q0 -20 5 -25 q5 -5 25 -5 l35 0 l0 -8 l-209 0 l0 8 l35 0 q19 0 24.5 5 q5.5 5 5.5 25 l0 308 q0 70 -27.5 110.5 q-27.5 40.5 -83.5 40.5 q-65 0 -105.5 -60 q-40.5 -60 -40.5 -153 l0 -246 q0 -20 5 -25 q5 -5 25 -5 l35 0 l0 -8 l-209 0 l0 8 l35 0 q19 0 24.5 5 q5.5 5 5.5 25 l0 402 q0 20 -6.5 27 q-6.5 7 -23.5 3 l-35 -8 l0 8 l144 30 l0 -142 q14 76 60.5 114 q46.5 38 101.5 38 ZM300 -53 q40 0 40 -54 q0 -48 -21.5 -73 q-21.5 -25 -53.5 -25 l0 8 q23 0 39.5 15 q16.5 15 16.5 32 q0 17 -21 17 q-18 0 -29 11 q-11 11 -11 29 q0 17 11 28.5 q11 11.5 29 11.5 Z" /><glyph glyph-name="Ncaron" unicode="&#x147;" d="M521 910 l4 -8 q-37 -19 -81.5 -66.5 q-44.5 -47.5 -69.5 -87.5 l-9 0 q-24 39 -69.5 86.5 q-45.5 47.5 -82.5 67.5 l4 8 q105 -43 152 -82 q49 40 152 82 ZM700 692 l-38 0 q-20 -1 -25 -6 q-5 -5 -5 -24 l0 -663 l-8 1 l-510 669 l0 -631 q0 -20 5 -25 q5 -5 25 -5 l39 0 l0 -8 l-145 0 l0 8 l38 0 q20 0 25 5 q5 5 5 25 l0 624 q0 20 -5 25 q-5 5 -25 5 l-38 0 l0 8 l153 0 l433 -573 l0 535 q0 20 -5 25 q-5 5 -25 5 l-38 0 l0 8 l144 0 l0 -8 Z" /><glyph glyph-name="ncaron" unicode="&#x148;" d="M461 710 l4 -8 q-37 -19 -81.5 -66.5 q-44.5 -47.5 -69.5 -87.5 l-9 0 q-24 39 -69.5 86.5 q-45.5 47.5 -82.5 67.5 l4 8 q105 -43 152 -82 q49 40 152 82 ZM334 510 q83 0 128.5 -45.5 q45.5 -45.5 45.5 -127.5 l0 -299 q0 -20 5 -25 q5 -5 25 -5 l35 0 l0 -8 l-209 0 l0 8 l35 0 q19 0 24.5 5 q5.5 5 5.5 25 l0 308 q0 70 -27.5 110.5 q-27.5 40.5 -83.5 40.5 q-65 0 -105.5 -60 q-40.5 -60 -40.5 -153 l0 -246 q0 -20 5 -25 q5 -5 25 -5 l35 0 l0 -8 l-209 0 l0 8 l35 0 q19 0 24.5 5 q5.5 5 5.5 25 l0 402 q0 20 -6.5 27 q-6.5 7 -23.5 3 l-35 -8 l0 8 l144 30 l0 -142 q14 76 60.5 114 q46.5 38 101.5 38 Z" /><glyph glyph-name="Eng" unicode="&#x14a;" d="M700 700 l0 -8 l-38 0 q-20 -1 -25 -6 q-5 -5 -5 -24 l0 -734 q0 -87 -45 -132.5 q-45 -45.5 -115 -45.5 q-42 0 -69 17 q-27 17 -27 41 q0 15 10 24.5 q10 9.5 25 9.5 q16 0 25.5 -9 q9.5 -9 9.5 -23 q0 -8 -5 -19 q-5 -11 -5 -16 q0 -17 36 -17 q67 0 109.5 43.5 q42.5 43.5 42.5 126.5 l0 72 l-510 669 l0 -631 q0 -20 5 -25 q5 -5 25 -5 l39 0 l0 -8 l-145 0 l0 8 l38 0 q20 0 25 5 q5 5 5 25 l0 624 q0 20 -5 25 q-5 5 -25 5 l-38 0 l0 8 l153 0 l433 -573 l0 535 q0 20 -5 25 q-5 5 -25 5 l-38 0 l0 8 l144 0 Z" /><glyph glyph-name="eng" unicode="&#x14b;" d="M334 510 q83 0 128.5 -45.5 q45.5 -45.5 45.5 -127.5 l0 -434 q0 -72 -38.5 -112.5 q-38.5 -40.5 -104.5 -40.5 q-42 0 -69 17 q-27 17 -27 41 q0 15 9.5 24.5 q9.5 9.5 25.5 9.5 q16 0 25.5 -9.5 q9.5 -9.5 9.5 -23.5 q0 -8 -5 -18.5 q-5 -10.5 -5 -15.5 q0 -17 36 -17 q37 0 50.5 27 q13.5 27 13.5 81 l0 480 q0 70 -27.5 110.5 q-27.5 40.5 -83.5 40.5 q-65 0 -105.5 -60 q-40.5 -60 -40.5 -153 l0 -246 q0 -20 5 -25 q5 -5 25 -5 l35 0 l0 -8 l-209 0 l0 8 l35 0 q19 0 24.5 5 q5.5 5 5.5 25 l0 402 q0 20 -6.5 27 q-6.5 7 -23.5 3 l-35 -8 l0 8 l144 30 l0 -142 q14 76 60.5 114 q46.5 38 101.5 38 Z" /><glyph glyph-name="Omacron" unicode="&#x14c;" d="M551 802 l-258 0 l0 12 l258 0 l0 -12 ZM171 607 q103 103 251 103 q148 0 250.5 -103 q102.5 -103 102.5 -257 q0 -154 -102.5 -257 q-102.5 -103 -250.5 -103 q-148 0 -251 103 q-103 103 -103 257 q0 154 103 257 ZM421 702 q-117 0 -194.5 -100 q-77.5 -100 -77.5 -252 q0 -152 77.5 -252 q77.5 -100 194.5 -100 q118 0 195.5 100 q77.5 100 77.5 252 q0 152 -77.5 252 q-77.5 100 -195.5 100 Z" /><glyph glyph-name="omacron" unicode="&#x14d;" d="M404 602 l-258 0 l0 12 l258 0 l0 -12 ZM101.5 436.5 q60.5 73.5 173.5 73.5 q113 0 173.5 -73.5 q60.5 -73.5 60.5 -186.5 q0 -113 -60.5 -186.5 q-60.5 -73.5 -173.5 -73.5 q-113 0 -173.5 73.5 q-60.5 73.5 -60.5 186.5 q0 113 60.5 186.5 ZM390 434.5 q-40 67.5 -115 67.5 q-75 0 -115 -67.5 q-40 -67.5 -40 -184.5 q0 -117 40 -184.5 q40 -67.5 115 -67.5 q75 0 115 67.5 q40 67.5 40 184.5 q0 117 -40 184.5 Z" /><glyph glyph-name="Ohungarumlaut" unicode="&#x150;" d="M467 910 q15 0 25 -9.5 q10 -9.5 10 -26.5 q0 -9 -3.5 -17.5 q-3.5 -8.5 -12.5 -17 q-9 -8.5 -16.5 -15.5 q-7.5 -7 -22.5 -15 q-15 -8 -24.5 -13.5 q-9.5 -5.5 -27.5 -13.5 q-18 -8 -26 -11.5 q-8 -3.5 -26.5 -11 q-18.5 -7.5 -22.5 -9.5 l-2 4 q67 32 95 106 q19 50 54 50 ZM627 910 q15 0 25 -9.5 q10 -9.5 10 -26.5 q0 -9 -3.5 -17.5 q-3.5 -8.5 -12.5 -17 q-9 -8.5 -16.5 -15.5 q-7.5 -7 -22.5 -15 q-15 -8 -24.5 -13.5 q-9.5 -5.5 -27.5 -13.5 q-18 -8 -26 -11.5 q-8 -3.5 -26.5 -11 q-18.5 -7.5 -22.5 -9.5 l-2 4 q67 32 95 106 q19 50 54 50 ZM171 607 q103 103 251 103 q148 0 250.5 -103 q102.5 -103 102.5 -257 q0 -154 -102.5 -257 q-102.5 -103 -250.5 -103 q-148 0 -251 103 q-103 103 -103 257 q0 154 103 257 ZM421 702 q-117 0 -194.5 -100 q-77.5 -100 -77.5 -252 q0 -152 77.5 -252 q77.5 -100 194.5 -100 q118 0 195.5 100 q77.5 100 77.5 252 q0 152 -77.5 252 q-77.5 100 -195.5 100 Z" /><glyph glyph-name="ohungarumlaut" unicode="&#x151;" d="M321 710 q15 0 25 -9.5 q10 -9.5 10 -26.5 q0 -9 -3.5 -17.5 q-3.5 -8.5 -12.5 -17 q-9 -8.5 -16.5 -15.5 q-7.5 -7 -22.5 -15 q-15 -8 -24.5 -13.5 q-9.5 -5.5 -27.5 -13.5 q-18 -8 -26 -11.5 q-8 -3.5 -26.5 -11 q-18.5 -7.5 -22.5 -9.5 l-2 4 q67 32 95 106 q19 50 54 50 ZM481 710 q15 0 25 -9.5 q10 -9.5 10 -26.5 q0 -9 -3.5 -17.5 q-3.5 -8.5 -12.5 -17 q-9 -8.5 -16.5 -15.5 q-7.5 -7 -22.5 -15 q-15 -8 -24.5 -13.5 q-9.5 -5.5 -27.5 -13.5 q-18 -8 -26 -11.5 q-8 -3.5 -26.5 -11 q-18.5 -7.5 -22.5 -9.5 l-2 4 q67 32 95 106 q19 50 54 50 ZM101.5 436.5 q60.5 73.5 173.5 73.5 q113 0 173.5 -73.5 q60.5 -73.5 60.5 -186.5 q0 -113 -60.5 -186.5 q-60.5 -73.5 -173.5 -73.5 q-113 0 -173.5 73.5 q-60.5 73.5 -60.5 186.5 q0 113 60.5 186.5 ZM390 434.5 q-40 67.5 -115 67.5 q-75 0 -115 -67.5 q-40 -67.5 -40 -184.5 q0 -117 40 -184.5 q40 -67.5 115 -67.5 q75 0 115 67.5 q40 67.5 40 184.5 q0 117 -40 184.5 Z" /><glyph glyph-name="OE" unicode="&#x152;" d="M1168 169 l0 -169 l-473 0 l0 118 q-49 -61 -120 -94.5 q-71 -33.5 -153 -33.5 q-148 0 -251 103 q-103 103 -103 257 q0 154 103 257 q103 103 251 103 q82 0 153 -33.5 q71 -33.5 120 -94.5 l0 118 l448 0 l0 -169 l-8 0 l0 25 q0 59 -29.5 97.5 q-29.5 38.5 -91.5 38.5 l-209 0 q-19 0 -24.5 -5 q-5.5 -5 -5.5 -25 l0 -300 l149 0 q111 0 111 96 l0 27 l8 0 l0 -254 l-8 0 l0 28 q0 95 -111 95 l-149 0 l0 -316 q0 -20 5.5 -25 q5.5 -5 24.5 -5 l234 0 q61 0 91 39.5 q30 39.5 30 96.5 l0 25 l8 0 ZM421 -2 q118 0 195.5 100 q77.5 100 77.5 252 q0 152 -77.5 252 q-77.5 100 -195.5 100 q-117 0 -194.5 -100 q-77.5 -100 -77.5 -252 q0 -152 77.5 -252 q77.5 -100 194.5 -100 Z" /><glyph glyph-name="oe" unicode="&#x153;" d="M674 -1 q120 0 179 100 l5 -7 q-61 -102 -194 -102 q-133 0 -194 103 q-63 -103 -195 -103 q-113 0 -173.5 73.5 q-60.5 73.5 -60.5 186.5 q0 113 60.5 186.5 q60.5 73.5 173.5 73.5 q133 0 194 -102 q63 102 193 102 q50 0 88 -16.5 q38 -16.5 58 -40 q20 -23.5 32.5 -56 q12.5 -32.5 16 -58 q3.5 -25.5 3.5 -52.5 l-350 0 q-1 -12 -1 -37 q0 -119 43.5 -185 q43.5 -66 121.5 -66 ZM160 65.5 q40 -67.5 115 -67.5 q75 0 115 67.5 q40 67.5 40 184.5 q0 117 -40 184.5 q-40 67.5 -115 67.5 q-75 0 -115 -67.5 q-40 -67.5 -40 -184.5 q0 -117 40 -184.5 ZM662 502 q-66 0 -104.5 -55 q-38.5 -55 -46.5 -152 l269 0 q0 29 -1 50 q-1 21 -7.5 53 q-6.5 32 -18 52.5 q-11.5 20.5 -35 36 q-23.5 15.5 -56.5 15.5 Z" /><glyph glyph-name="Racute" unicode="&#x154;" d="M478 874 q0 -9 -3.5 -17.5 q-3.5 -8.5 -12.5 -17 q-9 -8.5 -16.5 -15.5 q-7.5 -7 -22.5 -15 q-15 -8 -24.5 -13.5 q-9.5 -5.5 -27.5 -13.5 q-18 -8 -26 -11.5 q-8 -3.5 -26.5 -11 q-18.5 -7.5 -22.5 -9.5 l-3 6 q69 33 96 104 q19 50 54 50 q15 0 25 -9.5 q10 -9.5 10 -26.5 ZM660 3 q16 0 38 5 l0 -8 q-50 -10 -78 -10 q-65 0 -98 40.5 q-33 40.5 -56 132.5 q-22 92 -53 123.5 q-31 31.5 -90 31.5 l-130 0 l0 -280 q0 -20 5.5 -25 q5.5 -5 24.5 -5 l35 0 l0 -8 l-210 0 l0 8 l35 0 q19 0 24.5 5 q5.5 5 5.5 25 l0 624 q0 20 -5.5 25 q-5.5 5 -24.5 5 l-35 0 l0 8 l291 0 q120 0 177 -52.5 q57 -52.5 57 -137.5 q0 -76 -47 -126.5 q-47 -50.5 -142 -62.5 q134 -20 165 -152 q9 -39 14.5 -58 q5.5 -19 15 -44 q9.5 -25 19.5 -36 q10 -11 25.5 -19.5 q15.5 -8.5 36.5 -8.5 ZM193 326 l136 0 q82 1 122.5 45.5 q40.5 44.5 40.5 138.5 q0 95 -40.5 138.5 q-40.5 43.5 -122.5 43.5 l-136 0 l0 -366 Z" /><glyph glyph-name="racute" unicode="&#x155;" d="M310 710 q15 0 25 -9.5 q10 -9.5 10 -26.5 q0 -9 -3.5 -17.5 q-3.5 -8.5 -12.5 -17 q-9 -8.5 -16.5 -15.5 q-7.5 -7 -22.5 -15 q-15 -8 -24.5 -13.5 q-9.5 -5.5 -27.5 -13.5 q-18 -8 -26 -11.5 q-8 -3.5 -26.5 -11 q-18.5 -7.5 -22.5 -9.5 l-3 6 q69 33 96 104 q19 50 54 50 ZM314 510 q28 0 47 -15 q19 -15 19 -41 q0 -16 -10 -26.5 q-10 -10.5 -26 -10.5 q-17 0 -27 9 q-10 9 -10 24 q0 8 3.5 19 q3.5 11 3.5 15 q0 15 -17 15 q-44 0 -84.5 -64.5 q-40.5 -64.5 -40.5 -155.5 l0 -241 q0 -20 5 -25 q5 -5 25 -5 l35 0 l0 -8 l-209 0 l0 8 l35 0 q19 0 24.5 5 q5.5 5 5.5 25 l0 401 q0 21 -6.5 28 q-6.5 7 -23.5 3 l-35 -8 l0 8 l144 30 l0 -151 q17 80 56.5 120.5 q39.5 40.5 85.5 40.5 Z" /><glyph glyph-name="Rcommaaccent" unicode="&#x156;" d="M660 3 q16 0 38 5 l0 -8 q-50 -10 -78 -10 q-65 0 -98 40.5 q-33 40.5 -56 132.5 q-22 92 -53 123.5 q-31 31.5 -90 31.5 l-130 0 l0 -280 q0 -20 5.5 -25 q5.5 -5 24.5 -5 l35 0 l0 -8 l-210 0 l0 8 l35 0 q19 0 24.5 5 q5.5 5 5.5 25 l0 624 q0 20 -5.5 25 q-5.5 5 -24.5 5 l-35 0 l0 8 l291 0 q120 0 177 -52.5 q57 -52.5 57 -137.5 q0 -76 -47 -126.5 q-47 -50.5 -142 -62.5 q134 -20 165 -152 q9 -39 14.5 -58 q5.5 -19 15 -44 q9.5 -25 19.5 -36 q10 -11 25.5 -19.5 q15.5 -8.5 36.5 -8.5 ZM193 326 l136 0 q82 1 122.5 45.5 q40.5 44.5 40.5 138.5 q0 95 -40.5 138.5 q-40.5 43.5 -122.5 43.5 l-136 0 l0 -366 ZM352 -53 q40 0 40 -54 q0 -48 -21.5 -73 q-21.5 -25 -53.5 -25 l0 8 q23 0 39.5 15 q16.5 15 16.5 32 q0 17 -21 17 q-18 0 -29 11 q-11 11 -11 29 q0 17 11 28.5 q11 11.5 29 11.5 Z" /><glyph glyph-name="rcommaaccent" unicode="&#x157;" d="M314 510 q28 0 47 -15 q19 -15 19 -41 q0 -16 -10 -26.5 q-10 -10.5 -26 -10.5 q-17 0 -27 9 q-10 9 -10 24 q0 8 3.5 19 q3.5 11 3.5 15 q0 15 -17 15 q-44 0 -84.5 -64.5 q-40.5 -64.5 -40.5 -155.5 l0 -241 q0 -20 5 -25 q5 -5 25 -5 l35 0 l0 -8 l-209 0 l0 8 l35 0 q19 0 24.5 5 q5.5 5 5.5 25 l0 401 q0 21 -6.5 28 q-6.5 7 -23.5 3 l-35 -8 l0 8 l144 30 l0 -151 q17 80 56.5 120.5 q39.5 40.5 85.5 40.5 ZM132 -53 q40 0 40 -54 q0 -48 -21.5 -73 q-21.5 -25 -53.5 -25 l0 8 q23 0 39.5 15 q16.5 15 16.5 32 q0 17 -21 17 q-18 0 -29 11 q-11 11 -11 29 q0 17 11 28.5 q11 11.5 29 11.5 Z" /><glyph glyph-name="Rcaron" unicode="&#x158;" d="M338 748 l-9 0 q-24 39 -69.5 86.5 q-45.5 47.5 -82.5 67.5 l4 8 q105 -43 152 -82 q49 40 152 82 l4 -8 q-37 -19 -81.5 -66.5 q-44.5 -47.5 -69.5 -87.5 ZM660 3 q16 0 38 5 l0 -8 q-50 -10 -78 -10 q-65 0 -98 40.5 q-33 40.5 -56 132.5 q-22 92 -53 123.5 q-31 31.5 -90 31.5 l-130 0 l0 -280 q0 -20 5.5 -25 q5.5 -5 24.5 -5 l35 0 l0 -8 l-210 0 l0 8 l35 0 q19 0 24.5 5 q5.5 5 5.5 25 l0 624 q0 20 -5.5 25 q-5.5 5 -24.5 5 l-35 0 l0 8 l291 0 q120 0 177 -52.5 q57 -52.5 57 -137.5 q0 -76 -47 -126.5 q-47 -50.5 -142 -62.5 q134 -20 165 -152 q9 -39 14.5 -58 q5.5 -19 15 -44 q9.5 -25 19.5 -36 q10 -11 25.5 -19.5 q15.5 -8.5 36.5 -8.5 ZM193 326 l136 0 q82 1 122.5 45.5 q40.5 44.5 40.5 138.5 q0 95 -40.5 138.5 q-40.5 43.5 -122.5 43.5 l-136 0 l0 -366 Z" /><glyph glyph-name="rcaron" unicode="&#x159;" d="M351 710 l4 -8 q-37 -19 -81.5 -66.5 q-44.5 -47.5 -69.5 -87.5 l-9 0 q-24 39 -69.5 86.5 q-45.5 47.5 -82.5 67.5 l4 8 q105 -43 152 -82 q49 40 152 82 ZM314 510 q28 0 47 -15 q19 -15 19 -41 q0 -16 -10 -26.5 q-10 -10.5 -26 -10.5 q-17 0 -27 9 q-10 9 -10 24 q0 8 3.5 19 q3.5 11 3.5 15 q0 15 -17 15 q-44 0 -84.5 -64.5 q-40.5 -64.5 -40.5 -155.5 l0 -241 q0 -20 5 -25 q5 -5 25 -5 l35 0 l0 -8 l-209 0 l0 8 l35 0 q19 0 24.5 5 q5.5 5 5.5 25 l0 401 q0 21 -6.5 28 q-6.5 7 -23.5 3 l-35 -8 l0 8 l144 30 l0 -151 q17 80 56.5 120.5 q39.5 40.5 85.5 40.5 Z" /><glyph glyph-name="Sacute" unicode="&#x15a;" d="M399 910 q15 0 25 -9.5 q10 -9.5 10 -26.5 q0 -9 -3.5 -17.5 q-3.5 -8.5 -12.5 -17 q-9 -8.5 -16.5 -15.5 q-7.5 -7 -22.5 -15 q-15 -8 -24.5 -13.5 q-9.5 -5.5 -27.5 -13.5 q-18 -8 -26 -11.5 q-8 -3.5 -26.5 -11 q-18.5 -7.5 -22.5 -9.5 l-3 6 q69 33 96 104 q19 50 54 50 ZM290 710 q40 0 76.5 -15 q36.5 -15 60 -30 q23.5 -15 30.5 -15 q11 0 11 15 l0 35 l8 0 l0 -182 l-8 0 l-2 10 q-41 174 -176 174 q-69 0 -105.5 -32.5 q-36.5 -32.5 -36.5 -86.5 q0 -55 37.5 -96 q37.5 -41 90.5 -67 q53 -26 106 -53.5 q53 -27.5 90.5 -72.5 q37.5 -45 37.5 -106 q0 -87 -64 -142.5 q-64 -55.5 -174 -55.5 q-52 0 -95.5 15 q-43.5 15 -68 30 q-24.5 15 -31.5 15 q-11 0 -11 -15 l0 -35 l-8 0 l0 183 l8 0 l2 -10 q21 -91 70.5 -133 q49.5 -42 133.5 -42 q78 0 122 37.5 q44 37.5 44 110.5 q0 55 -37.5 96 q-37.5 41 -91 67.5 q-53.5 26.5 -106.5 54 q-53 27.5 -90.5 72.5 q-37.5 45 -37.5 106 q0 74 59 121 q59 47 156 47 Z" /><glyph glyph-name="sacute" unicode="&#x15b;" d="M340 710 q15 0 25 -9.5 q10 -9.5 10 -26.5 q0 -9 -3.5 -17.5 q-3.5 -8.5 -12.5 -17 q-9 -8.5 -16.5 -15.5 q-7.5 -7 -22.5 -15 q-15 -8 -24.5 -13.5 q-9.5 -5.5 -27.5 -13.5 q-18 -8 -26 -11.5 q-8 -3.5 -26.5 -11 q-18.5 -7.5 -22.5 -9.5 l-3 6 q69 33 96 104 q19 50 54 50 ZM393 354 l-8 0 l-3 10 q-10 41 -28.5 70.5 q-18.5 29.5 -41 43 q-22.5 13.5 -42.5 19 q-20 5.5 -39 5.5 q-54 0 -80.5 -26.5 q-26.5 -26.5 -26.5 -62.5 q0 -40 30 -67 q30 -27 72.5 -43.5 q42.5 -16.5 85 -34 q42.5 -17.5 72.5 -50 q30 -32.5 30 -79.5 q0 -62 -48.5 -105.5 q-48.5 -43.5 -142.5 -43.5 q-42 0 -100 22 q-58 22 -63 22 q-11 0 -11 -15 l0 -29 l-8 0 l0 157 l8 0 l3 -10 q9 -42 29.5 -71 q20.5 -29 47 -43 q26.5 -14 49 -19.5 q22.5 -5.5 45.5 -5.5 q62 0 92.5 31 q30.5 31 30.5 74 q0 39 -30 66 q-30 27 -73 44 q-43 17 -86 34.5 q-43 17.5 -73 50 q-30 32.5 -30 79.5 q0 60 45 96.5 q45 36.5 132 36.5 q40 0 90 -21.5 q50 -21.5 53 -21.5 q11 0 11 15 l0 28 l8 0 l0 -156 Z" /><glyph glyph-name="Scedilla" unicode="&#x15e;" d="M510 188 q0 -87 -62.5 -142 q-62.5 -55 -171.5 -56 l0 -53 q48 0 78 -20 q30 -20 30 -57 q0 -35 -27 -57.5 q-27 -22.5 -78 -22.5 q-32 0 -62 12 l2 8 q26 -12 57 -12 q35 0 50 21.5 q15 21.5 15 50.5 q0 27 -16.5 48.5 q-16.5 21.5 -56.5 21.5 l0 60 q-50 0 -93 15 q-43 15 -67 30 q-24 15 -31 15 q-11 0 -11 -15 l0 -35 l-8 0 l0 183 l8 0 l2 -10 q21 -91 70.5 -133 q49.5 -42 133.5 -42 q78 0 122 37.5 q44 37.5 44 110.5 q0 55 -37.5 96 q-37.5 41 -91 67.5 q-53.5 26.5 -106.5 54 q-53 27.5 -90.5 72.5 q-37.5 45 -37.5 106 q0 74 59 121 q59 47 156 47 q40 0 76.5 -15 q36.5 -15 60 -30 q23.5 -15 30.5 -15 q11 0 11 15 l0 35 l8 0 l0 -182 l-8 0 l-2 10 q-41 174 -176 174 q-69 0 -105.5 -32.5 q-36.5 -32.5 -36.5 -86.5 q0 -55 37.5 -96 q37.5 -41 90.5 -67 q53 -26 106 -53.5 q53 -27.5 90.5 -72.5 q37.5 -45 37.5 -106 Z" /><glyph glyph-name="scedilla" unicode="&#x15f;" d="M414 139 q0 -62 -47.5 -105 q-47.5 -43 -139.5 -44 l0 -53 q48 0 78 -20 q30 -20 30 -57 q0 -35 -27 -57.5 q-27 -22.5 -78 -22.5 q-32 0 -62 12 l2 8 q26 -12 57 -12 q35 0 50 21.5 q15 21.5 15 50.5 q0 27 -16.5 48.5 q-16.5 21.5 -56.5 21.5 l0 60 q-41 1 -97 22.5 q-56 21.5 -62 21.5 q-11 0 -11 -15 l0 -29 l-8 0 l0 157 l8 0 l3 -10 q9 -42 29.5 -71 q20.5 -29 47 -43 q26.5 -14 49 -19.5 q22.5 -5.5 45.5 -5.5 q62 0 92.5 31 q30.5 31 30.5 74 q0 39 -30 66 q-30 27 -73 44 q-43 17 -86 34.5 q-43 17.5 -73 50 q-30 32.5 -30 79.5 q0 60 45 96.5 q45 36.5 132 36.5 q40 0 90 -21.5 q50 -21.5 53 -21.5 q11 0 11 15 l0 28 l8 0 l0 -156 l-8 0 l-3 10 q-10 41 -28.5 70.5 q-18.5 29.5 -41 43 q-22.5 13.5 -42.5 19 q-20 5.5 -39 5.5 q-54 0 -80.5 -26.5 q-26.5 -26.5 -26.5 -62.5 q0 -40 30 -67 q30 -27 72.5 -43.5 q42.5 -16.5 85 -34 q42.5 -17.5 72.5 -50 q30 -32.5 30 -79.5 Z" /><glyph glyph-name="Scaron" unicode="&#x160;" d="M440 910 l4 -8 q-37 -19 -81.5 -66.5 q-44.5 -47.5 -69.5 -87.5 l-9 0 q-24 39 -69.5 86.5 q-45.5 47.5 -82.5 67.5 l4 8 q105 -43 152 -82 q49 40 152 82 ZM290 710 q40 0 76.5 -15 q36.5 -15 60 -30 q23.5 -15 30.5 -15 q11 0 11 15 l0 35 l8 0 l0 -182 l-8 0 l-2 10 q-41 174 -176 174 q-69 0 -105.5 -32.5 q-36.5 -32.5 -36.5 -86.5 q0 -55 37.5 -96 q37.5 -41 90.5 -67 q53 -26 106 -53.5 q53 -27.5 90.5 -72.5 q37.5 -45 37.5 -106 q0 -87 -64 -142.5 q-64 -55.5 -174 -55.5 q-52 0 -95.5 15 q-43.5 15 -68 30 q-24.5 15 -31.5 15 q-11 0 -11 -15 l0 -35 l-8 0 l0 183 l8 0 l2 -10 q21 -91 70.5 -133 q49.5 -42 133.5 -42 q78 0 122 37.5 q44 37.5 44 110.5 q0 55 -37.5 96 q-37.5 41 -91 67.5 q-53.5 26.5 -106.5 54 q-53 27.5 -90.5 72.5 q-37.5 45 -37.5 106 q0 74 59 121 q59 47 156 47 Z" /><glyph glyph-name="scaron" unicode="&#x161;" d="M381 710 l4 -8 q-37 -19 -81.5 -66.5 q-44.5 -47.5 -69.5 -87.5 l-9 0 q-24 39 -69.5 86.5 q-45.5 47.5 -82.5 67.5 l4 8 q105 -43 152 -82 q49 40 152 82 ZM393 354 l-8 0 l-3 10 q-10 41 -28.5 70.5 q-18.5 29.5 -41 43 q-22.5 13.5 -42.5 19 q-20 5.5 -39 5.5 q-54 0 -80.5 -26.5 q-26.5 -26.5 -26.5 -62.5 q0 -40 30 -67 q30 -27 72.5 -43.5 q42.5 -16.5 85 -34 q42.5 -17.5 72.5 -50 q30 -32.5 30 -79.5 q0 -62 -48.5 -105.5 q-48.5 -43.5 -142.5 -43.5 q-42 0 -100 22 q-58 22 -63 22 q-11 0 -11 -15 l0 -29 l-8 0 l0 157 l8 0 l3 -10 q9 -42 29.5 -71 q20.5 -29 47 -43 q26.5 -14 49 -19.5 q22.5 -5.5 45.5 -5.5 q62 0 92.5 31 q30.5 31 30.5 74 q0 39 -30 66 q-30 27 -73 44 q-43 17 -86 34.5 q-43 17.5 -73 50 q-30 32.5 -30 79.5 q0 60 45 96.5 q45 36.5 132 36.5 q40 0 90 -21.5 q50 -21.5 53 -21.5 q11 0 11 15 l0 28 l8 0 l0 -156 Z" /><glyph glyph-name="Tcedilla" unicode="&#x162;" d="M610 700 l0 -169 l-8 0 l0 25 q0 59 -29.5 97.5 q-29.5 38.5 -91.5 38.5 l-82 0 q-19 0 -24.5 -5 q-5.5 -5 -5.5 -25 l0 -624 q0 -20 5.5 -25 q5.5 -5 24.5 -5 l35 0 l0 -8 l-100 0 l0 -57 q48 0 78 -20 q30 -20 30 -57 q0 -35 -27 -57.5 q-27 -22.5 -78 -22.5 q-32 0 -62 12 l2 8 q26 -12 57 -12 q35 0 50 21.5 q15 21.5 15 50.5 q0 27 -16.5 48.5 q-16.5 21.5 -56.5 21.5 l0 64 l-102 0 l0 8 l35 0 q19 0 24.5 5 q5.5 5 5.5 25 l0 624 q0 20 -5.5 25 q-5.5 5 -24.5 5 l-82 0 q-62 0 -91.5 -38.5 q-29.5 -38.5 -29.5 -97.5 l0 -25 l-8 0 l0 169 l562 0 Z" /><glyph glyph-name="tcedilla" unicode="&#x163;" d="M189 -7 l0 -46 q48 0 78 -20 q30 -20 30 -57 q0 -35 -27 -57.5 q-27 -22.5 -78 -22.5 q-32 0 -62 12 l2 8 q26 -12 57 -12 q35 0 50 21.5 q15 21.5 15 50.5 q0 27 -16.5 48.5 q-16.5 21.5 -56.5 21.5 l0 53 q-42 1 -69.5 24 q-27.5 23 -27.5 70 l0 401 l-65 0 l0 12 l65 0 l0 98 l75 32 l4 0 l0 -130 l122 0 l0 -12 l-122 0 l0 -409 q0 -33 16 -49.5 q16 -16.5 36 -16.5 q21 0 38 11 q17 11 25 29 l7 -3 q-8 -22 -35 -39 q-27 -17 -61 -18 Z" /><glyph glyph-name="Tcaron" unicode="&#x164;" d="M481 910 l4 -8 q-37 -19 -81.5 -66.5 q-44.5 -47.5 -69.5 -87.5 l-9 0 q-24 39 -69.5 86.5 q-45.5 47.5 -82.5 67.5 l4 8 q105 -43 152 -82 q49 40 152 82 ZM610 531 l-8 0 l0 25 q0 59 -29.5 97.5 q-29.5 38.5 -91.5 38.5 l-82 0 q-19 0 -24.5 -5 q-5.5 -5 -5.5 -25 l0 -624 q0 -20 5.5 -25 q5.5 -5 24.5 -5 l35 0 l0 -8 l-210 0 l0 8 l35 0 q19 0 24.5 5 q5.5 5 5.5 25 l0 624 q0 20 -5.5 25 q-5.5 5 -24.5 5 l-82 0 q-62 0 -91.5 -38.5 q-29.5 -38.5 -29.5 -97.5 l0 -25 l-8 0 l0 169 l562 0 l0 -169 Z" /><glyph glyph-name="tcaron" unicode="&#x165;" d="M245 730 q40 0 40 -53 q0 -91 -72 -137 l-5 6 q24 16 40.5 40 q16.5 24 16.5 44 q0 20 -21 20 q-18 0 -28.5 11.5 q-10.5 11.5 -10.5 28.5 q0 17 11 28.5 q11 11.5 29 11.5 ZM163 500 l122 0 l0 -12 l-122 0 l0 -409 q0 -33 16 -49.5 q16 -16.5 36 -16.5 q21 0 38 11 q17 11 25 29 l7 -3 q-8 -23 -37 -40 q-29 -17 -64 -17 q-43 0 -71.5 23.5 q-28.5 23.5 -28.5 70.5 l0 401 l-65 0 l0 12 l65 0 l0 98 l75 32 l4 0 l0 -130 Z" /><glyph glyph-name="Tbar" unicode="&#x166;" d="M610 700 l0 -169 l-8 0 l0 25 q0 59 -29.5 97.5 q-29.5 38.5 -91.5 38.5 l-82 0 q-19 0 -24.5 -5 q-5.5 -5 -5.5 -25 l0 -306 l100 0 l0 -12 l-100 0 l0 -306 q0 -20 5.5 -25 q5.5 -5 24.5 -5 l35 0 l0 -8 l-210 0 l0 8 l35 0 q19 0 24.5 5 q5.5 5 5.5 25 l0 306 l-100 0 l0 12 l100 0 l0 306 q0 20 -5.5 25 q-5.5 5 -24.5 5 l-82 0 q-62 0 -91.5 -38.5 q-29.5 -38.5 -29.5 -97.5 l0 -25 l-8 0 l0 169 l562 0 Z" /><glyph glyph-name="tbar" unicode="&#x167;" d="M163 488 l0 -181 l122 0 l0 -12 l-122 0 l0 -216 q0 -33 16 -49.5 q16 -16.5 36 -16.5 q21 0 38 11 q17 11 25 29 l7 -3 q-8 -23 -37 -40 q-29 -17 -64 -17 q-43 0 -71.5 23.5 q-28.5 23.5 -28.5 70.5 l0 208 l-64 0 l0 12 l64 0 l0 181 l-65 0 l0 12 l65 0 l0 98 l75 32 l4 0 l0 -130 l122 0 l0 -12 l-122 0 Z" /><glyph glyph-name="Umacron" unicode="&#x16a;" d="M512 802 l-258 0 l0 12 l258 0 l0 -12 ZM693 692 l-38 0 q-19 0 -24.5 -5 q-5.5 -5 -5.5 -25 l0 -440 q0 -62 -21 -108.5 q-21 -46.5 -56.5 -72.5 q-35.5 -26 -76.5 -38.5 q-41 -12.5 -88 -12.5 q-144 0 -216 59 q-72 59 -72 191 l0 422 q0 20 -5.5 25 q-5.5 5 -24.5 5 l-35 0 l0 8 l210 0 l0 -8 l-35 0 q-19 0 -24.5 -5 q-5.5 -5 -5.5 -25 l0 -440 q0 -224 208 -224 q62 0 112.5 20 q50.5 20 86 72.5 q35.5 52.5 35.5 131.5 l0 440 q0 20 -5.5 25 q-5.5 5 -24.5 5 l-38 0 l0 8 l144 0 l0 -8 Z" /><glyph glyph-name="umacron" unicode="&#x16b;" d="M423 602 l-258 0 l0 12 l258 0 l0 -12 ZM508 500 l0 -462 q0 -20 5 -25 q5 -5 25 -5 l35 0 l0 -8 l-144 0 l0 143 q-14 -76 -60.5 -114.5 q-46.5 -38.5 -101.5 -38.5 q-83 0 -128.5 46 q-45.5 46 -45.5 128 l0 276 q0 20 -6.5 27 q-6.5 7 -23.5 3 l-35 -8 l0 8 l144 30 l0 -345 q0 -151 111 -151 q65 0 105.5 59.5 q40.5 59.5 40.5 152.5 l0 224 q0 20 -6.5 27 q-6.5 7 -23.5 3 l-35 -8 l0 8 l144 30 Z" /><glyph glyph-name="Uring" unicode="&#x16e;" d="M308 950 q30 30 75 30 q45 0 75 -30 q30 -30 30 -75 q0 -45 -30 -75 q-30 -30 -75 -30 q-45 0 -75 30 q-30 30 -30 75 q0 45 30 75 ZM450 942 q-26 26 -67 26 q-41 0 -67 -26 q-26 -26 -26 -67 q0 -41 26 -67 q26 -26 67 -26 q41 0 67 26 q26 26 26 67 q0 41 -26 67 ZM693 692 l-38 0 q-19 0 -24.5 -5 q-5.5 -5 -5.5 -25 l0 -440 q0 -62 -21 -108.5 q-21 -46.5 -56.5 -72.5 q-35.5 -26 -76.5 -38.5 q-41 -12.5 -88 -12.5 q-144 0 -216 59 q-72 59 -72 191 l0 422 q0 20 -5.5 25 q-5.5 5 -24.5 5 l-35 0 l0 8 l210 0 l0 -8 l-35 0 q-19 0 -24.5 -5 q-5.5 -5 -5.5 -25 l0 -440 q0 -224 208 -224 q62 0 112.5 20 q50.5 20 86 72.5 q35.5 52.5 35.5 131.5 l0 440 q0 20 -5.5 25 q-5.5 5 -24.5 5 l-38 0 l0 8 l144 0 l0 -8 Z" /><glyph glyph-name="uring" unicode="&#x16f;" d="M219 750 q30 30 75 30 q45 0 75 -30 q30 -30 30 -75 q0 -45 -30 -75 q-30 -30 -75 -30 q-45 0 -75 30 q-30 30 -30 75 q0 45 30 75 ZM361 742 q-26 26 -67 26 q-41 0 -67 -26 q-26 -26 -26 -67 q0 -41 26 -67 q26 -26 67 -26 q41 0 67 26 q26 26 26 67 q0 41 -26 67 ZM508 500 l0 -462 q0 -20 5 -25 q5 -5 25 -5 l35 0 l0 -8 l-144 0 l0 143 q-14 -76 -60.5 -114.5 q-46.5 -38.5 -101.5 -38.5 q-83 0 -128.5 46 q-45.5 46 -45.5 128 l0 276 q0 20 -6.5 27 q-6.5 7 -23.5 3 l-35 -8 l0 8 l144 30 l0 -345 q0 -151 111 -151 q65 0 105.5 59.5 q40.5 59.5 40.5 152.5 l0 224 q0 20 -6.5 27 q-6.5 7 -23.5 3 l-35 -8 l0 8 l144 30 Z" /><glyph glyph-name="Uhungarumlaut" unicode="&#x170;" d="M428 910 q15 0 25 -9.5 q10 -9.5 10 -26.5 q0 -9 -3.5 -17.5 q-3.5 -8.5 -12.5 -17 q-9 -8.5 -16.5 -15.5 q-7.5 -7 -22.5 -15 q-15 -8 -24.5 -13.5 q-9.5 -5.5 -27.5 -13.5 q-18 -8 -26 -11.5 q-8 -3.5 -26.5 -11 q-18.5 -7.5 -22.5 -9.5 l-2 4 q67 32 95 106 q19 50 54 50 ZM588 910 q15 0 25 -9.5 q10 -9.5 10 -26.5 q0 -9 -3.5 -17.5 q-3.5 -8.5 -12.5 -17 q-9 -8.5 -16.5 -15.5 q-7.5 -7 -22.5 -15 q-15 -8 -24.5 -13.5 q-9.5 -5.5 -27.5 -13.5 q-18 -8 -26 -11.5 q-8 -3.5 -26.5 -11 q-18.5 -7.5 -22.5 -9.5 l-2 4 q67 32 95 106 q19 50 54 50 ZM693 692 l-38 0 q-19 0 -24.5 -5 q-5.5 -5 -5.5 -25 l0 -440 q0 -62 -21 -108.5 q-21 -46.5 -56.5 -72.5 q-35.5 -26 -76.5 -38.5 q-41 -12.5 -88 -12.5 q-144 0 -216 59 q-72 59 -72 191 l0 422 q0 20 -5.5 25 q-5.5 5 -24.5 5 l-35 0 l0 8 l210 0 l0 -8 l-35 0 q-19 0 -24.5 -5 q-5.5 -5 -5.5 -25 l0 -440 q0 -224 208 -224 q62 0 112.5 20 q50.5 20 86 72.5 q35.5 52.5 35.5 131.5 l0 440 q0 20 -5.5 25 q-5.5 5 -24.5 5 l-38 0 l0 8 l144 0 l0 -8 Z" /><glyph glyph-name="uhungarumlaut" unicode="&#x171;" d="M340 710 q15 0 25 -9.5 q10 -9.5 10 -26.5 q0 -9 -3.5 -17.5 q-3.5 -8.5 -12.5 -17 q-9 -8.5 -16.5 -15.5 q-7.5 -7 -22.5 -15 q-15 -8 -24.5 -13.5 q-9.5 -5.5 -27.5 -13.5 q-18 -8 -26 -11.5 q-8 -3.5 -26.5 -11 q-18.5 -7.5 -22.5 -9.5 l-2 4 q67 32 95 106 q19 50 54 50 ZM500 710 q15 0 25 -9.5 q10 -9.5 10 -26.5 q0 -9 -3.5 -17.5 q-3.5 -8.5 -12.5 -17 q-9 -8.5 -16.5 -15.5 q-7.5 -7 -22.5 -15 q-15 -8 -24.5 -13.5 q-9.5 -5.5 -27.5 -13.5 q-18 -8 -26 -11.5 q-8 -3.5 -26.5 -11 q-18.5 -7.5 -22.5 -9.5 l-2 4 q67 32 95 106 q19 50 54 50 ZM508 500 l0 -462 q0 -20 5 -25 q5 -5 25 -5 l35 0 l0 -8 l-144 0 l0 143 q-14 -76 -60.5 -114.5 q-46.5 -38.5 -101.5 -38.5 q-83 0 -128.5 46 q-45.5 46 -45.5 128 l0 276 q0 20 -6.5 27 q-6.5 7 -23.5 3 l-35 -8 l0 8 l144 30 l0 -345 q0 -151 111 -151 q65 0 105.5 59.5 q40.5 59.5 40.5 152.5 l0 224 q0 20 -6.5 27 q-6.5 7 -23.5 3 l-35 -8 l0 8 l144 30 Z" /><glyph glyph-name="Uogonek" unicode="&#x172;" d="M693 700 l0 -8 l-38 0 q-19 0 -24.5 -5 q-5.5 -5 -5.5 -25 l0 -440 q0 -119 -69.5 -175 q-69.5 -56 -169.5 -57 q-29 -26 -49.5 -62 q-20.5 -36 -20.5 -66 q0 -27 14.5 -42.5 q14.5 -15.5 40.5 -15.5 q31 0 55 20 l1 -7 q-31 -29 -77 -29 q-32 0 -54.5 17.5 q-22.5 17.5 -22.5 50.5 q0 38 28.5 70 q28.5 32 75.5 64 q-141 2 -211.5 61 q-70.5 59 -70.5 189 l0 422 q0 20 -5.5 25 q-5.5 5 -24.5 5 l-35 0 l0 8 l210 0 l0 -8 l-35 0 q-19 0 -24.5 -5 q-5.5 -5 -5.5 -25 l0 -440 q0 -224 208 -224 q62 0 112.5 20 q50.5 20 86 72.5 q35.5 52.5 35.5 131.5 l0 440 q0 20 -5.5 25 q-5.5 5 -24.5 5 l-38 0 l0 8 l144 0 Z" /><glyph glyph-name="uogonek" unicode="&#x173;" d="M611 -168 l1 -7 q-31 -29 -77 -29 q-32 0 -54.5 17.5 q-22.5 17.5 -22.5 50.5 q0 64 107 136 l-136 0 l0 143 q-14 -76 -60.5 -114.5 q-46.5 -38.5 -101.5 -38.5 q-83 0 -128.5 46 q-45.5 46 -45.5 128 l0 276 q0 20 -6.5 27 q-6.5 7 -23.5 3 l-35 -8 l0 8 l144 30 l0 -345 q0 -151 111 -151 q65 0 105.5 59.5 q40.5 59.5 40.5 152.5 l0 224 q0 20 -6.5 27 q-6.5 7 -23.5 3 l-35 -8 l0 8 l144 30 l0 -462 q0 -20 5 -25 q5 -5 25 -5 l35 0 l0 -8 q-30 -26 -51 -63 q-21 -37 -21 -67 q0 -27 14.5 -42.5 q14.5 -15.5 40.5 -15.5 q31 0 55 20 Z" /><glyph glyph-name="Wcircumflex" unicode="&#x174;" d="M495 833 q-49 -40 -152 -82 l-4 8 q36 20 82 68 q46 48 70 86 l9 0 q24 -40 69 -87 q45 -47 81 -67 l-3 -8 q-100 41 -152 82 ZM1031 700 l0 -8 l-44 0 q-20 0 -26.5 -5 q-6.5 -5 -14.5 -25 l-246 -667 l-8 0 l-173 477 l-179 -477 l-8 0 l-250 667 q-7 20 -15 25 q-8 5 -28 5 l-30 0 l0 8 l241 0 l0 -8 l-64 0 q-15 0 -18 -7 q-3 -7 3 -23 l202 -558 l142 378 l-65 180 q-7 20 -15 25 q-8 5 -28 5 l-31 0 l0 8 l242 0 l0 -8 l-65 0 q-15 0 -18 -7 q-3 -7 3 -23 l196 -553 l203 552 q11 31 -15 31 l-68 0 l0 8 l177 0 Z" /><glyph glyph-name="wcircumflex" unicode="&#x175;" d="M454 633 q-49 -40 -152 -82 l-4 8 q36 20 82 68 q46 48 70 86 l9 0 q24 -40 69 -87 q45 -47 81 -67 l-3 -8 q-100 41 -152 82 ZM885 500 l0 -8 l-46 0 q-20 0 -26.5 -5 q-6.5 -5 -14.5 -25 l-179 -472 l-9 0 l-164 394 l-149 -394 l-9 0 l-197 472 q-8 20 -15 25 q-7 5 -26 5 l-41 0 l0 8 l254 0 l0 -8 l-72 0 q-15 0 -18 -7 q-3 -7 3 -23 l151 -371 l115 305 l-28 66 q-9 20 -15.5 25 q-6.5 5 -25.5 5 l-42 0 l0 8 l255 0 l0 -8 l-72 0 q-16 0 -19 -7 q-3 -7 4 -23 l150 -371 l140 371 q12 30 -15 30 l-78 0 l0 8 l189 0 Z" /><glyph glyph-name="Ycircumflex" unicode="&#x176;" d="M370 913 l9 0 q24 -40 69 -87 q45 -47 81 -67 l-3 -8 q-100 41 -152 82 q-49 -40 -152 -82 l-4 8 q36 20 82 68 q46 48 70 86 ZM668 692 l-30 0 q-41 0 -56 -30 l-202 -372 l0 -252 q0 -20 5 -25 q5 -5 25 -5 l35 0 l0 -8 l-210 0 l0 8 l35 0 q20 0 25 5 q5 5 5 25 l0 232 l-213 392 q-10 18 -19.5 24 q-9.5 6 -28.5 6 l-34 0 l0 8 l257 0 l0 -8 l-66 0 q-20 0 -22 -7.5 q-2 -7.5 7 -22.5 l195 -363 l195 361 q9 18 5.5 25 q-3.5 7 -20.5 7 l-73 0 l0 8 l185 0 l0 -8 Z" /><glyph glyph-name="ycircumflex" unicode="&#x177;" d="M314 713 l9 0 q24 -40 69 -87 q45 -47 81 -67 l-3 -8 q-100 41 -152 82 q-49 -40 -152 -82 l-4 8 q36 20 82 68 q46 48 70 86 ZM569 492 l-46 0 q-20 0 -26.5 -5 q-6.5 -5 -14.5 -25 l-179 -472 q-44 -116 -98 -178 q-54 -62 -107 -62 q-37 0 -58 16.5 q-21 16.5 -21 41.5 q0 15 9.5 24.5 q9.5 9.5 25.5 9.5 q16 0 25.5 -9.5 q9.5 -9.5 9.5 -23.5 q0 -9 -5 -20 q-5 -11 -5 -16 q0 -15 19 -15 q49 0 101 59.5 q52 59.5 96 172.5 l-197 472 q-9 20 -16 25 q-7 5 -26 5 l-41 0 l0 8 l255 0 l0 -8 l-72 0 q-16 0 -19 -7 q-3 -7 4 -23 l150 -371 l140 371 q12 30 -15 30 l-78 0 l0 8 l189 0 l0 -8 Z" /><glyph glyph-name="Ydieresis" unicode="&#x178;" d="M258 854 q13 13 31 13 q18 0 31 -13 q13 -13 13 -31 q0 -18 -12.5 -31 q-12.5 -13 -31.5 -13 q-19 0 -31.5 13 q-12.5 13 -12.5 31 q0 18 13 31 ZM428 854 q13 13 31 13 q18 0 31 -13 q13 -13 13 -31 q0 -18 -12.5 -31 q-12.5 -13 -31.5 -13 q-19 0 -31.5 13 q-12.5 13 -12.5 31 q0 18 13 31 ZM668 692 l-30 0 q-41 0 -56 -30 l-202 -372 l0 -252 q0 -20 5 -25 q5 -5 25 -5 l35 0 l0 -8 l-210 0 l0 8 l35 0 q20 0 25 5 q5 5 5 25 l0 232 l-213 392 q-10 18 -19.5 24 q-9.5 6 -28.5 6 l-34 0 l0 8 l257 0 l0 -8 l-66 0 q-20 0 -22 -7.5 q-2 -7.5 7 -22.5 l195 -363 l195 361 q9 18 5.5 25 q-3.5 7 -20.5 7 l-73 0 l0 8 l185 0 l0 -8 Z" /><glyph glyph-name="Zacute" unicode="&#x179;" d="M435 910 q15 0 25 -9.5 q10 -9.5 10 -26.5 q0 -9 -3.5 -17.5 q-3.5 -8.5 -12.5 -17 q-9 -8.5 -16.5 -15.5 q-7.5 -7 -22.5 -15 q-15 -8 -24.5 -13.5 q-9.5 -5.5 -27.5 -13.5 q-18 -8 -26 -11.5 q-8 -3.5 -26.5 -11 q-18.5 -7.5 -22.5 -9.5 l-3 6 q69 33 96 104 q19 50 54 50 ZM570 692 l-420 -684 l311 0 q62 0 91.5 39.5 q29.5 39.5 29.5 96.5 l0 25 l8 0 l0 -169 l-532 0 l0 8 l420 684 l-271 0 q-62 0 -91.5 -38.5 q-29.5 -38.5 -29.5 -97.5 l0 -25 l-8 0 l0 169 l492 0 l0 -8 Z" /><glyph glyph-name="zacute" unicode="&#x17a;" d="M345 710 q15 0 25 -9.5 q10 -9.5 10 -26.5 q0 -9 -3.5 -17.5 q-3.5 -8.5 -12.5 -17 q-9 -8.5 -16.5 -15.5 q-7.5 -7 -22.5 -15 q-15 -8 -24.5 -13.5 q-9.5 -5.5 -27.5 -13.5 q-18 -8 -26 -11.5 q-8 -3.5 -26.5 -11 q-18.5 -7.5 -22.5 -9.5 l-3 6 q69 33 96 104 q19 50 54 50 ZM435 492 l-315 -484 l192 0 q61 0 90.5 38 q29.5 38 29.5 96 l0 27 l8 0 l0 -169 l-412 0 l0 8 l314 484 l-170 0 q-59 0 -89.5 -38.5 q-30.5 -38.5 -30.5 -94.5 l0 -28 l-8 0 l0 169 l391 0 l0 -8 Z" /><glyph glyph-name="Zdotaccent" unicode="&#x17b;" d="M290.5 857.5 q14.5 14.5 34.5 14.5 q20 0 34 -14.5 q14 -14.5 14 -34.5 q0 -19 -14.5 -33.5 q-14.5 -14.5 -33.5 -14.5 q-20 0 -34.5 14 q-14.5 14 -14.5 34 q0 20 14.5 34.5 ZM570 692 l-420 -684 l311 0 q62 0 91.5 39.5 q29.5 39.5 29.5 96.5 l0 25 l8 0 l0 -169 l-532 0 l0 8 l420 684 l-271 0 q-62 0 -91.5 -38.5 q-29.5 -38.5 -29.5 -97.5 l0 -25 l-8 0 l0 169 l492 0 l0 -8 Z" /><glyph glyph-name="zdotaccent" unicode="&#x17c;" d="M200.5 657.5 q14.5 14.5 34.5 14.5 q20 0 34 -14.5 q14 -14.5 14 -34.5 q0 -19 -14.5 -33.5 q-14.5 -14.5 -33.5 -14.5 q-20 0 -34.5 14 q-14.5 14 -14.5 34 q0 20 14.5 34.5 ZM435 492 l-315 -484 l192 0 q61 0 90.5 38 q29.5 38 29.5 96 l0 27 l8 0 l0 -169 l-412 0 l0 8 l314 484 l-170 0 q-59 0 -89.5 -38.5 q-30.5 -38.5 -30.5 -94.5 l0 -28 l-8 0 l0 169 l391 0 l0 -8 Z" /><glyph glyph-name="Zcaron" unicode="&#x17d;" d="M476 910 l4 -8 q-37 -19 -81.5 -66.5 q-44.5 -47.5 -69.5 -87.5 l-9 0 q-24 39 -69.5 86.5 q-45.5 47.5 -82.5 67.5 l4 8 q105 -43 152 -82 q49 40 152 82 ZM570 692 l-420 -684 l311 0 q62 0 91.5 39.5 q29.5 39.5 29.5 96.5 l0 25 l8 0 l0 -169 l-532 0 l0 8 l420 684 l-271 0 q-62 0 -91.5 -38.5 q-29.5 -38.5 -29.5 -97.5 l0 -25 l-8 0 l0 169 l492 0 l0 -8 Z" /><glyph glyph-name="zcaron" unicode="&#x17e;" d="M386 710 l4 -8 q-37 -19 -81.5 -66.5 q-44.5 -47.5 -69.5 -87.5 l-9 0 q-24 39 -69.5 86.5 q-45.5 47.5 -82.5 67.5 l4 8 q105 -43 152 -82 q49 40 152 82 ZM435 492 l-315 -484 l192 0 q61 0 90.5 38 q29.5 38 29.5 96 l0 27 l8 0 l0 -169 l-412 0 l0 8 l314 484 l-170 0 q-59 0 -89.5 -38.5 q-30.5 -38.5 -30.5 -94.5 l0 -28 l-8 0 l0 169 l391 0 l0 -8 Z" /><glyph glyph-name="florin" unicode="&#x192;" d="M340 750 q38 0 62 -17 q24 -17 22 -41 q-2 -15 -12.5 -24.5 q-10.5 -9.5 -26.5 -9.5 q-16 0 -25 9.5 q-9 9.5 -7 23.5 q1 7 7.5 18 q6.5 11 6.5 16 q2 17 -28 17 q-35 0 -50 -25.5 q-15 -25.5 -21 -82.5 l-15 -134 l102 0 l-1 -10 l-102 0 l-61 -587 q-7 -72 -49 -112.5 q-42 -40.5 -108 -40.5 q-44 0 -69 17 q-25 17 -23 41 q1 15 12 24.5 q11 9.5 26 9.5 q16 0 25.5 -9.5 q9.5 -9.5 7.5 -23.5 q-1 -7 -7.5 -18 q-6.5 -11 -6.5 -16 q-2 -8 7 -12.5 q9 -4.5 29 -4.5 q36 0 51.5 25.5 q15.5 25.5 21.5 82.5 l65 624 l-62 0 l1 10 l63 0 l10 97 q8 72 48.5 112.5 q40.5 40.5 106.5 40.5 Z" /><glyph glyph-name="Scommaaccent" unicode="&#x218;" d="M290 710 q40 0 76.5 -15 q36.5 -15 60 -30 q23.5 -15 30.5 -15 q11 0 11 15 l0 35 l8 0 l0 -182 l-8 0 l-2 10 q-41 174 -176 174 q-69 0 -105.5 -32.5 q-36.5 -32.5 -36.5 -86.5 q0 -55 37.5 -96 q37.5 -41 90.5 -67 q53 -26 106 -53.5 q53 -27.5 90.5 -72.5 q37.5 -45 37.5 -106 q0 -87 -64 -142.5 q-64 -55.5 -174 -55.5 q-52 0 -95.5 15 q-43.5 15 -68 30 q-24.5 15 -31.5 15 q-11 0 -11 -15 l0 -35 l-8 0 l0 183 l8 0 l2 -10 q21 -91 70.5 -133 q49.5 -42 133.5 -42 q78 0 122 37.5 q44 37.5 44 110.5 q0 55 -37.5 96 q-37.5 41 -91 67.5 q-53.5 26.5 -106.5 54 q-53 27.5 -90.5 72.5 q-37.5 45 -37.5 106 q0 74 59 121 q59 47 156 47 ZM272 -59 q40 0 40 -54 q0 -48 -21.5 -73 q-21.5 -25 -53.5 -25 l0 8 q23 0 39.5 15 q16.5 15 16.5 32 q0 17 -21 17 q-18 0 -29 11 q-11 11 -11 29 q0 17 11 28.5 q11 11.5 29 11.5 Z" /><glyph glyph-name="scommaaccent" unicode="&#x219;" d="M393 354 l-8 0 l-3 10 q-10 41 -28.5 70.5 q-18.5 29.5 -41 43 q-22.5 13.5 -42.5 19 q-20 5.5 -39 5.5 q-54 0 -80.5 -26.5 q-26.5 -26.5 -26.5 -62.5 q0 -40 30 -67 q30 -27 72.5 -43.5 q42.5 -16.5 85 -34 q42.5 -17.5 72.5 -50 q30 -32.5 30 -79.5 q0 -62 -48.5 -105.5 q-48.5 -43.5 -142.5 -43.5 q-42 0 -100 22 q-58 22 -63 22 q-11 0 -11 -15 l0 -29 l-8 0 l0 157 l8 0 l3 -10 q9 -42 29.5 -71 q20.5 -29 47 -43 q26.5 -14 49 -19.5 q22.5 -5.5 45.5 -5.5 q62 0 92.5 31 q30.5 31 30.5 74 q0 39 -30 66 q-30 27 -73 44 q-43 17 -86 34.5 q-43 17.5 -73 50 q-30 32.5 -30 79.5 q0 60 45 96.5 q45 36.5 132 36.5 q40 0 90 -21.5 q50 -21.5 53 -21.5 q11 0 11 15 l0 28 l8 0 l0 -156 ZM223 -59 q40 0 40 -54 q0 -48 -21.5 -73 q-21.5 -25 -53.5 -25 l0 8 q23 0 39.5 15 q16.5 15 16.5 32 q0 17 -21 17 q-18 0 -29 11 q-11 11 -11 29 q0 17 11 28.5 q11 11.5 29 11.5 Z" /><glyph glyph-name="Tcommaaccent" unicode="&#x21a;" d="M610 531 l-8 0 l0 25 q0 59 -29.5 97.5 q-29.5 38.5 -91.5 38.5 l-82 0 q-19 0 -24.5 -5 q-5.5 -5 -5.5 -25 l0 -624 q0 -20 5.5 -25 q5.5 -5 24.5 -5 l35 0 l0 -8 l-210 0 l0 8 l35 0 q19 0 24.5 5 q5.5 5 5.5 25 l0 624 q0 20 -5.5 25 q-5.5 5 -24.5 5 l-82 0 q-62 0 -91.5 -38.5 q-29.5 -38.5 -29.5 -97.5 l0 -25 l-8 0 l0 169 l562 0 l0 -169 ZM329 -53 q40 0 40 -54 q0 -48 -21.5 -73 q-21.5 -25 -53.5 -25 l0 8 q23 0 39.5 15 q16.5 15 16.5 32 q0 17 -21 17 q-18 0 -29 11 q-11 11 -11 29 q0 17 11 28.5 q11 11.5 29 11.5 Z" /><glyph glyph-name="tcommaaccent" unicode="&#x21b;" d="M163 500 l122 0 l0 -12 l-122 0 l0 -409 q0 -33 16 -49.5 q16 -16.5 36 -16.5 q21 0 38 11 q17 11 25 29 l7 -3 q-8 -23 -37 -40 q-29 -17 -64 -17 q-43 0 -71.5 23.5 q-28.5 23.5 -28.5 70.5 l0 401 l-65 0 l0 12 l65 0 l0 98 l75 32 l4 0 l0 -130 ZM184 -49 q40 0 40 -54 q0 -48 -21.5 -73 q-21.5 -25 -53.5 -25 l0 8 q23 0 39.5 15 q16.5 15 16.5 32 q0 17 -21 17 q-18 0 -29 11 q-11 11 -11 29 q0 17 11 28.5 q11 11.5 29 11.5 Z" /><glyph glyph-name="dotlessj" unicode="&#x237;" d="M172 500 l0 -597 q0 -72 -38.5 -112.5 q-38.5 -40.5 -104.5 -40.5 q-42 0 -69.5 17 q-27.5 17 -27.5 41 q0 15 9.5 24.5 q9.5 9.5 25.5 9.5 q16 0 26 -9.5 q10 -9.5 10 -23.5 q0 -8 -5.5 -18.5 q-5.5 -10.5 -5.5 -15.5 q0 -17 37 -17 q37 0 50.5 27 q13.5 27 13.5 81 l0 574 q0 20 -6.5 27 q-6.5 7 -23.5 3 l-35 -8 l0 8 l144 30 Z" /><glyph glyph-name="circumflex" unicode="&#x2c6;" d="M205 713 l9 0 q24 -40 69 -87 q45 -47 81 -67 l-3 -8 q-100 41 -152 82 q-49 -40 -152 -82 l-4 8 q36 20 82 68 q46 48 70 86 Z" /><glyph glyph-name="caron" unicode="&#x2c7;" d="M361 710 l4 -8 q-37 -19 -81.5 -66.5 q-44.5 -47.5 -69.5 -87.5 l-9 0 q-24 39 -69.5 86.5 q-45.5 47.5 -82.5 67.5 l4 8 q105 -43 152 -82 q49 40 152 82 Z" /><glyph glyph-name="breve" unicode="&#x2d8;" d="M314 693 l8 0 q-22 -143 -136 -143 q-109 0 -131 143 l8 0 q16 -90 123 -90 q62 0 92 26.5 q30 26.5 36 63.5 Z" /><glyph glyph-name="dotaccent" unicode="&#x2d9;" d="M69.5 657.5 q14.5 14.5 34.5 14.5 q20 0 34 -14.5 q14 -14.5 14 -34.5 q0 -19 -14 -33.5 q-14 -14.5 -34 -14.5 q-20 0 -34.5 14 q-14.5 14 -14.5 34 q0 20 14.5 34.5 Z" /><glyph glyph-name="ring" unicode="&#x2da;" d="M70 750 q30 30 75 30 q45 0 75 -30 q30 -30 30 -75 q0 -45 -30 -75 q-30 -30 -75 -30 q-45 0 -75 30 q-30 30 -30 75 q0 45 30 75 ZM212 742 q-26 26 -67 26 q-41 0 -67 -26 q-26 -26 -26 -67 q0 -41 26 -67 q26 -26 67 -26 q41 0 67 26 q26 26 26 67 q0 41 -26 67 Z" /><glyph glyph-name="ogonek" unicode="&#x2db;" d="M157 0 l8 0 q-30 -26 -51 -63 q-21 -37 -21 -67 q0 -27 14.5 -42.5 q14.5 -15.5 40.5 -15.5 q31 0 55 20 l1 -7 q-31 -29 -77 -29 q-32 0 -54.5 17.5 q-22.5 17.5 -22.5 50.5 q0 64 107 136 Z" /><glyph glyph-name="tilde" unicode="&#x2dc;" d="M327 669 l8 0 q0 -44 -18.5 -67.5 q-18.5 -23.5 -51.5 -23.5 q-26 0 -78 21.5 q-52 21.5 -74 21.5 q-50 0 -50 -43 l-8 0 q0 43 20 67 q20 24 54 24 q27 0 75 -22 q48 -22 72 -22 q24 0 37.5 12 q13.5 12 13.5 32 Z" /><glyph glyph-name="hungarumlaut" unicode="&#x2dd;" d="M203 710 q15 0 25 -9.5 q10 -9.5 10 -26.5 q0 -9 -3.5 -17.5 q-3.5 -8.5 -12.5 -17 q-9 -8.5 -16.5 -15.5 q-7.5 -7 -22.5 -15 q-15 -8 -24.5 -13.5 q-9.5 -5.5 -27.5 -13.5 q-18 -8 -26 -11.5 q-8 -3.5 -26.5 -11 q-18.5 -7.5 -22.5 -9.5 l-2 4 q67 32 95 106 q19 50 54 50 ZM363 710 q15 0 25 -9.5 q10 -9.5 10 -26.5 q0 -9 -3.5 -17.5 q-3.5 -8.5 -12.5 -17 q-9 -8.5 -16.5 -15.5 q-7.5 -7 -22.5 -15 q-15 -8 -24.5 -13.5 q-9.5 -5.5 -27.5 -13.5 q-18 -8 -26 -11.5 q-8 -3.5 -26.5 -11 q-18.5 -7.5 -22.5 -9.5 l-2 4 q67 32 95 106 q19 50 54 50 Z" /><glyph glyph-name="commaaccent" unicode="&#x326;" d="M95 -53 q40 0 40 -54 q0 -48 -21.5 -73 q-21.5 -25 -53.5 -25 l0 8 q23 0 39.5 15 q16.5 15 16.5 32 q0 17 -21 17 q-18 0 -29 11 q-11 11 -11 29 q0 17 11 28.5 q11 11.5 29 11.5 Z" /><glyph glyph-name="Delta" unicode="&#x394;" d="M644 0 l-594 0 l281 705 l8 0 l305 -705 ZM551 8 l-254 590 l-235 -590 l489 0 Z" /><glyph glyph-name="Omega" unicode="&#x3a9;" d="M738 169 l8 0 l0 -169 l-265 0 l0 93 q104 29 158.5 107 q54.5 78 54.5 186 q0 135 -77.5 225.5 q-77.5 90.5 -194.5 90.5 q-117 0 -195 -90.5 q-78 -90.5 -78 -225.5 q0 -108 54.5 -186 q54.5 -78 158.5 -107 l0 -8 l-1 0 l0 -85 l-265 0 l0 169 l8 0 l0 -25 q0 -54 31.5 -95 q31.5 -41 92.5 -41 l125 0 l0 79 q-137 27 -211 107.5 q-74 80.5 -74 196.5 q0 137 102.5 228 q102.5 91 251.5 91 q149 0 251 -91 q102 -91 102 -228 q0 -116 -74.5 -196.5 q-74.5 -80.5 -211.5 -107.5 l0 -79 l124 0 q62 0 93.5 41 q31.5 41 31.5 95 l0 25 Z" /><glyph glyph-name="mu" unicode="&#x3bc;" d="M573 8 l0 -8 l-144 0 l0 143 q-14 -76 -60.5 -114.5 q-46.5 -38.5 -101.5 -38.5 q-56 0 -95 21 l0 -108 q0 -72 -38.5 -112.5 q-38.5 -40.5 -104.5 -40.5 q-42 0 -69.5 17 q-27.5 17 -27.5 41 q0 15 9.5 24.5 q9.5 9.5 25.5 9.5 q16 0 26 -9.5 q10 -9.5 10 -23.5 q0 -8 -5.5 -18.5 q-5.5 -10.5 -5.5 -15.5 q0 -17 37 -17 q37 0 50.5 27 q13.5 27 13.5 81 l0 574 q0 20 -6.5 27 q-6.5 7 -23.5 3 l-35 -8 l0 8 l144 30 l0 -345 q0 -151 111 -151 q65 0 105.5 59.5 q40.5 59.5 40.5 152.5 l0 224 q0 20 -6.5 27 q-6.5 7 -23.5 3 l-35 -8 l0 8 l144 30 l0 -462 q0 -20 5 -25 q5 -5 25 -5 l35 0 Z" /><glyph glyph-name="pi" unicode="&#x3c0;" d="M573 492 l-35 0 q-20 0 -25 -5 q-5 -5 -5 -25 l0 -424 q0 -20 5 -25 q5 -5 25 -5 l35 0 l0 -8 l-209 0 l0 8 l35 0 q19 0 24.5 5 q5.5 5 5.5 25 l0 454 l-257 0 l0 -454 q0 -20 5 -25 q5 -5 25 -5 l35 0 l0 -8 l-209 0 l0 8 l35 0 q19 0 24.5 5 q5.5 5 5.5 25 l0 424 q0 20 -5.5 25 q-5.5 5 -24.5 5 l-35 0 l0 8 l545 0 l0 -8 Z" /><glyph glyph-name="Wgrave" unicode="&#x1e80;" d="M552 756 l-3 -6 q-6 3 -22.5 9.5 q-16.5 6.5 -26 11 q-9.5 4.5 -26.5 12 q-17 7.5 -27.5 13 q-10.5 5.5 -24 13.5 q-13.5 8 -22.5 15.5 q-9 7.5 -17 15.5 q-8 8 -12 16.5 q-4 8.5 -4 17.5 q0 17 10 26.5 q10 9.5 25 9.5 q35 0 54 -50 q29 -72 96 -104 ZM1031 700 l0 -8 l-44 0 q-20 0 -26.5 -5 q-6.5 -5 -14.5 -25 l-246 -667 l-8 0 l-173 477 l-179 -477 l-8 0 l-250 667 q-7 20 -15 25 q-8 5 -28 5 l-30 0 l0 8 l241 0 l0 -8 l-64 0 q-15 0 -18 -7 q-3 -7 3 -23 l202 -558 l142 378 l-65 180 q-7 20 -15 25 q-8 5 -28 5 l-31 0 l0 8 l242 0 l0 -8 l-65 0 q-15 0 -18 -7 q-3 -7 3 -23 l196 -553 l203 552 q11 31 -15 31 l-68 0 l0 8 l177 0 Z" /><glyph glyph-name="wgrave" unicode="&#x1e81;" d="M511 556 l-3 -6 q-6 3 -22.5 9.5 q-16.5 6.5 -26 11 q-9.5 4.5 -26.5 12 q-17 7.5 -27.5 13 q-10.5 5.5 -24 13.5 q-13.5 8 -22.5 15.5 q-9 7.5 -17 15.5 q-8 8 -12 16.5 q-4 8.5 -4 17.5 q0 17 10 26.5 q10 9.5 25 9.5 q35 0 54 -50 q29 -72 96 -104 ZM885 500 l0 -8 l-46 0 q-20 0 -26.5 -5 q-6.5 -5 -14.5 -25 l-179 -472 l-9 0 l-164 394 l-149 -394 l-9 0 l-197 472 q-8 20 -15 25 q-7 5 -26 5 l-41 0 l0 8 l254 0 l0 -8 l-72 0 q-15 0 -18 -7 q-3 -7 3 -23 l151 -371 l115 305 l-28 66 q-9 20 -15.5 25 q-6.5 5 -25.5 5 l-42 0 l0 8 l255 0 l0 -8 l-72 0 q-16 0 -19 -7 q-3 -7 4 -23 l150 -371 l140 371 q12 30 -15 30 l-78 0 l0 8 l189 0 Z" /><glyph glyph-name="Wacute" unicode="&#x1e82;" d="M641 874 q0 -9 -3.5 -17.5 q-3.5 -8.5 -12.5 -17 q-9 -8.5 -16.5 -15.5 q-7.5 -7 -22.5 -15 q-15 -8 -24.5 -13.5 q-9.5 -5.5 -27.5 -13.5 q-18 -8 -26 -11.5 q-8 -3.5 -26.5 -11 q-18.5 -7.5 -22.5 -9.5 l-3 6 q69 33 96 104 q19 50 54 50 q15 0 25 -9.5 q10 -9.5 10 -26.5 ZM1031 700 l0 -8 l-44 0 q-20 0 -26.5 -5 q-6.5 -5 -14.5 -25 l-246 -667 l-8 0 l-173 477 l-179 -477 l-8 0 l-250 667 q-7 20 -15 25 q-8 5 -28 5 l-30 0 l0 8 l241 0 l0 -8 l-64 0 q-15 0 -18 -7 q-3 -7 3 -23 l202 -558 l142 378 l-65 180 q-7 20 -15 25 q-8 5 -28 5 l-31 0 l0 8 l242 0 l0 -8 l-65 0 q-15 0 -18 -7 q-3 -7 3 -23 l196 -553 l203 552 q11 31 -15 31 l-68 0 l0 8 l177 0 Z" /><glyph glyph-name="wacute" unicode="&#x1e83;" d="M600 674 q0 -9 -3.5 -17.5 q-3.5 -8.5 -12.5 -17 q-9 -8.5 -16.5 -15.5 q-7.5 -7 -22.5 -15 q-15 -8 -24.5 -13.5 q-9.5 -5.5 -27.5 -13.5 q-18 -8 -26 -11.5 q-8 -3.5 -26.5 -11 q-18.5 -7.5 -22.5 -9.5 l-3 6 q69 33 96 104 q19 50 54 50 q15 0 25 -9.5 q10 -9.5 10 -26.5 ZM885 500 l0 -8 l-46 0 q-20 0 -26.5 -5 q-6.5 -5 -14.5 -25 l-179 -472 l-9 0 l-164 394 l-149 -394 l-9 0 l-197 472 q-8 20 -15 25 q-7 5 -26 5 l-41 0 l0 8 l254 0 l0 -8 l-72 0 q-15 0 -18 -7 q-3 -7 3 -23 l151 -371 l115 305 l-28 66 q-9 20 -15.5 25 q-6.5 5 -25.5 5 l-42 0 l0 8 l255 0 l0 -8 l-72 0 q-16 0 -19 -7 q-3 -7 4 -23 l150 -371 l140 371 q12 30 -15 30 l-78 0 l0 8 l189 0 Z" /><glyph glyph-name="Wdieresis" unicode="&#x1e84;" d="M441.5 792 q-12.5 -13 -31.5 -13 q-19 0 -31.5 13 q-12.5 13 -12.5 31 q0 18 13 31 q13 13 31 13 q18 0 31 -13 q13 -13 13 -31 q0 -18 -12.5 -31 ZM611.5 792 q-12.5 -13 -31.5 -13 q-19 0 -31.5 13 q-12.5 13 -12.5 31 q0 18 13 31 q13 13 31 13 q18 0 31 -13 q13 -13 13 -31 q0 -18 -12.5 -31 ZM1031 700 l0 -8 l-44 0 q-20 0 -26.5 -5 q-6.5 -5 -14.5 -25 l-246 -667 l-8 0 l-173 477 l-179 -477 l-8 0 l-250 667 q-7 20 -15 25 q-8 5 -28 5 l-30 0 l0 8 l241 0 l0 -8 l-64 0 q-15 0 -18 -7 q-3 -7 3 -23 l202 -558 l142 378 l-65 180 q-7 20 -15 25 q-8 5 -28 5 l-31 0 l0 8 l242 0 l0 -8 l-65 0 q-15 0 -18 -7 q-3 -7 3 -23 l196 -553 l203 552 q11 31 -15 31 l-68 0 l0 8 l177 0 Z" /><glyph glyph-name="wdieresis" unicode="&#x1e85;" d="M400.5 592 q-12.5 -13 -31.5 -13 q-19 0 -31.5 13 q-12.5 13 -12.5 31 q0 18 13 31 q13 13 31 13 q18 0 31 -13 q13 -13 13 -31 q0 -18 -12.5 -31 ZM570.5 592 q-12.5 -13 -31.5 -13 q-19 0 -31.5 13 q-12.5 13 -12.5 31 q0 18 13 31 q13 13 31 13 q18 0 31 -13 q13 -13 13 -31 q0 -18 -12.5 -31 ZM885 500 l0 -8 l-46 0 q-20 0 -26.5 -5 q-6.5 -5 -14.5 -25 l-179 -472 l-9 0 l-164 394 l-149 -394 l-9 0 l-197 472 q-8 20 -15 25 q-7 5 -26 5 l-41 0 l0 8 l254 0 l0 -8 l-72 0 q-15 0 -18 -7 q-3 -7 3 -23 l151 -371 l115 305 l-28 66 q-9 20 -15.5 25 q-6.5 5 -25.5 5 l-42 0 l0 8 l255 0 l0 -8 l-72 0 q-16 0 -19 -7 q-3 -7 4 -23 l150 -371 l140 371 q12 30 -15 30 l-78 0 l0 8 l189 0 Z" /><glyph glyph-name="Ygrave" unicode="&#x1ef2;" d="M281 910 q35 0 54 -50 q29 -72 96 -104 l-3 -6 q-6 3 -22.5 9.5 q-16.5 6.5 -26 11 q-9.5 4.5 -26.5 12 q-17 7.5 -27.5 13 q-10.5 5.5 -24 13.5 q-13.5 8 -22.5 15.5 q-9 7.5 -17 15.5 q-8 8 -12 16.5 q-4 8.5 -4 17.5 q0 17 10 26.5 q10 9.5 25 9.5 ZM668 692 l-30 0 q-41 0 -56 -30 l-202 -372 l0 -252 q0 -20 5 -25 q5 -5 25 -5 l35 0 l0 -8 l-210 0 l0 8 l35 0 q20 0 25 5 q5 5 5 25 l0 232 l-213 392 q-10 18 -19.5 24 q-9.5 6 -28.5 6 l-34 0 l0 8 l257 0 l0 -8 l-66 0 q-20 0 -22 -7.5 q-2 -7.5 7 -22.5 l195 -363 l195 361 q9 18 5.5 25 q-3.5 7 -20.5 7 l-73 0 l0 8 l185 0 l0 -8 Z" /><glyph glyph-name="ygrave" unicode="&#x1ef3;" d="M225 710 q35 0 54 -50 q29 -72 96 -104 l-3 -6 q-6 3 -22.5 9.5 q-16.5 6.5 -26 11 q-9.5 4.5 -26.5 12 q-17 7.5 -27.5 13 q-10.5 5.5 -24 13.5 q-13.5 8 -22.5 15.5 q-9 7.5 -17 15.5 q-8 8 -12 16.5 q-4 8.5 -4 17.5 q0 17 10 26.5 q10 9.5 25 9.5 ZM569 492 l-46 0 q-20 0 -26.5 -5 q-6.5 -5 -14.5 -25 l-179 -472 q-44 -116 -98 -178 q-54 -62 -107 -62 q-37 0 -58 16.5 q-21 16.5 -21 41.5 q0 15 9.5 24.5 q9.5 9.5 25.5 9.5 q16 0 25.5 -9.5 q9.5 -9.5 9.5 -23.5 q0 -9 -5 -20 q-5 -11 -5 -16 q0 -15 19 -15 q49 0 101 59.5 q52 59.5 96 172.5 l-197 472 q-9 20 -16 25 q-7 5 -26 5 l-41 0 l0 8 l255 0 l0 -8 l-72 0 q-16 0 -19 -7 q-3 -7 4 -23 l150 -371 l140 371 q12 30 -15 30 l-78 0 l0 8 l189 0 l0 -8 Z" /><glyph glyph-name="endash" unicode="&#x2013;" d="M440 243 l-390 0 l0 12 l390 0 l0 -12 Z" /><glyph glyph-name="emdash" unicode="&#x2014;" d="M590 243 l-540 0 l0 12 l540 0 l0 -12 Z" /><glyph glyph-name="quoteleft" unicode="&#x2018;" d="M128 710 l5 -6 q-25 -16 -41.5 -40 q-16.5 -24 -16.5 -44 q0 -20 22 -20 q17 0 27.5 -11.5 q10.5 -11.5 10.5 -28.5 q0 -17 -10.5 -28.5 q-10.5 -11.5 -29.5 -11.5 q-40 0 -40 54 q0 92 73 136 Z" /><glyph glyph-name="quoteright" unicode="&#x2019;" d="M95 710 q40 0 40 -53 q0 -91 -72 -137 l-5 6 q24 16 40.5 40 q16.5 24 16.5 44 q0 20 -21 20 q-18 0 -28.5 11.5 q-10.5 11.5 -10.5 28.5 q0 17 11 28.5 q11 11.5 29 11.5 Z" /><glyph glyph-name="quotesinglbase" unicode="&#x201a;" d="M95 70 q40 0 40 -53 q0 -93 -72 -137 l-5 6 q24 16 40.5 40 q16.5 24 16.5 44 q0 20 -21 20 q-18 0 -28.5 11.5 q-10.5 11.5 -10.5 28.5 q0 17 11 28.5 q11 11.5 29 11.5 Z" /><glyph glyph-name="quotedblleft" unicode="&#x201c;" d="M128 710 l5 -6 q-25 -16 -41.5 -40 q-16.5 -24 -16.5 -44 q0 -20 22 -20 q17 0 27.5 -11.5 q10.5 -11.5 10.5 -28.5 q0 -17 -10.5 -28.5 q-10.5 -11.5 -29.5 -11.5 q-40 0 -40 54 q0 92 73 136 ZM255 710 l5 -6 q-24 -16 -40.5 -40 q-16.5 -24 -16.5 -44 q0 -20 21 -20 q18 0 28.5 -11 q10.5 -11 10.5 -29 q0 -17 -11 -28.5 q-11 -11.5 -29 -11.5 q-40 0 -40 54 q0 92 72 136 Z" /><glyph glyph-name="quotedblright" unicode="&#x201d;" d="M159 710 q40 0 40 -53 q0 -91 -72 -137 l-6 6 q25 16 41.5 40 q16.5 24 16.5 44 q0 20 -22 20 q-17 0 -27.5 11.5 q-10.5 11.5 -10.5 28.5 q0 17 11 28.5 q11 11.5 29 11.5 Z" /><glyph glyph-name="quotedblbase" unicode="&#x201e;" d="M159 70 q40 0 40 -53 q0 -93 -72 -137 l-6 6 q25 16 41.5 40 q16.5 24 16.5 44 q0 20 -22 20 q-17 0 -27.5 11.5 q-10.5 11.5 -10.5 28.5 q0 17 11 28.5 q11 11.5 29 11.5 Z" /><glyph glyph-name="dagger" unicode="&#x2020;" d="M194 699 q11 11 29 11 q18 0 29 -11 q11 -11 11 -26 q0 -22 -17.5 -61 q-17.5 -39 -18.5 -65 q26 1 65 18.5 q39 17.5 61 17.5 q15 0 26 -11 q11 -11 11 -29 q0 -18 -11 -29 q-11 -11 -26 -11 q-22 0 -61 17 q-39 17 -65 18 q1 -26 18.5 -96 q17.5 -70 17.5 -92 q0 -8 -18 -125 q-18 -117 -18 -225 l-8 0 q0 108 -18 225 q-18 117 -18 125 q0 22 17 92 q17 70 18 96 q-26 -1 -65 -18 q-39 -17 -60 -17 q-15 0 -26.5 11 q-11.5 11 -11.5 29 q0 18 11.5 29 q11.5 11 26.5 11 q21 0 60 -17.5 q39 -17.5 65 -18.5 q-1 26 -18 65 q-17 39 -17 61 q0 15 11 26 Z" /><glyph glyph-name="daggerdbl" unicode="&#x2021;" d="M194 699 q11 11 29 11 q18 0 29 -11 q11 -11 11 -26 q0 -22 -17.5 -61 q-17.5 -39 -18.5 -65 q26 1 65 18.5 q39 17.5 61 17.5 q15 0 26 -11 q11 -11 11 -29 q0 -18 -11 -29 q-11 -11 -26 -11 q-22 0 -61 17.5 q-39 17.5 -65 18.5 q1 -31 18.5 -99.5 q17.5 -68.5 17.5 -89.5 q0 -21 -17.5 -89 q-17.5 -68 -18.5 -99 q26 1 65 18.5 q39 17.5 61 17.5 q15 0 26 -11 q11 -11 11 -29 q0 -18 -11 -29 q-11 -11 -26 -11 q-22 0 -61 17.5 q-39 17.5 -65 18.5 q1 -26 18.5 -65 q17.5 -39 17.5 -61 q0 -15 -11 -26.5 q-11 -11.5 -29 -11.5 q-18 0 -29 11.5 q-11 11.5 -11 26.5 q0 22 17.5 61 q17.5 39 18.5 65 q-26 -1 -65 -18.5 q-39 -17.5 -61 -17.5 q-15 0 -26.5 11 q-11.5 11 -11.5 29 q0 18 11.5 29 q11.5 11 26.5 11 q22 0 61 -17.5 q39 -17.5 65 -18.5 q-1 31 -18.5 99 q-17.5 68 -17.5 89 q0 21 17.5 89.5 q17.5 68.5 18.5 99.5 q-26 -1 -65 -18.5 q-39 -17.5 -61 -17.5 q-15 0 -26.5 11 q-11.5 11 -11.5 29 q0 18 11.5 29 q11.5 11 26.5 11 q22 0 61 -17.5 q39 -17.5 65 -18.5 q-1 26 -18.5 65 q-17.5 39 -17.5 61 q0 15 11 26 Z" /><glyph glyph-name="bullet" unicode="&#x2022;" d="M62 304 q22 23 56 23 q34 0 55.5 -22.5 q21.5 -22.5 21.5 -55.5 q0 -32 -21.5 -54.5 q-21.5 -22.5 -55.5 -22.5 q-34 0 -56 22.5 q-22 22.5 -22 54.5 q0 32 22 55 Z" /><glyph glyph-name="ellipsis" unicode="&#x2026;" d="M66 58.5 q11 11.5 29 11.5 q18 0 29 -11.5 q11 -11.5 11 -28.5 q0 -17 -11 -28.5 q-11 -11.5 -29 -11.5 q-18 0 -29 11.5 q-11 11.5 -11 28.5 q0 17 11 28.5 ZM236 58.5 q11 11.5 29 11.5 q18 0 29 -11.5 q11 -11.5 11 -28.5 q0 -17 -11 -28.5 q-11 -11.5 -29 -11.5 q-18 0 -29 11.5 q-11 11.5 -11 28.5 q0 17 11 28.5 ZM406 58.5 q11 11.5 29 11.5 q18 0 29 -11.5 q11 -11.5 11 -28.5 q0 -17 -11 -28.5 q-11 -11.5 -29 -11.5 q-18 0 -29 11.5 q-11 11.5 -11 28.5 q0 17 11 28.5 Z" /><glyph glyph-name="perthousand" unicode="&#x2030;" d="M211 700 q74 0 117 -50 q43 -50 43 -130 q0 -80 -43 -130 q-43 -50 -117 -50 q-75 0 -118 50 q-43 50 -43 130 q0 80 43 130 q43 50 118 50 ZM219 0 l-13 0 l307 700 l13 0 l-307 -700 ZM210 696 q-88 0 -88 -176 q0 -176 88 -176 q89 0 89 176 q0 176 -89 176 ZM522 360 q74 0 117 -50 q43 -50 43 -130 q0 -80 -43 -130 q-43 -50 -117 -50 q-75 0 -118 50 q-43 50 -43 130 q0 80 43 130 q43 50 118 50 ZM771.5 310.5 q42.5 49.5 117.5 49.5 q75 0 117.5 -49.5 q42.5 -49.5 42.5 -130.5 q0 -81 -42.5 -130.5 q-42.5 -49.5 -117.5 -49.5 q-75 0 -117.5 49.5 q-42.5 49.5 -42.5 130.5 q0 81 42.5 130.5 ZM521 356 q-88 0 -88 -176 q0 -176 88 -176 q89 0 89 176 q0 176 -89 176 ZM889 356 q-89 0 -89 -176 q0 -176 89 -176 q88 0 88 176 q0 176 -88 176 Z" /><glyph glyph-name="guilsinglleft" unicode="&#x2039;" d="M310 455 l0 -4 q-46 -121 -168 -202 q121 -78 168 -202 l0 -4 q-115 139 -270 203 l0 6 q155 64 270 203 Z" /><glyph glyph-name="guilsinglright" unicode="&#x203a;" d="M40 451 l0 4 q115 -139 270 -203 l0 -6 q-155 -64 -270 -203 l0 4 q47 124 168 202 q-122 81 -168 202 Z" /><glyph glyph-name="fraction" unicode="&#x2044;" d="M93 0 l-13 0 l307 700 l13 0 l-307 -700 Z" /><glyph glyph-name="euro" unicode="&#x20ac;" d="M472 702 q-100 0 -172.5 -73.5 q-72.5 -73.5 -93.5 -193.5 l217 0 l0 -12 l-219 0 q-5 -38 -5 -73 q0 -39 6 -75 l218 0 l0 -12 l-216 0 q21 -119 93 -192 q72 -73 172 -73 q96 0 155 41 q59 41 81 134 l2 10 l8 0 l0 -183 l-8 0 l0 35 q0 15 -11 15 q-6 0 -38 -15 q-32 -15 -83.5 -30 q-51.5 -15 -105.5 -15 q-125 0 -220.5 76 q-95.5 76 -123.5 197 l-78 0 l0 12 l75 0 q-7 34 -7 75 q0 41 7 73 l-75 0 l0 12 l77 0 q28 122 123.5 198.5 q95.5 76.5 221.5 76.5 q55 0 106 -15 q51 -15 83 -30 q32 -15 38 -15 q11 0 11 15 l0 35 l8 0 l0 -182 l-8 0 l-2 10 q-22 93 -81 133.5 q-59 40.5 -155 40.5 Z" /><glyph glyph-name="trademark" unicode="&#x2122;" d="M399 594 l-4 0 l0 13 q0 33 -19.5 61 q-19.5 28 -57.5 28 l-38 0 q-11 0 -14.5 -3.5 q-3.5 -3.5 -3.5 -14.5 l0 -376 q0 -11 3.5 -14.5 q3.5 -3.5 14.5 -3.5 l17 0 l0 -4 l-144 0 l0 4 l16 0 q12 0 15 3.5 q3 3.5 3 14.5 l0 376 q0 11 -3 14.5 q-3 3.5 -15 3.5 l-39 0 q-37 0 -56.5 -28 q-19.5 -28 -19.5 -61 l0 -13 l-4 0 l0 106 l349 0 l0 -106 ZM927 696 l-17 0 q-12 0 -15 -3.5 q-3 -3.5 -3 -14.5 l0 -376 q0 -11 3 -14.5 q3 -3.5 15 -3.5 l17 0 l0 -4 l-144 0 l0 4 l16 0 q12 0 15 3.5 q3 3.5 3 14.5 l0 376 l-160 -398 l-4 0 l-169 403 l0 -381 q0 -11 3.5 -14.5 q3.5 -3.5 14.5 -3.5 l23 0 l0 -4 l-86 0 l0 4 l24 0 q11 0 14 3.5 q3 3.5 3 14.5 l0 378 q0 10 -3 13 q-3 3 -15 3 l-23 0 l0 4 l118 0 l138 -319 l127 319 l105 0 l0 -4 Z" /><glyph glyph-name="oneeighth" unicode="&#x215b;" d="M181 350 l-157 0 l0 4 l35 0 q10 0 12.5 2.5 q2.5 2.5 2.5 12.5 l0 290 q0 9 -3 11.5 q-3 2.5 -12 1.5 q-18 -2 -35 -2 l0 4 q39 0 67.5 9 q28.5 9 36.5 22 l4 0 l0 -336 q0 -10 2.5 -12.5 q2.5 -2.5 12.5 -2.5 l34 0 l0 -4 ZM473 700 l-307 -700 l-13 0 l307 700 l13 0 ZM581 197 q32 -17 48 -27 q16 -10 32 -31.5 q16 -21.5 16 -47.5 q0 -46 -34 -71 q-34 -25 -91 -25 q-122 0 -122 80 q0 57 90 94 q-37 21 -58 43.5 q-21 22.5 -21 55.5 q0 36 30 61.5 q30 25.5 85 25.5 q50 0 77.5 -22 q27.5 -22 27.5 -55 q0 -53 -80 -81 ZM495 291 q0 -30 20.5 -49.5 q20.5 -19.5 61.5 -41.5 q44 21 44 80 q0 36 -19 53.5 q-19 17.5 -46 17.5 q-22 0 -41.5 -15.5 q-19.5 -15.5 -19.5 -44.5 ZM552 -1 q37 0 54 19.5 q17 19.5 17 46.5 q0 8 -1.5 15.5 q-1.5 7.5 -5.5 14.5 q-4 7 -7.5 12.5 q-3.5 5.5 -11 12 q-7.5 6.5 -12 10 q-4.5 3.5 -14.5 9.5 q-10 6 -14.5 9 q-4.5 3 -16.5 9.5 q-12 6.5 -16 8.5 q-55 -28 -55 -88 q0 -39 22.5 -59 q22.5 -20 60.5 -20 Z" /><glyph glyph-name="threeeighths" unicode="&#x215c;" d="M266 441 q0 -48 -37.5 -72 q-37.5 -24 -96.5 -24 q-42 0 -72.5 19 q-30.5 19 -30.5 42 q0 25 25 25 q12 0 19 -7 q7 -7 7 -18 q0 -13 1 -19.5 q1 -6.5 5 -17 q4 -10.5 15.5 -15.5 q11.5 -5 30.5 -5 q74 0 74 91 q0 91 -94 91 q-7 0 -15 -2 q-8 -2 -11 -2 q-8 0 -8 6 q0 6 8 6 q3 0 11 -2 q8 -2 15 -2 q90 2 90 89 q0 36 -19 56.5 q-19 20.5 -51 20.5 q-12 0 -20.5 -3 q-8.5 -3 -13 -5.5 q-4.5 -2.5 -7 -10.5 q-2.5 -8 -3 -11 q-0.5 -3 0 -14 q0.5 -11 0.5 -12 q0 -11 -7 -18 q-7 -7 -19 -7 q-25 0 -25 25 q0 22 28.5 41 q28.5 19 65.5 19 q57 0 89.5 -20.5 q32.5 -20.5 32.5 -59.5 q0 -40 -36 -62 q-36 -22 -83 -30 q32 -2 59 -10.5 q27 -8.5 49.5 -29.5 q22.5 -21 22.5 -52 ZM543 700 l-307 -700 l-13 0 l307 700 l13 0 ZM651 197 q32 -17 48 -27 q16 -10 32 -31.5 q16 -21.5 16 -47.5 q0 -46 -34 -71 q-34 -25 -91 -25 q-122 0 -122 80 q0 57 90 94 q-37 21 -58 43.5 q-21 22.5 -21 55.5 q0 36 30 61.5 q30 25.5 85 25.5 q50 0 77.5 -22 q27.5 -22 27.5 -55 q0 -53 -80 -81 ZM565 291 q0 -30 20.5 -49.5 q20.5 -19.5 61.5 -41.5 q44 21 44 80 q0 36 -19 53.5 q-19 17.5 -46 17.5 q-22 0 -41.5 -15.5 q-19.5 -15.5 -19.5 -44.5 ZM622 -1 q37 0 54 19.5 q17 19.5 17 46.5 q0 8 -1.5 15.5 q-1.5 7.5 -5.5 14.5 q-4 7 -7.5 12.5 q-3.5 5.5 -11 12 q-7.5 6.5 -12 10 q-4.5 3.5 -14.5 9.5 q-10 6 -14.5 9 q-4.5 3 -16.5 9.5 q-12 6.5 -16 8.5 q-55 -28 -55 -88 q0 -39 22.5 -59 q22.5 -20 60.5 -20 Z" /><glyph glyph-name="fiveeighths" unicode="&#x215d;" d="M266 453 q0 -55 -39 -81.5 q-39 -26.5 -95 -26.5 q-42 0 -72.5 19 q-30.5 19 -30.5 42 q0 25 25 25 q12 0 19 -7 q7 -7 7 -18 q0 -13 1 -19.5 q1 -6.5 5 -17 q4 -10.5 15.5 -15.5 q11.5 -5 30.5 -5 q40 0 57 24 q17 24 17 77 q0 101 -72 101 q-46 0 -77 -33 l-4 0 l13 182 l0 -10 l1 10 q31 0 85 -8 q54 -8 69 -8 q31 0 31 24 l4 0 q0 -70 -67 -70 q-21 0 -61.5 5 q-40.5 5 -60.5 5 l-10 -124 q34 31 82 31 q55 0 91 -25.5 q36 -25.5 36 -76.5 ZM548 700 l-307 -700 l-13 0 l307 700 l13 0 ZM656 197 q32 -17 48 -27 q16 -10 32 -31.5 q16 -21.5 16 -47.5 q0 -46 -34 -71 q-34 -25 -91 -25 q-122 0 -122 80 q0 57 90 94 q-37 21 -58 43.5 q-21 22.5 -21 55.5 q0 36 30 61.5 q30 25.5 85 25.5 q50 0 77.5 -22 q27.5 -22 27.5 -55 q0 -53 -80 -81 ZM570 291 q0 -30 20.5 -49.5 q20.5 -19.5 61.5 -41.5 q44 21 44 80 q0 36 -19 53.5 q-19 17.5 -46 17.5 q-22 0 -41.5 -15.5 q-19.5 -15.5 -19.5 -44.5 ZM627 -1 q37 0 54 19.5 q17 19.5 17 46.5 q0 8 -1.5 15.5 q-1.5 7.5 -5.5 14.5 q-4 7 -7.5 12.5 q-3.5 5.5 -11 12 q-7.5 6.5 -12 10 q-4.5 3.5 -14.5 9.5 q-10 6 -14.5 9 q-4.5 3 -16.5 9.5 q-12 6.5 -16 8.5 q-55 -28 -55 -88 q0 -39 22.5 -59 q22.5 -20 60.5 -20 Z" /><glyph glyph-name="seveneighths" unicode="&#x215e;" d="M271 705 l4 0 q-13 -30 -37.5 -70 q-24.5 -40 -42 -68.5 q-17.5 -28.5 -31 -77.5 q-13.5 -49 -13.5 -107 q0 -36 -30 -36 q-12 0 -20.5 8 q-8.5 8 -8.5 25 q0 40 28.5 91 q28.5 51 73 111.5 q44.5 60.5 59.5 88.5 q-31 -40 -74 -40 q-25 0 -66 11.5 q-41 11.5 -55 11.5 q-34 0 -34 -29 l0 -16 l-4 0 l0 92 l4 0 l0 -62 q5 67 72 67 q31 0 78.5 -18.5 q47.5 -18.5 62.5 -18.5 q18 0 34 37 ZM495 700 l-307 -700 l-13 0 l307 700 l13 0 ZM603 197 q32 -17 48 -27 q16 -10 32 -31.5 q16 -21.5 16 -47.5 q0 -46 -34 -71 q-34 -25 -91 -25 q-122 0 -122 80 q0 57 90 94 q-37 21 -58 43.5 q-21 22.5 -21 55.5 q0 36 30 61.5 q30 25.5 85 25.5 q50 0 77.5 -22 q27.5 -22 27.5 -55 q0 -53 -80 -81 ZM517 291 q0 -30 20.5 -49.5 q20.5 -19.5 61.5 -41.5 q44 21 44 80 q0 36 -19 53.5 q-19 17.5 -46 17.5 q-22 0 -41.5 -15.5 q-19.5 -15.5 -19.5 -44.5 ZM574 -1 q37 0 54 19.5 q17 19.5 17 46.5 q0 8 -1.5 15.5 q-1.5 7.5 -5.5 14.5 q-4 7 -7.5 12.5 q-3.5 5.5 -11 12 q-7.5 6.5 -12 10 q-4.5 3.5 -14.5 9.5 q-10 6 -14.5 9 q-4.5 3 -16.5 9.5 q-12 6.5 -16 8.5 q-55 -28 -55 -88 q0 -39 22.5 -59 q22.5 -20 60.5 -20 Z" /><glyph glyph-name="arrowleft" unicode="&#x2190;" d="M289 485 l5 -5 q-25 -56 -44 -124 l174 0 l61 87 q9 12 24 12 l45 0 l-67 -99 l45 0 l61 87 q9 12 24 12 l45 0 l-67 -99 l45 0 l61 87 q9 12 24 12 l45 0 l-75 -105 l75 -105 l-45 0 q-15 0 -24 12 l-61 87 l-45 0 l67 -99 l-45 0 q-15 0 -24 12 l-61 87 l-45 0 l67 -99 l-45 0 q-15 0 -24 12 l-61 87 l-174 0 q19 -68 44 -124 l-5 -5 q-134 100 -239 130 l0 10 q105 30 239 130 Z" /><glyph glyph-name="arrowup" unicode="&#x2191;" d="M205 710 l10 0 q30 -105 130 -239 l-5 -5 q-56 25 -124 44 l0 -174 l87 -61 q12 -9 12 -24 l0 -45 l-99 67 l0 -45 l87 -61 q12 -9 12 -24 l0 -45 l-99 67 l0 -45 l87 -61 q12 -9 12 -24 l0 -45 l-105 75 l-105 -75 l0 45 q0 15 12 24 l87 61 l0 45 l-99 -67 l0 45 q0 15 12 24 l87 61 l0 45 l-99 -67 l0 45 q0 15 12 24 l87 61 l0 174 q-68 -19 -124 -44 l-5 5 q100 134 130 239 Z" /><glyph glyph-name="arrowright" unicode="&#x2192;" d="M526 480 l5 5 q134 -100 239 -130 l0 -10 q-105 -30 -239 -130 l-5 5 q25 56 44 124 l-174 0 l-61 -87 q-9 -12 -24 -12 l-45 0 l67 99 l-45 0 l-61 -87 q-9 -12 -24 -12 l-45 0 l67 99 l-45 0 l-61 -87 q-9 -12 -24 -12 l-45 0 l75 105 l-75 105 l45 0 q15 0 24 -12 l61 -87 l45 0 l-67 99 l45 0 q15 0 24 -12 l61 -87 l45 0 l-67 99 l45 0 q15 0 24 -12 l61 -87 l174 0 q-19 68 -44 124 Z" /><glyph glyph-name="arrowdown" unicode="&#x2193;" d="M315 710 l0 -45 q0 -15 -12 -24 l-87 -61 l0 -45 l99 67 l0 -45 q0 -15 -12 -24 l-87 -61 l0 -45 l99 67 l0 -45 q0 -15 -12 -24 l-87 -61 l0 -174 q68 19 124 44 l5 -5 q-100 -134 -130 -239 l-10 0 q-30 105 -130 239 l5 5 q56 -25 124 -44 l0 174 l-87 61 q-12 9 -12 24 l0 45 l99 -67 l0 45 l-87 61 q-12 9 -12 24 l0 45 l99 -67 l0 45 l-87 61 q-12 9 -12 24 l0 45 l105 -75 l105 75 Z" /><glyph glyph-name="arrowboth" unicode="&#x2194;" d="M526 480 l5 5 q134 -100 239 -130 l0 -10 q-105 -30 -239 -130 l-5 5 q25 56 44 124 l-320 0 q19 -68 44 -124 l-5 -5 q-134 100 -239 130 l0 10 q105 30 239 130 l5 -5 q-25 -56 -44 -124 l320 0 q-19 68 -44 124 Z" /><glyph glyph-name="arrowupdown" unicode="&#x2195;" d="M205 710 l10 0 q30 -105 130 -239 l-5 -5 q-56 25 -124 44 l0 -320 q68 19 124 44 l5 -5 q-100 -134 -130 -239 l-10 0 q-30 105 -130 239 l5 5 q56 -25 124 -44 l0 320 q-68 -19 -124 -44 l-5 5 q100 134 130 239 Z" /><glyph glyph-name="arrowupleft" unicode="&#x2196;" d="M134 341 l-7 0 q-23 164 -77 261 l7 7 q97 -54 261 -77 l0 -7 q-60 -23 -119 -57 l123 -123 l105 19 q15 1 25 -9 l32 -32 l-117 -22 l32 -32 l104 18 q15 3 26 -8 l31 -32 l-117 -23 l32 -31 l105 18 q15 2 25 -8 l32 -32 l-127 -22 l-22 -127 l-32 32 q-10 10 -8 25 l18 105 l-31 32 l-23 -117 l-32 31 q-11 11 -8 26 l18 104 l-32 32 l-22 -117 l-32 32 q-10 10 -9 25 l19 105 l-123 123 q-34 -59 -57 -119 Z" /><glyph glyph-name="arrowupright" unicode="&#x2197;" d="M560 341 l-7 0 q-23 60 -57 119 l-123 -123 l19 -105 q1 -15 -9 -25 l-32 -32 l-22 117 l-32 -32 l18 -104 q3 -15 -8 -26 l-32 -31 l-23 117 l-31 -32 l18 -105 q2 -15 -8 -25 l-32 -32 l-22 127 l-127 22 l32 32 q10 10 25 8 l105 -18 l32 31 l-117 23 l31 32 q11 11 26 8 l104 -18 l32 32 l-117 22 l32 32 q10 10 25 9 l105 -19 l123 123 q-59 34 -119 57 l0 7 q164 23 261 77 l7 -7 q-54 -97 -77 -261 Z" /><glyph glyph-name="arrowdownright" unicode="&#x2198;" d="M553 360 l7 0 q23 -164 77 -261 l-7 -7 q-97 54 -261 77 l0 7 q60 23 119 57 l-123 123 l-105 -19 q-15 -1 -25 9 l-32 32 l117 22 l-32 32 l-104 -18 q-15 -3 -26 8 l-31 32 l117 23 l-32 31 l-105 -18 q-15 -2 -25 8 l-32 32 l127 22 l22 127 l32 -32 q10 -10 8 -25 l-18 -105 l31 -32 l23 117 l32 -31 q11 -11 8 -26 l-18 -104 l32 -32 l22 117 l32 -32 q10 -10 9 -25 l-19 -105 l123 -123 q34 59 57 119 Z" /><glyph glyph-name="arrowdownleft" unicode="&#x2199;" d="M127 360 l7 0 q23 -60 57 -119 l123 123 l-19 105 q-1 15 9 25 l32 32 l22 -117 l32 32 l-18 104 q-3 15 8 26 l32 31 l23 -117 l31 32 l-18 105 q-2 15 8 25 l32 32 l22 -127 l127 -22 l-32 -32 q-10 -10 -25 -8 l-105 18 l-32 -31 l117 -23 l-31 -32 q-11 -11 -26 -8 l-104 18 l-32 -32 l117 -22 l-32 -32 q-10 -10 -25 -9 l-105 19 l-123 -123 q59 -34 119 -57 l0 -7 q-164 -23 -261 -77 l-7 7 q54 97 77 261 Z" /><glyph glyph-name="partialdiff" unicode="&#x2202;" d="M294 750 q115 0 177 -89 q62 -89 62 -247 q0 -56 -6.5 -109 q-6.5 -53 -25 -112 q-18.5 -59 -48 -102.5 q-29.5 -43.5 -79.5 -72 q-50 -28.5 -115 -28.5 q-103 0 -156 61.5 q-53 61.5 -53 159.5 q0 36 7 73 q7 37 27 79 q20 42 50.5 73.5 q30.5 31.5 82 52.5 q51.5 21 117.5 21 q80 0 122 -33 q-1 151 -43.5 207.5 q-42.5 56.5 -124.5 56.5 q-110 0 -176 -99 l-3 7 q67 101 185 101 ZM333 502 q-50 0 -88.5 -24 q-38.5 -24 -60 -58.5 q-21.5 -34.5 -35 -80.5 q-13.5 -46 -18 -83 q-4.5 -37 -4.5 -73 q0 -87 34 -136 q34 -49 98 -49 q38 0 68.5 18 q30.5 18 51 45.5 q20.5 27.5 35 69.5 q14.5 42 22.5 81 q8 39 12.5 89.5 q4.5 50.5 6 85.5 q1.5 35 1.5 78 q-40 37 -123 37 Z" /><glyph glyph-name="emptyset" unicode="&#x2205;" d="M410 710 q145 0 251 -101 l75 75 l8 -8 l-75 -75 q101 -106 101 -251 q0 -149 -105.5 -254.5 q-105.5 -105.5 -254.5 -105.5 q-145 0 -251 101 l-75 -75 l-8 8 l75 75 q-101 106 -101 251 q0 149 105.5 254.5 q105.5 105.5 254.5 105.5 ZM410 698 q-144 0 -246 -102 q-102 -102 -102 -246 q0 -141 98 -242 l492 492 q-101 98 -242 98 ZM660 592 l-492 -492 q101 -98 242 -98 q144 0 246 102 q102 102 102 246 q0 141 -98 242 Z" /><glyph glyph-name="product" unicode="&#x220f;" d="M705 692 l-35 0 q-20 0 -25 -5 q-5 -5 -5 -25 l0 -624 q0 -20 5 -25 q5 -5 25 -5 l35 0 l0 -8 l-210 0 l0 8 l35 0 q20 0 25 5 q5 5 5 25 l0 654 l-367 0 l0 -654 q0 -20 5.5 -25 q5.5 -5 24.5 -5 l35 0 l0 -8 l-210 0 l0 8 l35 0 q19 0 24.5 5 q5.5 5 5.5 25 l0 624 q0 20 -5.5 25 q-5.5 5 -24.5 5 l-35 0 l0 8 l657 0 l0 -8 Z" /><glyph glyph-name="summation" unicode="&#x2211;" d="M560 531 l-8 0 l0 25 q0 57 -31 96.5 q-31 39.5 -93 39.5 l-268 0 l205 -334 l-215 -350 l305 0 q61 0 92.5 40.5 q31.5 40.5 31.5 95.5 l0 25 l8 0 l0 -169 l-529 0 l0 8 l214 351 l-204 333 l0 8 l492 0 l0 -169 Z" /><glyph glyph-name="minus" unicode="&#x2212;" d="M420 293 l-370 0 l0 12 l370 0 l0 -12 Z" /><glyph glyph-name="radical" unicode="&#x221a;" d="M374 -5 l-12 0 l-100 248 l-212 0 l0 12 l220 0 l98 -243 l250 688 l12 0 l-256 -705 Z" /><glyph glyph-name="infinity" unicode="&#x221e;" d="M580 395 q61 0 98 -41 q37 -41 37 -104 q0 -63 -37 -104 q-37 -41 -98 -41 q-34 0 -62.5 10.5 q-28.5 10.5 -54 33 q-25.5 22.5 -41.5 41 q-16 18.5 -40 50.5 q-23 -32 -39.5 -51 q-16.5 -19 -41.5 -41 q-25 -22 -53.5 -32.5 q-28.5 -10.5 -62.5 -10.5 q-61 0 -98 39 q-37 39 -37 106 q0 67 37 106 q37 39 98 39 q34 0 62.5 -10.5 q28.5 -10.5 53.5 -32.5 q25 -22 41.5 -41 q16.5 -19 39.5 -51 q24 32 40 50.5 q16 18.5 41.5 41 q25.5 22.5 54 33 q28.5 10.5 62.5 10.5 ZM185 117 q32 0 59.5 10 q27.5 10 52 32.5 q24.5 22.5 39 40 q14.5 17.5 39.5 50.5 q-25 33 -39.5 50.5 q-14.5 17.5 -39 40 q-24.5 22.5 -52 32.5 q-27.5 10 -59.5 10 q-55 0 -89 -35.5 q-34 -35.5 -34 -97.5 q0 -62 34 -97.5 q34 -35.5 89 -35.5 ZM580 117 q56 0 89.5 36.5 q33.5 36.5 33.5 96.5 q0 60 -33.5 96.5 q-33.5 36.5 -89.5 36.5 q-32 0 -59 -10 q-27 -10 -51.5 -32.5 q-24.5 -22.5 -40 -40.5 q-15.5 -18 -39.5 -50 q24 -32 39.5 -50 q15.5 -18 40 -40.5 q24.5 -22.5 51.5 -32.5 q27 -10 59 -10 Z" /><glyph glyph-name="integral" unicode="&#x222b;" d="M290 750 q38 0 64 -17 q26 -17 26 -41 q0 -15 -10 -24.5 q-10 -9.5 -25 -9.5 q-16 0 -25.5 9.5 q-9.5 9.5 -9.5 23.5 q0 7 5 18 q5 11 5 16 q0 17 -30 17 q-35 0 -48 -25.5 q-13 -25.5 -13 -82.5 l1 -731 q-1 -72 -37.5 -112.5 q-36.5 -40.5 -102.5 -40.5 q-38 0 -64 17 q-26 17 -26 41 q0 15 10 24.5 q10 9.5 25 9.5 q16 0 25.5 -9.5 q9.5 -9.5 9.5 -23.5 q0 -7 -5 -18 q-5 -11 -5 -16 q0 -17 30 -17 q35 0 48 25.5 q13 25.5 13 82.5 l-1 731 q1 72 37.5 112.5 q36.5 40.5 102.5 40.5 Z" /><glyph glyph-name="approxequal" unicode="&#x2248;" d="M382 429 l8 0 q0 -44 -18.5 -67.5 q-18.5 -23.5 -51.5 -23.5 q-26 0 -108 21.5 q-82 21.5 -104 21.5 q-50 0 -50 -43 l-8 0 q0 43 20 67 q20 24 54 24 q26 0 105 -22 q79 -22 102 -22 q24 0 37.5 12 q13.5 12 13.5 32 ZM382 246 l8 0 q0 -43 -18.5 -67 q-18.5 -24 -51.5 -24 q-26 0 -108 22 q-82 22 -104 22 q-50 0 -50 -44 l-8 0 q0 43 20 67 q20 24 54 24 q26 0 105 -21.5 q79 -21.5 102 -21.5 q24 0 37.5 11.5 q13.5 11.5 13.5 31.5 Z" /><glyph glyph-name="notequal" unicode="&#x2260;" d="M268 363 l-54 -148 l206 0 l0 -12 l-210 0 l-75 -203 l-10 6 l72 197 l-147 0 l0 12 l152 0 l54 148 l-206 0 l0 12 l210 0 l75 203 l10 -6 l-72 -197 l147 0 l0 -12 l-152 0 Z" /><glyph glyph-name="lessequal" unicode="&#x2264;" d="M420 413 l-348 -74 l348 -74 l0 -12 l-370 80 l0 12 l370 80 l0 -12 ZM420 143 l-370 0 l0 12 l370 0 l0 -12 Z" /><glyph glyph-name="greaterequal" unicode="&#x2265;" d="M420 345 l0 -12 l-370 -80 l0 12 l348 74 l-348 74 l0 12 l370 -80 ZM420 155 l0 -12 l-370 0 l0 12 l370 0 Z" /><glyph glyph-name="lozenge" unicode="&#x25ca;" d="M340 249 l-145 -145 l-145 145 l145 145 l145 -145 ZM67 249 l128 -128 l128 128 l-128 128 l-128 -128 Z" /><glyph glyph-name="fi" unicode="&#xfb01;" d="M290 750 q74 0 118 -37 q44 -37 44 -90 q0 -23 -13.5 -36.5 q-13.5 -13.5 -32.5 -13.5 q-20 0 -34 11 q-14 11 -14 31 q0 17 16.5 35 q16.5 18 16.5 29 q0 31 -31.5 47 q-31.5 16 -69.5 16 q-118 0 -118 -180 l0 -62 l101 0 l0 -12 l-101 0 l0 -450 q0 -20 5 -25 q5 -5 25 -5 l35 0 l0 -8 l-209 0 l0 8 l35 0 q19 0 24.5 5 q5.5 5 5.5 25 l0 450 l-63 0 l0 12 l63 0 l0 58 q0 94 53.5 143 q53.5 49 143.5 49 ZM445 500 l0 -462 q0 -20 5.5 -25 q5.5 -5 24.5 -5 l35 0 l0 -8 l-209 0 l0 8 l35 0 q20 0 25 5 q5 5 5 25 l0 402 q0 21 -6 27.5 q-6 6.5 -24 2.5 l-35 -8 l0 8 l144 30 Z" /><glyph glyph-name="fl" unicode="&#xfb02;" d="M450 750 l0 -712 q0 -20 5 -25 q5 -5 25 -5 l35 0 l0 -8 l-209 0 l0 8 l35 0 q19 0 24.5 5 q5.5 5 5.5 25 l0 681 q-30 23 -82 23 q-117 0 -117 -180 l0 -62 l101 0 l0 -12 l-101 0 l0 -450 q0 -20 5 -25 q5 -5 25 -5 l35 0 l0 -8 l-209 0 l0 8 l35 0 q19 0 24.5 5 q5.5 5 5.5 25 l0 450 l-63 0 l0 12 l63 0 l0 58 q0 94 53 143 q53 49 143 49 q49 0 84 -23 l77 23 Z" /></font>
</defs>
</svg>
